<svg height="540" width="1080" xmlns="http://www.w3.org/2000/svg"><path  fill="#69c" fill-opacity=".621053" d="m219.04236 135c-3.33916 4.54072-7.85255 10.20565-7.85252 22.76439 0 9.10208 1.86874 16.90668 4.52115 20.54348v5.07638c-1.57673-2.36991-4.79231-5.20661-8.96299-7.61457-6.75311-3.89891-11.02818-3.29386-14.67391-2.85546 1.40499 3.20522 3.00311 7.3643 9.75617 11.26322 5.85644 3.38119 11.59321 4.76502 13.88073 3.56933v10.94594c-1.57673-2.36991-4.79231-5.20661-8.96299-7.61457-6.75311-3.89889-11.02818-3.29389-14.67391-2.85546 1.40499 3.20527 3.00311 7.36425 9.75617 11.26322 5.85832 3.38231 11.59468 4.7671 13.88073 3.56933v7.69389c-1.47936 1.52847-2.60167 3.12626-3.49001 4.7591-2.17046 3.37364-3.37026 6.90842-3.09342 10.94595-.23407 3.5808.65774 6.86408 2.37955 9.9148.95758 2.06769 2.29818 4.05842 4.20388 5.94889v2.45887c-2.22074.28923-4.34262.84116-6.34548 1.66569l-5.55229-9.51822c-.41743-5.93652-4.41249-16.60382-10.94594-27.92009-9.1119-15.78229-16.81432-20.4952-23.31963-24.66804.40269 7.37583.64422 16.65893 9.75617 32.44125 6.50762 11.27149 13.709 20.1179 18.63984 23.47826l5.55229 9.59753c-1.70267 1.31877-3.20142 2.89859-4.52115 4.60047l-2.30024-1.26909c-.68503-2.54665-1.72087-4.66736-3.0141-6.50412-1.78123-3.01643-4.15855-5.47165-7.37662-7.05934-3.35817-2.25848-7.01845-2.96895-11.02526-2.77615-1.82509-.04622-3.76807.13897-5.79025.63455l-6.66275-3.80728c2.14259-1.46208 3.72797-7.1148 3.72797-13.80141 0-7.79783-2.7651-11.29929-4.83842-14.11869-2.20257 2.93806-4.83843 6.32086-4.83843 14.11869.0001 4.7289.75732 8.93671 1.98296 11.50117l-9.28026-5.39365c2.14208-1.46314 3.72797-7.03653 3.72797-13.72209 0-7.79781-2.76511-11.37864-4.83843-14.19801-2.20256 2.93806-4.83842 6.40018-4.83842 14.19801.00005 4.7289.75729 8.85737 1.98296 11.42185l-4.2832-2.45887c-1.83569-4.11286-7.67924-9.57664-15.54641-14.11868-10.87612-6.27938-17.76538-5.30647-23.6369-4.60047 2.26282 5.16214 4.90817 11.88457 15.78437 18.16392 7.88268 4.55105 15.59183 6.82415 20.06757 6.34548l4.36251 2.53819c-2.84074.18051-6.85456 1.55799-11.02526 3.96592-6.75308 3.89889-8.39227 7.88672-9.83549 11.26322 3.47826.38586 7.84151 1.12272 14.5946-2.77615 5.85646-3.38122 9.96516-7.65317 10.07344-10.23208l9.43889 5.47298c-2.84074.18051-6.85458 1.55799-11.02526 3.96592-6.75303 3.89891-8.39232 7.88672-9.83549 11.26322 3.47829.38585 7.92078 1.04337 14.67392-2.85546 5.85834-3.38235 9.8884-7.65341 9.99412-10.23208l6.66275 3.8866c.58396 2.04537 1.40963 3.80792 2.37955 5.39365 1.83643 3.56649 4.29683 6.39081 7.93185 8.1698 2.984 1.99312 6.25326 2.82123 9.75617 2.85547 2.26939.20453 4.70725.07061 7.29729-.63455l2.1416 1.2691c-.81397 1.97661-1.3726 4.07679-1.66568 6.26615h-11.10459c-5.35416-2.604-16.60674-4.4418-29.6651-4.44183-18.22385 0-26.13003 4.30525-32.99647 7.85253 6.58896 3.33919 14.7726 7.7732 32.99647 7.7732 13.05838 0 24.31094-1.75853 29.6651-4.36251h11.10459c.2941 2.18025.85483 4.29716 1.66568 6.26616l-2.22091 1.26909c-2.54799-.68011-4.98069-.91547-7.21798-.71386-3.50296.03431-6.77215.94169-9.75617 2.93478-3.63502 1.77902-6.09542 4.60339-7.93185 8.1698-.95253 1.55754-1.71833 3.31529-2.30023 5.31434l-6.66275 3.8866c-.19488-2.58654-4.28266-6.80945-10.07344-10.15276-6.75309-3.89887-11.19561-3.24132-14.67392-2.85547 1.44314 3.37648 3.08238 7.36431 9.83549 11.26323 4.09545 2.36445 8.11223 3.82444 10.94595 4.04524l-9.28026 5.31433c-.19608-2.58669-4.28355-6.73067-10.07345-10.07344-6.75308-3.89889-11.1956-3.32064-14.67391-2.93478 1.44314 3.37645 3.08235 7.44362 9.83549 11.34254 4.09539 2.36445 8.11221 3.74515 10.94595 3.96592l-4.2832 2.45887c-4.47968-.46665-12.12113 1.88265-19.98825 6.4248-10.87615 6.27935-13.53934 12.72602-15.86369 18.16392 5.60196.62143 12.76073 1.67891 23.6369-4.60047 7.88268-4.55105 13.72308-10.08256 15.54641-14.198l4.36252-2.53819c-1.26402 2.55042-2.06226 6.7646-2.06228 11.58049.00002 7.79783 2.63591 11.18058 4.83842 14.11868 2.07327-2.81939 4.8384-6.24161 4.83843-14.03936.00002-6.76245-1.62805-12.4182-3.80729-13.80141l9.4389-5.47297c-1.26402 2.55045-2.06228 6.76463-2.06228 11.58049.00008 7.7978 2.63586 11.18063 4.83843 14.11868 2.07329-2.81937 4.91766-6.32088 4.91774-14.11868.00002-6.76456-1.70627-12.42053-3.88661-13.80141l6.66275-3.80729c2.06332.51693 4.01131.68166 5.86957.63455 4.00689.19285 7.66709-.51761 11.02526-2.77614 3.21807-1.58767 5.59552-4.04286 7.37662-7.05935 1.31179-1.86316 2.4091-3.9878 3.09342-6.58343l2.1416-1.2691c1.33174 1.73257 2.87376 3.2615 4.60047 4.60047l-5.63161 9.67686c-4.92853 3.39721-12.08461 12.1823-18.56052 23.39894-9.1119 15.78232-9.39506 24.80043-9.75617 32.52056 6.18628-4.03663 14.20767-8.88572 23.31963-24.66803 6.53345-11.31632 10.52851-21.9836 10.94594-27.9201l5.55229-9.59753c2.00357.82509 4.12383 1.45565 6.34548 1.74501v2.53819c-1.86296 1.86653-3.25982 3.83119-4.20388 5.86956-1.72173 3.05073-2.6136 6.33403-2.37955 9.91481-.27684 4.03752.92304 7.57236 3.09342 10.94594.87255 1.60371 2.04971 3.17632 3.49001 4.67979v7.69389c-2.33747-1.12457-8.01063.30535-13.80141 3.64865-6.75309 3.89892-8.4305 8.05799-9.83549 11.26322 3.64571.43842 7.9208 1.04345 14.67391-2.85546 4.09532-2.36448 7.35492-5.11227 8.96299-7.45594v10.70799c-2.33818-1.12355-8.01155.30583-13.80141 3.64865-6.75309 3.89889-8.4305 8.05797-9.83549 11.26322 3.64568.43835 7.9208 1.04348 14.67391-2.85546 4.09537-2.36445 7.35492-5.11222 8.96299-7.45594v4.91775c-2.64398 3.64618-4.44189 11.45927-4.44183 20.54348-.00003 12.55871 4.22603 18.03249 7.7732 22.76439 3.33915-4.5407 7.85256-10.20566 7.85253-22.76439 0-9.10208-1.86874-16.90671-4.52115-20.54348v-5.07638c1.57672 2.36985 4.7923 5.20661 8.96298 7.61457 6.75311 3.89889 11.02819 3.29383 14.67392 2.85546-1.40499-3.20528-3.00311-7.3643-9.75617-11.26322-5.85645-3.38125-11.59321-4.76499-13.88073-3.56933v-10.94594c1.57672 2.3699 4.7923 5.20664 8.96298 7.61457 6.75311 3.89891 11.02819 3.29391 14.67392 2.85546-1.40499-3.20523-3.00311-7.36425-9.75617-11.26322-5.85832-3.38232-11.59468-4.76713-13.88073-3.56933v-7.69389c1.47936-1.52847 2.60169-3.12624 3.49001-4.75911 2.17046-3.37361 3.37026-6.90839 3.09342-10.94594.23407-3.58075-.65775-6.86411-2.37955-9.91481-.95761-2.06768-2.29818-4.05844-4.20388-5.94888v-2.45887c2.21366-.2903 4.34855-.92266 6.34547-1.74501l5.47298 9.51821c.38481 5.91955 4.46125 16.6302 11.02526 27.99942 9.11193 15.78231 16.8145 20.49522 23.31963 24.66803-.40269-7.3758-.64422-16.73824-9.75617-32.52056-6.54089-11.32914-13.78629-20.15737-18.71916-23.47826l-5.47297-9.59754c1.72671-1.33897 3.26873-2.8679 4.60047-4.60047l2.22092 1.2691c.68503 2.54664 1.72086 4.74667 3.0141 6.58343 1.78122 3.01644 4.15854 5.47166 7.37661 7.05935 3.35816 2.25853 7.01845 2.96897 11.02527 2.77614 1.82506.0462 3.76807-.21826 5.79024-.71386l6.66275 3.8866c-2.14261 1.46202-3.72796 7.03548-3.72796 13.72209 0 7.7978 2.7651 11.37863 4.83842 14.198 2.20254-2.93805 4.83843-6.32085 4.83843-14.11868.00002-4.7289-.75732-8.93669-1.98296-11.50118l9.28025 5.31434c-2.1421 1.46317-3.72801 7.11584-3.72796 13.80141-.00003 7.79778 2.7651 11.29931 4.83842 14.11868 2.20254-2.93808 4.83845-6.32085 4.83843-14.11868-.00005-4.72893-.7573-8.93666-1.98296-11.50117l4.28319 2.45887c1.8357 4.11288 7.67925 9.57662 15.54642 14.11868 10.87612 6.27938 17.76538 5.38576 23.6369 4.67979-2.26282-5.16215-4.90818-11.88459-15.78437-18.16392-7.88271-4.55108-15.59183-6.90345-20.06757-6.4248l-4.36252-2.53819c2.84072-.18054 6.85459-1.47867 11.02527-3.8866 6.75306-3.89892 8.39227-7.96606 9.83549-11.34254-3.47826-.38586-7.92083-1.0434-14.67392 2.85546-5.85647 3.38118-9.88584 7.6532-9.99412 10.23208l-9.51822-5.47297c2.84075-.18052 6.93391-1.55797 11.10459-3.96592 6.75318-3.89889 8.39232-7.8867 9.83548-11.26323-3.47831-.38585-7.92077-1.12269-14.67391 2.77615-5.85837 3.38232-9.88841 7.65341-9.99412 10.23208l-6.66275-3.80728c-.58396-2.0454-1.40961-3.80792-2.37956-5.39366-1.83645-3.56651-4.2968-6.39078-7.93184-8.1698-2.98402-1.99309-6.25326-2.90057-9.75617-2.93478-2.2694-.20453-4.70728.0087-7.2973.71386l-2.1416-1.26909c.81085-1.969 1.37162-4.08591 1.66569-6.26616h11.10458c5.36574 2.59647 16.63 4.36249 29.6651 4.36251 18.22386 0 26.13007-4.22593 32.99648-7.7732-6.58897-3.33917-14.7726-7.8525-32.99648-7.85253-13.0351 0-24.29936 1.84537-29.6651 4.44183h-11.10458c-.29641-2.21424-.83689-4.34926-1.66569-6.34547l2.22092-1.2691c2.54799.68008 4.98067.91545 7.21798.71387 3.50296-.03432 6.77215-.86238 9.75617-2.85547 3.63499-1.77899 6.09544-4.60338 7.93184-8.1698.95251-1.55748 1.71836-3.3946 2.30024-5.39365l6.66275-3.80729c.19486 2.58652 4.28266 6.73014 10.07344 10.07345 6.75309 3.89883 11.1956 3.32066 14.67391 2.93478-1.44316-3.3765-3.08237-7.36431-9.83548-11.26322-4.0953-2.3644-8.11224-3.82442-10.94595-4.04524l9.28026-5.39366c.19607 2.5867 4.28353 6.81002 10.07344 10.15277 6.75306 3.89891 11.19561 3.24132 14.67392 2.85546-1.44314-3.37645-3.08236-7.36433-9.83549-11.26322-4.09542-2.36448-8.11216-3.82444-10.94595-4.04524l4.2832-2.45887c4.47968.46662 12.12113-1.88265 19.98825-6.4248 10.87614-6.2793 13.53931-12.64673 15.86369-18.0846-5.60197-.62143-12.76073-1.67894-23.6369 4.60047-7.88271 4.55102-13.72308 10.00326-15.54642 14.11868l-4.36251 2.53819c1.26399-2.55042 2.06228-6.68529 2.06228-11.50117-.00005-7.79778-2.63591-11.25992-4.83843-14.19801-2.07327 2.81937-4.91772 6.32091-4.91774 14.11869-.00003 6.76242 1.70736 12.4182 3.8866 13.80141l-9.51821 5.47297c1.26402-2.55047 2.1416-6.76461 2.1416-11.58049.00007-7.79783-2.63586-11.1806-4.83843-14.11869-2.07332 2.8194-4.91767 6.24157-4.91774 14.03937-.00005 6.76455 1.70625 12.42051 3.8866 13.80141l-6.66275 3.8866c-2.06332-.51698-4.0113-.68168-5.86956-.63455-4.00692-.1929-7.66706.51762-11.02527 2.77615-3.21809 1.58769-5.59551 4.04283-7.37661 7.05934-1.31179 1.86316-2.4091 3.98783-3.09342 6.58343l-2.1416 1.2691c-1.33476-1.7365-2.86904-3.33876-4.60047-4.67979l5.47297-9.51821c4.93336-3.31092 12.16999-12.21403 18.71916-23.55758 9.1119-15.78232 9.39506-24.72116 9.75617-32.44125-6.18631 4.03664-14.2077 8.8857-23.31963 24.66804-6.56401 11.36924-10.64045 22.07987-11.02526 27.99941l-5.47298 9.4389c-1.99618-.82179-4.13273-1.3755-6.34547-1.66569v-2.53819c1.86295-1.86651 3.25982-3.83122 4.20388-5.86957 1.72173-3.05072 2.6136-6.33402 2.37955-9.9148.27684-4.0375-.92304-7.57234-3.09342-10.94595-.87255-1.60365-2.04974-3.17634-3.49001-4.67979v-7.69389c2.33747 1.12455 8.01063-.30534 13.80141-3.64864 6.75308-3.89894 8.4305-8.05797 9.83549-11.26322-3.64571-.4384-7.92081-1.04345-14.67392 2.85546-4.09534 2.3645-7.35491 5.11225-8.96298 7.45593v-10.70799c2.33815 1.12356 8.01152-.30585 13.80141-3.64864 6.75308-3.89892 8.4305-8.058 9.83549-11.26322-3.64571-.4384-7.92081-1.04345-14.67392 2.85546-4.09534 2.36448-7.35491 5.11224-8.96298 7.45593v-4.91774c2.64398-3.64621 4.44188-11.4593 4.44183-20.54348 0-12.55874-4.22603-18.0325-7.77321-22.76439z"/></svg>