<?xml version="1.0" encoding="UTF-8" standalone="no"?>
<!-- Created with Inkscape (http://www.inkscape.org/) -->
<svg
   xmlns:dc="http://purl.org/dc/elements/1.1/"
   xmlns:cc="http://creativecommons.org/ns#"
   xmlns:rdf="http://www.w3.org/1999/02/22-rdf-syntax-ns#"
   xmlns:svg="http://www.w3.org/2000/svg"
   xmlns="http://www.w3.org/2000/svg"
   xmlns:sodipodi="http://sodipodi.sourceforge.net/DTD/sodipodi-0.dtd"
   xmlns:inkscape="http://www.inkscape.org/namespaces/inkscape"
   width="1080"
   height="540"
   id="svg2"
   sodipodi:version="0.32"
   inkscape:version="0.46"
   sodipodi:docname="snowflake09a.svg"
   inkscape:output_extension="org.inkscape.output.svg.inkscape"
   version="1.0">
  <defs
     id="defs4">
    <inkscape:perspective
       sodipodi:type="inkscape:persp3d"
       inkscape:vp_x="0 : 526.18109 : 1"
       inkscape:vp_y="0 : 1000 : 0"
       inkscape:vp_z="744.09448 : 526.18109 : 1"
       inkscape:persp3d-origin="372.04724 : 350.78739 : 1"
       id="perspective10" />
  </defs>
  <sodipodi:namedview
     id="base"
     pagecolor="#ffffff"
     bordercolor="#666666"
     borderopacity="1.0"
     gridtolerance="10000"
     guidetolerance="10"
     objecttolerance="10"
     inkscape:pageopacity="0.0"
     inkscape:pageshadow="2"
     inkscape:zoom="1.4885964"
     inkscape:cx="291.15161"
     inkscape:cy="282.85714"
     inkscape:document-units="in"
     inkscape:current-layer="layer1"
     showgrid="false"
     units="in"
     inkscape:snap-guide="true" />
  <metadata
     id="metadata7">
    <rdf:RDF>
      <cc:Work
         rdf:about="">
        <dc:format>image/svg+xml</dc:format>
        <dc:type
           rdf:resource="http://purl.org/dc/dcmitype/StillImage" />
        <dc:creator>
          <cc:Agent>
            <dc:title>HeatherM</dc:title>
          </cc:Agent>
        </dc:creator>
      </cc:Work>
    </rdf:RDF>
  </metadata>
  <g
     inkscape:label="Layer 1"
     inkscape:groupmode="layer"
     id="layer1">
    <path
       style="fill:#6699cc;fill-opacity:0.62105264;fill-rule:nonzero;stroke:none;stroke-width:4.30299997;stroke-linecap:butt;stroke-linejoin:miter;stroke-miterlimit:4;stroke-dashoffset:0;stroke-opacity:1"
       d="M 219.04236,135 C 215.7032,139.54072 211.18981,145.20565 211.18984,157.76439 C 211.18984,166.86647 213.05858,174.67107 215.71099,178.30787 L 215.71099,183.38425 C 214.13426,181.01434 210.91868,178.17764 206.748,175.76968 C 199.99489,171.87077 195.71982,172.47582 192.07409,172.91422 C 193.47908,176.11944 195.0772,180.27852 201.83026,184.17744 C 207.6867,187.55863 213.42347,188.94246 215.71099,187.74677 L 215.71099,198.69271 C 214.13426,196.3228 210.91868,193.4861 206.748,191.07814 C 199.99489,187.17925 195.71982,187.78425 192.07409,188.22268 C 193.47908,191.42795 195.0772,195.58693 201.83026,199.4859 C 207.68858,202.86821 213.42494,204.253 215.71099,203.05523 L 215.71099,210.74912 C 214.23163,212.27759 213.10932,213.87538 212.22098,215.50822 C 210.05052,218.88186 208.85072,222.41664 209.12756,226.45417 C 208.89349,230.03497 209.7853,233.31825 211.50711,236.36897 C 212.46469,238.43666 213.80529,240.42739 215.71099,242.31786 L 215.71099,244.77673 C 213.49025,245.06596 211.36837,245.61789 209.36551,246.44242 L 203.81322,236.9242 C 203.39579,230.98768 199.40073,220.32038 192.86728,209.00411 C 183.75538,193.22182 176.05296,188.50891 169.54765,184.33607 C 169.95034,191.7119 170.19187,200.995 179.30382,216.77732 C 185.81144,228.04881 193.01282,236.89522 197.94366,240.25558 L 203.49595,249.85311 C 201.79328,251.17188 200.29453,252.7517 198.9748,254.45358 L 196.67456,253.18449 C 195.98953,250.63784 194.95369,248.51713 193.66046,246.68037 C 191.87923,243.66394 189.50191,241.20872 186.28384,239.62103 C 182.92567,237.36255 179.26539,236.65208 175.25858,236.84488 C 173.43349,236.79866 171.49051,236.98385 169.46833,237.47943 L 162.80558,233.67215 C 164.94817,232.21007 166.53355,226.55735 166.53355,219.87074 C 166.53355,212.07291 163.76845,208.57145 161.69513,205.75205 C 159.49256,208.69011 156.8567,212.07291 156.8567,219.87074 C 156.8568,224.59964 157.61402,228.80745 158.83966,231.37191 L 149.5594,225.97826 C 151.70148,224.51512 153.28737,218.94173 153.28737,212.25617 C 153.28737,204.45836 150.52226,200.87753 148.44894,198.05816 C 146.24638,200.99622 143.61052,204.45834 143.61052,212.25617 C 143.61057,216.98507 144.36781,221.11354 145.59348,223.67802 L 141.31028,221.21915 C 139.47459,217.10629 133.63104,211.64251 125.76387,207.10047 C 114.88775,200.82109 107.99849,201.794 102.12697,202.5 C 104.38979,207.66214 107.03514,214.38457 117.91134,220.66392 C 125.79402,225.21497 133.50317,227.48807 137.97891,227.0094 L 142.34142,229.54759 C 139.50068,229.7281 135.48686,231.10558 131.31616,233.51351 C 124.56308,237.4124 122.92389,241.40023 121.48067,244.77673 C 124.95893,245.16259 129.32218,245.89945 136.07527,242.00058 C 141.93173,238.61936 146.04043,234.34741 146.14871,231.7685 L 155.5876,237.24148 C 152.74686,237.42199 148.73302,238.79947 144.56234,241.2074 C 137.80931,245.10631 136.17002,249.09412 134.72685,252.47062 C 138.20514,252.85647 142.64763,253.51399 149.40077,249.61516 C 155.25911,246.23281 159.28917,241.96175 159.39489,239.38308 L 166.05764,243.26968 C 166.6416,245.31505 167.46727,247.0776 168.43719,248.66333 C 170.27362,252.22982 172.73402,255.05414 176.36904,256.83313 C 179.35304,258.82625 182.6223,259.65436 186.12521,259.6886 C 188.3946,259.89313 190.83246,259.75921 193.4225,259.05405 L 195.5641,260.32315 C 194.75013,262.29976 194.1915,264.39994 193.89842,266.5893 L 182.79383,266.5893 C 177.43967,263.9853 166.18709,262.1475 153.12873,262.14747 C 134.90488,262.14747 126.9987,266.45272 120.13226,270 C 126.72122,273.33919 134.90486,277.7732 153.12873,277.7732 C 166.18711,277.7732 177.43967,276.01467 182.79383,273.41069 L 193.89842,273.41069 C 194.19252,275.59094 194.75325,277.70785 195.5641,279.67685 L 193.34319,280.94594 C 190.7952,280.26583 188.3625,280.03047 186.12521,280.23208 C 182.62225,280.26639 179.35306,281.17377 176.36904,283.16686 C 172.73402,284.94588 170.27362,287.77025 168.43719,291.33666 C 167.48466,292.8942 166.71886,294.65195 166.13696,296.651 L 159.47421,300.5376 C 159.27933,297.95106 155.19155,293.72815 149.40077,290.38484 C 142.64768,286.48597 138.20516,287.14352 134.72685,287.52937 C 136.16999,290.90585 137.80923,294.89368 144.56234,298.7926 C 148.65779,301.15705 152.67457,302.61704 155.50829,302.83784 L 146.22803,308.15217 C 146.03195,305.56548 141.94448,301.4215 136.15458,298.07873 C 129.4015,294.17984 124.95898,294.75809 121.48067,295.14395 C 122.92381,298.5204 124.56302,302.58757 131.31616,306.48649 C 135.41155,308.85094 139.42837,310.23164 142.26211,310.45241 L 137.97891,312.91128 C 133.49923,312.44463 125.85778,314.79393 117.99066,319.33608 C 107.11451,325.61543 104.45132,332.0621 102.12697,337.5 C 107.72893,338.12143 114.8877,339.17891 125.76387,332.89953 C 133.64655,328.34848 139.48695,322.81697 141.31028,318.70153 L 145.6728,316.16334 C 144.40878,318.71376 143.61054,322.92794 143.61052,327.74383 C 143.61054,335.54166 146.24643,338.92441 148.44894,341.86251 C 150.52221,339.04312 153.28734,335.6209 153.28737,327.82315 C 153.28739,321.0607 151.65932,315.40495 149.48008,314.02174 L 158.91898,308.54877 C 157.65496,311.09922 156.8567,315.3134 156.8567,320.12926 C 156.85678,327.92706 159.49256,331.30989 161.69513,334.24794 C 163.76842,331.42857 166.61279,327.92706 166.61287,320.12926 C 166.61289,313.3647 164.9066,307.70873 162.72626,306.32785 L 169.38901,302.52056 C 171.45233,303.03749 173.40032,303.20222 175.25858,303.15511 C 179.26547,303.34796 182.92567,302.6375 186.28384,300.37897 C 189.50191,298.7913 191.87936,296.33611 193.66046,293.31962 C 194.97225,291.45646 196.06956,289.33182 196.75388,286.73619 L 198.89548,285.46709 C 200.22722,287.19966 201.76924,288.72859 203.49595,290.06756 L 197.86434,299.74442 C 192.93581,303.14163 185.77973,311.92672 179.30382,323.14336 C 170.19192,338.92568 169.90876,347.94379 169.54765,355.66392 C 175.73393,351.62729 183.75532,346.7782 192.86728,330.99589 C 199.40073,319.67957 203.39579,309.01229 203.81322,303.07579 L 209.36551,293.47826 C 211.36908,294.30335 213.48934,294.93391 215.71099,295.22327 L 215.71099,297.76146 C 213.84803,299.62799 212.45117,301.59265 211.50711,303.63102 C 209.78538,306.68175 208.89351,309.96505 209.12756,313.54583 C 208.85072,317.58335 210.0506,321.11819 212.22098,324.49177 C 213.09353,326.09548 214.27069,327.66809 215.71099,329.17156 L 215.71099,336.86545 C 213.37352,335.74088 207.70036,337.1708 201.90958,340.5141 C 195.15649,344.41302 193.47908,348.57209 192.07409,351.77732 C 195.7198,352.21574 199.99489,352.82077 206.748,348.92186 C 210.84332,346.55738 214.10292,343.80959 215.71099,341.46592 L 215.71099,352.17391 C 213.37281,351.05036 207.69944,352.47974 201.90958,355.82256 C 195.15649,359.72145 193.47908,363.88053 192.07409,367.08578 C 195.71977,367.52413 199.99489,368.12926 206.748,364.23032 C 210.84337,361.86587 214.10292,359.1181 215.71099,356.77438 L 215.71099,361.69213 C 213.06701,365.33831 211.2691,373.1514 211.26916,382.23561 C 211.26913,394.79432 215.49519,400.2681 219.04236,405 C 222.38151,400.4593 226.89492,394.79434 226.89489,382.23561 C 226.89489,373.13353 225.02615,365.3289 222.37374,361.69213 L 222.37374,356.61575 C 223.95046,358.9856 227.16604,361.82236 231.33672,364.23032 C 238.08983,368.12921 242.36491,367.52415 246.01064,367.08578 C 244.60565,363.8805 243.00753,359.72148 236.25447,355.82256 C 230.39802,352.44131 224.66126,351.05757 222.37374,352.25323 L 222.37374,341.30729 C 223.95046,343.67719 227.16604,346.51393 231.33672,348.92186 C 238.08983,352.82077 242.36491,352.21577 246.01064,351.77732 C 244.60565,348.57209 243.00753,344.41307 236.25447,340.5141 C 230.39615,337.13178 224.65979,335.74697 222.37374,336.94477 L 222.37374,329.25088 C 223.8531,327.72241 224.97543,326.12464 225.86375,324.49177 C 228.03421,321.11816 229.23401,317.58338 228.95717,313.54583 C 229.19124,309.96508 228.29942,306.68172 226.57762,303.63102 C 225.62001,301.56334 224.27944,299.57258 222.37374,297.68214 L 222.37374,295.22327 C 224.5874,294.93297 226.72229,294.30061 228.71921,293.47826 L 234.19219,302.99647 C 234.577,308.91602 238.65344,319.62667 245.21745,330.99589 C 254.32938,346.7782 262.03195,351.49111 268.53708,355.66392 C 268.13439,348.28812 267.89286,338.92568 258.78091,323.14336 C 252.24002,311.81422 244.99462,302.98599 240.06175,299.6651 L 234.58878,290.06756 C 236.31549,288.72859 237.85751,287.19966 239.18925,285.46709 L 241.41017,286.73619 C 242.0952,289.28283 243.13103,291.48286 244.42427,293.31962 C 246.20549,296.33606 248.58281,298.79128 251.80088,300.37897 C 255.15904,302.6375 258.81933,303.34794 262.82615,303.15511 C 264.65121,303.20131 266.59422,302.93685 268.61639,302.44125 L 275.27914,306.32785 C 273.13653,307.78987 271.55118,313.36333 271.55118,320.04994 C 271.55118,327.84774 274.31628,331.42857 276.3896,334.24794 C 278.59214,331.30989 281.22803,327.92709 281.22803,320.12926 C 281.22805,315.40036 280.47071,311.19257 279.24507,308.62808 L 288.52532,313.94242 C 286.38322,315.40559 284.79731,321.05826 284.79736,327.74383 C 284.79733,335.54161 287.56246,339.04314 289.63578,341.86251 C 291.83832,338.92443 294.47423,335.54166 294.47421,327.74383 C 294.47416,323.0149 293.71691,318.80717 292.49125,316.24266 L 296.77444,318.70153 C 298.61014,322.81441 304.45369,328.27815 312.32086,332.82021 C 323.19698,339.09959 330.08624,338.20597 335.95776,337.5 C 333.69494,332.33785 331.04958,325.61541 320.17339,319.33608 C 312.29068,314.785 304.58156,312.43263 300.10582,312.91128 L 295.7433,310.37309 C 298.58402,310.19255 302.59789,308.89442 306.76857,306.48649 C 313.52163,302.58757 315.16084,298.52043 316.60406,295.14395 C 313.1258,294.75809 308.68323,294.10055 301.93014,297.99941 C 296.07367,301.38059 292.0443,305.65261 291.93602,308.23149 L 282.4178,302.75852 C 285.25855,302.578 289.35171,301.20055 293.52239,298.7926 C 300.27557,294.89371 301.91471,290.9059 303.35787,287.52937 C 299.87956,287.14352 295.4371,286.40668 288.68396,290.30552 C 282.82559,293.68784 278.79555,297.95893 278.68984,300.5376 L 272.02709,296.73032 C 271.44313,294.68492 270.61748,292.9224 269.64753,291.33666 C 267.81108,287.77015 265.35073,284.94588 261.71569,283.16686 C 258.73167,281.17377 255.46243,280.26629 251.95952,280.23208 C 249.69012,280.02755 247.25224,280.24078 244.66222,280.94594 L 242.52062,279.67685 C 243.33147,277.70785 243.89224,275.59094 244.18631,273.41069 L 255.29089,273.41069 C 260.65663,276.00716 271.92089,277.77318 284.95599,277.7732 C 303.17985,277.7732 311.08606,273.54727 317.95247,270 C 311.3635,266.66083 303.17987,262.1475 284.95599,262.14747 C 271.92089,262.14747 260.65663,263.99284 255.29089,266.5893 L 244.18631,266.5893 C 243.8899,264.37506 243.34942,262.24004 242.52062,260.24383 L 244.74154,258.97473 C 247.28953,259.65481 249.72221,259.89018 251.95952,259.6886 C 255.46248,259.65428 258.73167,258.82622 261.71569,256.83313 C 265.35068,255.05414 267.81113,252.22975 269.64753,248.66333 C 270.60004,247.10585 271.36589,245.26873 271.94777,243.26968 L 278.61052,239.46239 C 278.80538,242.04891 282.89318,246.19253 288.68396,249.53584 C 295.43705,253.43467 299.87956,252.8565 303.35787,252.47062 C 301.91471,249.09412 300.2755,245.10631 293.52239,241.2074 C 289.42709,238.843 285.41015,237.38298 282.57644,237.16216 L 291.8567,231.7685 C 292.05277,234.3552 296.14023,238.57852 301.93014,241.92127 C 308.6832,245.82018 313.12575,245.16259 316.60406,244.77673 C 315.16092,241.40028 313.5217,237.4124 306.76857,233.51351 C 302.67315,231.14903 298.65641,229.68907 295.82262,229.46827 L 300.10582,227.0094 C 304.5855,227.47602 312.22695,225.12675 320.09407,220.5846 C 330.97021,214.3053 333.63338,207.93787 335.95776,202.5 C 330.35579,201.87857 323.19703,200.82106 312.32086,207.10047 C 304.43815,211.65149 298.59778,217.10373 296.77444,221.21915 L 292.41193,223.75734 C 293.67592,221.20692 294.47421,217.07205 294.47421,212.25617 C 294.47416,204.45839 291.8383,200.99625 289.63578,198.05816 C 287.56251,200.87753 284.71806,204.37907 284.71804,212.17685 C 284.71801,218.93927 286.4254,224.59505 288.60464,225.97826 L 279.08643,231.45123 C 280.35045,228.90076 281.22803,224.68662 281.22803,219.87074 C 281.2281,212.07291 278.59217,208.69014 276.3896,205.75205 C 274.31628,208.57145 271.47193,211.99362 271.47186,219.79142 C 271.47181,226.55597 273.17811,232.21193 275.35846,233.59283 L 268.69571,237.47943 C 266.63239,236.96245 264.68441,236.79775 262.82615,236.84488 C 258.81923,236.65198 255.15909,237.3625 251.80088,239.62103 C 248.58279,241.20872 246.20537,243.66386 244.42427,246.68037 C 243.11248,248.54353 242.01517,250.6682 241.33085,253.2638 L 239.18925,254.5329 C 237.85449,252.7964 236.32021,251.19414 234.58878,249.85311 L 240.06175,240.3349 C 244.99511,237.02398 252.23174,228.12087 258.78091,216.77732 C 267.89281,200.995 268.17597,192.05616 268.53708,184.33607 C 262.35077,188.37271 254.32938,193.22177 245.21745,209.00411 C 238.65344,220.37335 234.577,231.08398 234.19219,237.00352 L 228.71921,246.44242 C 226.72303,245.62063 224.58648,245.06692 222.37374,244.77673 L 222.37374,242.23854 C 224.23669,240.37203 225.63356,238.40732 226.57762,236.36897 C 228.29935,233.31825 229.19122,230.03495 228.95717,226.45417 C 229.23401,222.41667 228.03413,218.88183 225.86375,215.50822 C 224.9912,213.90457 223.81401,212.33188 222.37374,210.82843 L 222.37374,203.13454 C 224.71121,204.25909 230.38437,202.8292 236.17515,199.4859 C 242.92823,195.58696 244.60565,191.42793 246.01064,188.22268 C 242.36493,187.78428 238.08983,187.17923 231.33672,191.07814 C 227.24138,193.44264 223.98181,196.19039 222.37374,198.53407 L 222.37374,187.82608 C 224.71189,188.94964 230.38526,187.52023 236.17515,184.17744 C 242.92823,180.27852 244.60565,176.11944 246.01064,172.91422 C 242.36493,172.47582 238.08983,171.87077 231.33672,175.76968 C 227.24138,178.13416 223.98181,180.88192 222.37374,183.22561 L 222.37374,178.30787 C 225.01772,174.66166 226.81562,166.84857 226.81557,157.76439 C 226.81557,145.20565 222.58954,139.73189 219.04236,135 z"
       id="path3977"
       inkscape:export-filename="C:\Documents and Settings\Heather\My Documents\Cricut\snowflakes 2009\path4303.png"
       inkscape:export-xdpi="83.970001"
       inkscape:export-ydpi="83.970001" />
  </g>
</svg>
