<?xml version="1.0" encoding="UTF-8" standalone="no"?>
<!-- Created with Inkscape (http://www.inkscape.org/) -->
<svg
   xmlns:dc="http://purl.org/dc/elements/1.1/"
   xmlns:cc="http://creativecommons.org/ns#"
   xmlns:rdf="http://www.w3.org/1999/02/22-rdf-syntax-ns#"
   xmlns:svg="http://www.w3.org/2000/svg"
   xmlns="http://www.w3.org/2000/svg"
   xmlns:sodipodi="http://sodipodi.sourceforge.net/DTD/sodipodi-0.dtd"
   xmlns:inkscape="http://www.inkscape.org/namespaces/inkscape"
   width="1080"
   height="540"
   id="svg2"
   sodipodi:version="0.32"
   inkscape:version="0.46"
   sodipodi:docname="snowflake09b.svg"
   inkscape:output_extension="org.inkscape.output.svg.inkscape"
   version="1.0">
  <defs
     id="defs4">
    <inkscape:perspective
       sodipodi:type="inkscape:persp3d"
       inkscape:vp_x="0 : 526.18109 : 1"
       inkscape:vp_y="0 : 1000 : 0"
       inkscape:vp_z="744.09448 : 526.18109 : 1"
       inkscape:persp3d-origin="372.04724 : 350.78739 : 1"
       id="perspective10" />
  </defs>
  <sodipodi:namedview
     id="base"
     pagecolor="#ffffff"
     bordercolor="#666666"
     borderopacity="1.0"
     gridtolerance="10000"
     guidetolerance="10"
     objecttolerance="10"
     inkscape:pageopacity="0.0"
     inkscape:pageshadow="2"
     inkscape:zoom="0.35"
     inkscape:cx="375"
     inkscape:cy="495.71429"
     inkscape:document-units="in"
     inkscape:current-layer="layer1"
     showgrid="false"
     units="in"
     inkscape:snap-guide="true" />
  <metadata
     id="metadata7">
    <rdf:RDF>
      <cc:Work
         rdf:about="">
        <dc:format>image/svg+xml</dc:format>
        <dc:type
           rdf:resource="http://purl.org/dc/dcmitype/StillImage" />
        <dc:creator>
          <cc:Agent>
            <dc:title>HeatherM</dc:title>
          </cc:Agent>
        </dc:creator>
      </cc:Work>
    </rdf:RDF>
  </metadata>
  <g
     inkscape:label="Layer 1"
     inkscape:groupmode="layer"
     id="layer1">
    <path
       style="fill:#6699cc;fill-opacity:0.61960784;fill-rule:nonzero;stroke:none;stroke-width:4.30299997;stroke-linecap:butt;stroke-linejoin:miter;stroke-miterlimit:4;stroke-dashoffset:0;stroke-opacity:1"
       d="M 191.42856,93.571429 C 188.08942,98.112129 183.57601,103.77709 183.57604,116.33582 C 183.57606,125.4379 185.44478,133.24251 188.09719,136.8793 L 188.09719,141.95568 C 186.52049,139.58577 183.30488,136.74907 179.1342,134.34111 C 172.38112,130.4422 168.10602,131.04725 164.46029,131.48565 C 165.86531,134.69087 167.4634,138.84995 174.21646,142.74887 C 180.07293,146.13007 185.80967,147.51389 188.09719,146.3182 L 188.09719,157.26414 C 186.52049,154.89424 183.30488,152.05753 179.1342,149.64957 C 172.38112,145.75068 168.10602,146.35569 164.46029,146.79411 C 165.86531,149.99939 167.4634,154.15836 174.21646,158.05733 C 180.07481,161.43965 185.81114,162.82443 188.09719,161.62666 L 188.09719,169.32055 C 186.61786,170.84902 185.49552,172.44681 184.60718,174.07966 C 182.81392,176.86702 181.69643,179.76327 181.51376,182.96332 C 178.79198,183.55185 176.18414,184.30234 173.66123,185.34288 C 171.77792,180.09966 168.94494,173.96935 165.25348,167.57554 C 156.1416,151.79325 148.43916,147.08034 141.93385,142.90751 C 142.33656,150.28333 142.57807,159.56644 151.69002,175.34875 C 155.38834,181.75441 159.27157,187.33167 162.87392,191.60903 C 160.71344,193.28218 158.68139,195.14179 156.84572,197.16132 C 153.98876,195.73138 150.94785,195.25738 147.64478,195.41632 C 145.81972,195.3701 143.87671,195.55528 141.85453,196.05087 L 135.19178,192.24358 C 137.3344,190.78151 138.91975,185.12878 138.91975,178.44217 C 138.91978,170.64434 136.15465,167.14288 134.08133,164.32349 C 131.87879,167.26154 129.2429,170.64434 129.2429,178.44217 C 129.24303,183.17107 130.00022,187.37888 131.22586,189.94335 L 121.9456,184.54969 C 124.08771,183.08655 125.67357,177.51317 125.67357,170.8276 C 125.67359,163.0298 122.90846,159.44897 120.83514,156.6296 C 118.6326,159.56765 115.99672,163.02977 115.99672,170.8276 C 115.99679,175.5565 116.75401,179.68497 117.97968,182.24946 L 113.69648,179.79058 C 111.86081,175.67773 106.01724,170.21394 98.150074,165.6719 C 87.273974,159.39252 80.384694,160.36543 74.513174,161.07143 C 76.776024,166.23358 79.421344,172.956 90.297544,179.23535 C 98.180254,183.78641 105.88937,186.05951 110.36511,185.58083 L 114.72762,188.11902 C 111.88691,188.29954 107.87306,189.67701 103.70236,192.08494 C 96.949304,195.98383 95.310094,199.97166 93.866874,203.34816 C 97.345164,203.73402 101.70838,204.47088 108.46147,200.57202 C 114.31796,197.19079 118.42663,192.91884 118.53491,190.33994 L 127.9738,195.81291 C 125.13309,195.99343 121.11922,197.3709 116.94854,199.77883 C 110.19553,203.67775 108.55622,207.66555 107.11305,211.04205 C 110.59136,211.42791 115.03383,212.08543 121.78697,208.18659 C 127.64534,204.80425 131.67537,200.53318 131.78109,197.95451 L 138.44384,201.84111 C 139.02783,203.88649 139.85347,205.64903 140.82339,207.23477 C 142.33846,210.17711 144.25729,212.61157 146.93091,214.37343 C 146.11303,216.932 145.55334,219.57662 145.18591,222.30527 C 139.68504,221.3165 132.92914,220.71893 125.51493,220.7189 C 107.29111,220.7189 99.384904,225.02416 92.518464,228.57143 C 99.107454,231.91062 107.29106,236.34464 125.51493,236.34464 C 132.92916,236.34464 139.68504,235.80426 145.18591,234.83759 C 145.55334,237.56624 146.11303,240.21086 146.93091,242.76943 C 144.25729,244.53129 142.33844,246.9658 140.82339,249.90809 C 139.87089,251.4656 139.10506,253.22338 138.52316,255.22243 L 131.86041,259.10903 C 131.66555,256.52246 127.57775,252.29958 121.78697,248.95627 C 115.03391,245.05738 110.59136,245.71495 107.11305,246.10081 C 108.55622,249.47726 110.19543,253.46511 116.94854,257.36403 C 121.04401,259.72845 125.06077,261.18847 127.89449,261.40927 L 118.61423,266.7236 C 118.41818,264.13688 114.33068,259.99293 108.54078,256.65016 C 101.78773,252.75125 97.345184,253.32952 93.866874,253.71538 C 95.310044,257.09181 96.949224,261.159 103.70236,265.05792 C 107.79778,267.42234 111.81457,268.80307 114.64831,269.02384 L 110.36511,271.48271 C 105.88546,271.01604 98.243984,273.36536 90.376864,277.90751 C 79.500744,284.18684 76.837524,290.63353 74.513174,296.07143 C 80.115164,296.69288 87.273904,297.75034 98.150074,291.47096 C 106.03277,286.91993 111.87315,281.3884 113.69648,277.27296 L 118.059,274.73477 C 116.79501,277.28517 115.99674,281.49937 115.99672,286.31526 C 115.99677,294.11306 118.63263,297.49584 120.83514,300.43394 C 122.90844,297.61457 125.67354,294.19233 125.67357,286.39458 C 125.67362,279.6321 124.04552,273.97638 121.86628,272.59317 L 131.30518,267.1202 C 130.04119,269.67062 129.2429,273.88483 129.2429,278.70069 C 129.243,286.49847 131.87876,289.88132 134.08133,292.81937 C 136.15465,290.00003 138.99899,286.49849 138.99907,278.70069 C 138.99912,271.93611 137.2928,266.28016 135.11246,264.89928 L 141.77521,261.09199 C 143.83856,261.6089 145.78652,261.77365 147.64478,261.72654 C 150.97204,261.88668 154.05033,261.4363 156.92504,259.98154 C 158.74033,261.96914 160.74296,263.80423 162.87392,265.45451 C 159.27307,269.72374 155.3889,275.30812 151.69002,281.71479 C 142.57815,297.49708 142.29496,306.51522 141.93385,314.23535 C 148.12016,310.19874 156.14152,305.34963 165.25348,289.56732 C 168.9369,283.18742 171.77767,277.03584 173.66123,271.79998 C 176.18399,272.84029 178.79218,273.59113 181.51376,274.17954 C 181.69646,277.37959 182.81397,280.27589 184.60718,283.0632 C 185.47976,284.66688 186.65689,286.23952 188.09719,287.74299 L 188.09719,295.43688 C 185.75974,294.31234 180.08656,295.74223 174.29578,299.08553 C 167.54272,302.98447 165.86528,307.14352 164.46029,310.34875 C 168.10602,310.7872 172.38109,311.3922 179.1342,307.49329 C 183.22955,305.12884 186.48912,302.38102 188.09719,300.03735 L 188.09719,310.74534 C 185.75903,309.62181 180.08564,311.05117 174.29578,314.39399 C 167.54272,318.29291 165.86528,322.45196 164.46029,325.65721 C 168.106,326.09558 172.38109,326.70069 179.1342,322.80175 C 183.2296,320.43732 186.48912,317.68953 188.09719,315.34581 L 188.09719,320.26356 C 185.45323,323.90977 183.6553,331.72283 183.65536,340.80704 C 183.65536,353.36577 187.88139,358.83953 191.42856,363.57143 C 194.76773,359.03076 199.28112,353.36577 199.28109,340.80704 C 199.28112,331.70498 197.41235,323.90033 194.75994,320.26356 L 194.75994,315.18718 C 196.33669,317.55706 199.55224,320.39379 203.72292,322.80175 C 210.47606,326.70066 214.75111,326.09558 218.39684,325.65721 C 216.99187,322.45196 215.39373,318.29291 208.64067,314.39399 C 202.78425,311.01277 197.04746,309.629 194.75994,310.82466 L 194.75994,299.87872 C 196.33669,302.24865 199.55224,305.08536 203.72292,307.49329 C 210.47606,311.39223 214.75111,310.7872 218.39684,310.34875 C 216.99187,307.14355 215.39373,302.9845 208.64067,299.08553 C 202.78237,295.70324 197.04599,294.3184 194.75994,295.5162 L 194.75994,287.82231 C 196.23932,286.29381 197.36163,284.69607 198.24995,283.0632 C 200.02892,280.29813 201.14714,277.42855 201.34337,274.25886 C 204.04718,273.67556 206.60867,272.82942 209.11658,271.79998 C 211.02037,277.04292 213.9114,283.17214 217.60365,289.56732 C 226.7156,305.34961 234.41815,310.06254 240.92328,314.23535 C 240.52062,306.85958 240.27906,297.49711 231.16711,281.71479 C 227.4633,275.29959 223.51172,269.72001 219.90389,265.45451 C 222.04104,263.80093 224.03286,261.97419 225.85277,259.98154 C 228.73925,261.45287 231.86917,261.88744 235.21235,261.72654 C 237.03743,261.77271 238.98042,261.50828 241.00259,261.01268 L 247.66534,264.89928 C 245.52276,266.36128 243.93738,271.93476 243.93738,278.62137 C 243.9374,286.41915 246.70248,290 248.7758,292.81937 C 250.97837,289.88134 253.61423,286.49852 253.61423,278.70069 C 253.61428,273.97176 252.85691,269.764 251.63127,267.19951 L 260.91152,272.51385 C 258.76944,273.97699 257.18351,279.62969 257.18356,286.31526 C 257.18356,294.11301 259.94866,297.61457 262.02198,300.43394 C 264.22455,297.49589 266.86043,294.11309 266.86041,286.31526 C 266.86038,281.58631 266.10311,277.3786 264.87745,274.81409 L 269.16064,277.27296 C 270.99636,281.38582 276.83989,286.84958 284.70706,291.39164 C 295.58321,297.67105 302.47244,296.7774 308.34396,296.07143 C 306.08116,290.90931 303.43578,284.18684 292.55959,277.90751 C 284.67691,273.3564 276.96776,271.00406 272.49202,271.48271 L 268.1295,268.94452 C 270.97025,268.76395 274.98409,267.46585 279.15477,265.05792 C 285.90785,261.15898 287.54704,257.09186 288.99026,253.71538 C 285.51202,253.3295 281.06943,252.67198 274.31634,256.57084 C 268.4599,259.95199 264.4305,264.22404 264.32222,266.80292 L 254.804,261.32995 C 257.64477,261.14941 261.73791,259.77198 265.90859,257.36403 C 272.6618,253.46511 274.30091,249.47734 275.74407,246.10081 C 272.26579,245.71493 267.8233,244.97811 261.07016,248.87695 C 255.21182,252.25924 251.18175,256.53036 251.07604,259.10903 L 244.41329,255.30175 C 243.82935,253.25632 243.00368,251.49383 242.03373,249.90809 C 240.52486,246.97773 238.58296,244.52957 235.92621,242.76943 C 236.74021,240.21827 237.30493,237.55772 237.67122,234.83759 C 243.17501,235.80497 249.94119,236.34461 257.34219,236.34464 C 275.56607,236.34461 283.47226,232.1187 290.33867,228.57143 C 283.74973,225.23226 275.56607,220.71893 257.34219,220.7189 C 249.94119,220.7189 243.17501,221.31578 237.67122,222.30527 C 237.30493,219.58514 236.74021,216.92459 235.92621,214.37343 C 238.58296,212.61327 240.52488,210.16503 242.03373,207.23477 C 242.98627,205.67728 243.75209,203.84017 244.33397,201.84111 L 250.99672,198.03383 C 251.1916,200.62034 255.27938,204.76397 261.07016,208.10727 C 267.82327,212.00611 272.26576,211.42793 275.74407,211.04205 C 274.30094,207.66555 272.6617,203.67775 265.90859,199.77883 C 261.81332,197.41443 257.79635,195.95441 254.96264,195.73359 L 264.2429,190.33994 C 264.439,192.92663 268.52643,197.14995 274.31634,200.4927 C 281.06943,204.39161 285.51195,203.73402 288.99026,203.34816 C 287.54714,199.97171 285.9079,195.98383 279.15477,192.08494 C 275.05937,189.72047 271.04261,188.2605 268.20882,188.0397 L 272.49202,185.58083 C 276.97172,186.04745 284.61315,183.69818 292.48027,179.15604 C 303.35644,172.87673 306.01958,166.5093 308.34396,161.07143 C 302.74202,160.45 295.58323,159.39249 284.70706,165.6719 C 276.82438,170.22293 270.98398,175.67516 269.16064,179.79058 L 264.79813,182.32877 C 266.06215,179.77835 266.86041,175.64349 266.86041,170.8276 C 266.86038,163.02982 264.2245,159.56768 262.02198,156.6296 C 259.94874,159.44897 257.10426,162.9505 257.10424,170.74828 C 257.10424,177.51071 258.8116,183.16648 260.99084,184.54969 L 251.47263,190.02266 C 252.73667,187.47219 253.61423,183.25806 253.61423,178.44217 C 253.61433,170.64434 250.97837,167.26157 248.7758,164.32349 C 246.70251,167.14288 243.85813,170.56505 243.85806,178.36285 C 243.85803,185.12741 245.56431,190.78336 247.74466,192.16426 L 241.08191,196.05087 C 239.01862,195.53389 237.07061,195.36918 235.21235,195.41632 C 231.89415,195.25656 228.80014,195.71588 225.93209,197.16132 C 224.0918,195.13671 222.07056,193.28546 219.90389,191.60903 C 223.51025,187.32297 227.45861,181.77212 231.16711,175.34875 C 240.27903,159.56644 240.56217,150.62759 240.92328,142.90751 C 234.737,146.94414 226.71558,151.7932 217.60365,167.57554 C 213.9114,173.97074 211.02037,180.09994 209.11658,185.34288 C 206.60864,184.31321 204.04725,183.46748 201.34337,182.884 C 201.14712,179.71434 200.02882,176.84471 198.24995,174.07966 C 197.37742,172.476 196.20021,170.90331 194.75994,169.39987 L 194.75994,161.70598 C 197.09743,162.83052 202.77057,161.40063 208.56135,158.05733 C 215.31446,154.15839 216.99185,149.99936 218.39684,146.79411 C 214.75116,146.35571 210.47603,145.75066 203.72292,149.64957 C 199.6276,152.01408 196.36801,154.76182 194.75994,157.10551 L 194.75994,146.39752 C 197.09812,147.52107 202.77146,146.09167 208.56135,142.74887 C 215.31446,138.84995 216.99185,134.69087 218.39684,131.48565 C 214.75116,131.04725 210.47603,130.4422 203.72292,134.34111 C 199.6276,136.70559 196.36801,139.45336 194.75994,141.79705 L 194.75994,136.8793 C 197.40395,133.23309 199.20182,125.42001 199.20177,116.33582 C 199.2018,103.77709 194.97574,98.303329 191.42856,93.571429 z"
       id="path4303"
       inkscape:export-xdpi="83.970001"
       inkscape:export-ydpi="83.970001" />
  </g>
</svg>
