<svg height="585" width="645" xmlns="http://www.w3.org/2000/svg"><path d="m297.29747 550.86823c-13.77504-15.43632-48.17067-45.52968-76.4347-66.87411-83.7441-63.24184-95.14169-72.39422-129.143532-103.70324-62.684528-57.72017-89.305616-115.71002-89.2143902-194.33964.0445116-38.38385 2.6607674-53.17195 13.4098862-75.79726 18.236699-38.385713 45.100262-66.909313 79.445318-84.354523 24.325398-12.355782 36.322648-17.8452524 76.944428-18.0698334 42.49329-.234834 51.43863 4.7197234 76.43471 18.4518354 30.42451 16.714318 61.7399 52.435708 68.21323 77.810591l3.9981 15.6724 9.85963-21.584508c55.71617-121.972928 233.59836-120.148052 295.50229 3.031588 19.63767 39.07605 21.79364 122.51317 4.38012 169.51287-22.71527 61.30937-65.38001 108.05053-164.00634 179.67658-64.68082 46.97364-137.88474 118.04586-142.98067 128.02803-5.91548 11.58753-.28216 1.8159-26.40808-27.46078z" fill="#f00"/></svg>