<!DOCTYPE svg PUBLIC "-//W3C//DTD SVG 1.1//EN" "http://www.w3.org/Graphics/SVG/1.1/DTD/svg11.dtd">
<svg version="1.1" id="Logo" xmlns="http://www.w3.org/2000/svg" xmlns:xlink="http://www.w3.org/1999/xlink" x="0px" y="0px"
	 width="334.08px" height="331.292px" viewBox="0 0 334.08 331.292" enable-background="new 0 0 334.08 331.292"
	 xml:space="preserve">
<polygon fill="#E6E7E8" stroke="#5D6D65" stroke-width="4.9999" points="86.32,305.645 5.407,165.646
	86.32,25.648 248.141,25.648 329.053,165.646 248.141,305.645"/>
<polygon opacity="0.75" fill="#FAEF5F" points="103.985,274.145 40.721,164.646 103.985,55.147
		230.478,55.147 293.739,164.646 230.478,274.145"/>
<path fill="#5D6D65" d="M226.275,62.147l59.044,101.999l-59.044,101.999H108.188L49.143,164.146l59.044-101.999h118.029
			M234.68,48.147h-8.405H108.188h-8.406l-4.21,7.205L36.528,157.344l-4.227,7.283l4.227,7.292l59.043,101.988l4.21,7.236h8.406
		h118.087h8.405l4.211-7.242l59.043-102.009l4.227-7.292l-4.227-7.297L238.891,55.35L234.68,48.147L234.68,48.147z"/>
</svg>
