<svg enable-background="new 0 0 2590.051 781.78" viewBox="0 0 2590.051 781.78" xmlns="http://www.w3.org/2000/svg"><path d="m1021.912 32.195c.487-1.291 1.057-2.55 1.698-3.775.547.837 1.095 1.684 1.656 2.522-.346-.047-1.043-.136-1.389-.182 2.29 4.465 1.547-.526 1.68 17.123-.254 2.799 2.209 1.976 1.062 7.499.206 2.269.398 4.543.318 6.826.739.337 1.455.683 2.218 1.039-.884.271-1.787.491-2.667.711.206 3.018-.618 6.25.744 9.085-.108.842-.098 1.694.028 2.54-.22.426-.421.856-.613 1.287 1.491 12.25-3.438 44.885 14.049 55.018 1.053 1.338 2.325 2.582 4.107 2.816-.182.519-.351 1.048-.5 1.572.053 19.342-.823 15.759 2.283 18.292 2.756 1.862 5.156 4.182 7.939 6.002.662 5.89.154 16.907.005 17.927 3.602 2.807 7.018 5.867 10.784 8.458.04 15.911.103 15.987-.388 17.82.711.674 1.417 1.352 2.119 2.049.229.042.688.122.912.159 3.083 2.966 6.218 5.885 9.478 8.65.023.402.07.805.131 1.216.566.463 1.165.917 1.666 1.478-.566 4.709-.333 114.305-.267 116.772 2.165 2.348 1.307 9.021.847 12.187-.36 2.423.776 4.805.229 7.214-.255 1.504-.879 17.853-.477 18.363-.079.884-.173 1.759-.234 2.648 1.651-1.534 4.028-1.062 6.058-1.595.164 3.454 1.068 22.875-.304 28.487.983 3.643-.851 145.805.416 151.659 5.245.332 10.503-.08 15.747.145 1.506-1.45 1.095-4.019 1.731-5.937.734-2.503-.182-4.95-.767-7.359.14-.51 1.357-.88.823-1.492-1.6-2.578-3.649-5.23-3.12-8.468 1.432.641 2.765 1.483 3.995 2.475.501.019 1.02.047 1.548.08.243-.861.487-1.717.716-2.573 2.278-2.278 4.884-4.262 6.919-6.77.5-1.787 1.001-3.584 1.539-5.361.159-6.582-.079-13.179.173-19.766.421.351.847.711 1.286 1.081.028-1.085.168-2.194.884-3.06.225 1.623.36 3.265.744 4.87-1.278 3.493.223 12.868-.449 18.466.173 3.777-1.985 2.605 7.326 10.564.357 2.967.369 2.073 2.096 2.606 1.24-1.071 2.634-1.946 4.122-2.639.376 5.853-1.948 5.693-4.332 10.713.908.323 1.801.332 2.452-.519.201-.051.604-.159.809-.215.196-.22.585-.655.781-.87.313-.009.936-.028 1.249-.037-1.585 7.427-1.575 4.236-3.499 7.827-1.385 1.946.154 4.248.617 6.26 1.589.938 15.223.289 16.693.112.379-11.832.042-23.677.182-35.513.552-.341 1.127-.678 1.708-1.01-.26-4.094-.58-74.856.243-77.68.365-.033 1.085-.094 1.446-.122-.056-3.04-.437-94.893.421-99.106-.65-.197-1.301-.388-1.923-.575-.005-4.894-.019-9.792.005-14.685.533-.271 1.137-.491 1.67-.823.733-7.656-1.567-13.368.646-15.906 3.135 1.099 6.508.388 9.755.749-.359-1.728-1.076-8.158.487-9.38 6.349.888 16.916-.213 29.497.982-.471-11.413-.054-43.105-.061-49.305-.837-2.508-2.372-4.772-4.084-6.774-.117-3.345-.3-6.985 1.586-9.927.215.58.44 1.165.683 1.754 3.902.005 7.804-.009 11.715.009.005-.351.014-1.053.019-1.404.561-.393 1.142-.781 1.736-1.16.098.94.178 1.895.388 2.83 1.132.164 2.288.126 3.448.145.089-4.117.037-8.239.042-12.356-.655-.561-1.291-1.132-1.923-1.694-.037-1.609.037-3.265.936-4.664.407.07 1.216.206 1.619.276-.009-.271-.033-.814-.042-1.085.566-.159 1.165-.309 1.764-.463-.014.585-.009 1.174.014 1.768 2.344.014 4.697.028 7.055-.023-1.23-1.296-1.684-2.989-1.539-4.744 1.16.108 2.344.239 3.518.435-.012-3.884 23.212-41.622 24.926-43.584.726 1 23.122 37.196 24.426 40.529 1.053-.356 2.466-1.68 3.443-.547.365 1.361.089 2.929-.739 4.075-.075 1.277-.182 2.55-.243 3.827 2.381.08 4.772.051 7.167.047.365-.346.795-.678 1.216-.997.543 1.16 1.834.992 2.905 1.142-.421 1.797-.758 3.724-2.152 5.057-.529 3.841-.215 7.729-.299 11.593.37.187.758.374 1.165.571-.033.276-.094.833-.122 1.109 14.132-1.038 14.122.65 17.927-.926.388.342.753.669 1.198.996.234 3.92-1.511 7.715-4.342 10.372-.239.805-.468 1.605-.683 2.414 1.034 5.258-1.034 10.606.374 15.832.169.117.496.351.66.468 4.182-.842 8.486-.117 12.725-.435.033-1.371.07-2.737.239-4.098.617.876.297.287.795 9.113-.51-.421-.996-.847-1.469-1.273.047.763.117 1.535.201 2.311.622-.009 1.244-.019 1.89-.014-.192-1.628-.636-3.425.627-4.744.154 1.464.248 2.943.454 4.412-.159.931-.304 1.862-.412 2.802-.543-.201-1.062-.398-1.567-.594-.313.585-.608 1.179-.884 1.773 22.979.178 5.057-.588 24.412.529.487-.501.912-1.071 1.38-1.609.313-21.249-2.479-18.975 1.132-25.478 2.246.182 4.5.608 6.77.365-.37-2.77-.36-5.586-.052-8.36.566.253 1.151.505 1.75.758-.037 1.343-.023 2.77-.917 3.869.21.089.632.276.842.37-.014 1.179-.028 2.358-.023 3.537 1.871-.028 3.752 0 5.637.037.543-1.287.388-2.615-.346-3.785.557-1.446 1.043-2.915 1.474-4.402.983-.309 2.213-1.792 2.985-.309 5.198.285 10.414.042 15.602.604.131-.585.285-1.165.463-1.745 1.81.29 3.658.309 5.483.019.168.552.351 1.109.547 1.67 2.545-.159 5.146.187 7.658-.416.276-.982.571-1.965.983-2.905.585.201.805.861 1.23 1.301-.515.473-1.011.95-1.483 1.432.795.182 1.623.346 2.461.463-.065-.271-.196-.809-.267-1.076.58-1.221.94-2.559.29-3.832.285-.594.51-1.193.847-1.773 1.521 1.806.009 4.145.515 6.218 1.89 1.146 4.281.103 6.381.173.781.465.468 1.345.702 6.11.351-1.001.716-2.002 1.099-2.999.445.239.908.482 1.39.735-.515 1.179-.931 2.395-1.352 3.607-.444-.178-.87-.356-1.282-.529.005.356.005 1.062.005 1.413 2.975-.047 5.979.215 8.936-.267.239.089.711.267.95.356-.305 22.708.392 21.495-.566 26.531 1.212.161 67.149.021 68.356.014 4.69-.067 5.363 3.704 9.38-.332 1.221.234 2.423.589 3.672.772.103-.122.309-.365.412-.487.003-.878-.304-106.27-.697-107.055 1.638-3.732-.108-17.735.571-26.564.033-.777-.664-1.301-1.039-1.876.487-2.333.469-11.221-.145-13.937-.557-.243-1.099-.491-1.619-.739.051-.646.126-1.287.215-1.927.594.061 1.202.122 1.834.182-.047-1.039-.075-2.082-.089-3.12-.725-.954-1.446-1.909-2.203-2.821-.019-.678-.028-1.352-.005-2.021.678.182 1.343.365 2.058.543-.234-.253-.706-.753-.94-1.001.089-.379.197-.753.328-1.127-2.096.084-4.178.552-6.264.299.164-.692.384-1.38.589-2.068-.206-.589-.398-1.179-.561-1.764-.482-.225-.94-.444-1.385-.664.262-2.143.571-4.276.669-6.433.43-.571 1.16-1.053 1.193-1.853 1.91-19.154 3.279-14.084.005-17.249.547-.37 1.361-.51 1.782-1.095-.009-.889-.159-1.768-.164-2.653.435-.561 1.202-.491 1.862-.664.692.758 1.436 1.483 2.208 2.185-.196.407-.37.814-.529 1.226.351.005 1.048.023 1.394.028-.084-.543-.136-1.076-.197-1.614.604-.066 1.221-.126 1.857-.182-.342.477-.674.954-.992 1.432.678.529 1.207 1.193 1.651 1.951-.969.009-1.913-.009-2.849-.023.678 3.158 2.274 5.998 3.883 8.767.309.014.922.042 1.226.056.482.276.987.547 1.506.819-.487.533-.954 1.062-1.413 1.591-.014 1.796.477 3.682 2.124 4.669-.379 1.109-.73 2.292-.131 3.396.813-1 28.089-35.674 33.488-39.869-.014.632-.014 1.268.005 1.904-.861.515-1.693 1.053-2.503 1.605.388.281.791.561 1.216.837-.332.515-.65 1.029-.945 1.549-.603.014-1.188.028-1.754.042-.168.239-.51.711-.678.95.314-.037.945-.108 1.263-.145.599.327 1.216.65 1.857.968-.459.412-.922.819-1.357 1.221-.07-.267-.211-.8-.285-1.067-.632-.173-1.221-.356-1.806-.547.182.791.341 1.586.543 2.386.243-.164.73-.491.978-.655-.173.716-.309 1.436-.458 2.152-.908.618-1.815 1.221-2.732 1.787.435-.781.931-1.544 1.455-2.288.079-.229.239-.683.318-.912-1.17.777-2.522 1.062-3.874 1.24.426.29 1.273.865 1.698 1.151-.856.037-1.67-.042-2.48-.168.052.117.154.351.211.468-.856.608-1.427 1.483-1.965 2.349-.519.332-1.02.655-1.455 1.043.137 1.828 2.232 1.289-2.559 2.676.356.501.8 1.015 1.184 1.53-1.193 1.085-2.283 2.274-3.242 3.565-.683.019-1.348.033-1.988.051-.15.192-.449.571-.604.758.365.112 1.095.337 1.455.449-.557 1.216-1.441 2.222-2.409 3.116-.22-.239-.66-.72-.875-.959-1.623 1.577-2.919 3.448-3.93 5.46.898-.585 1.656-1.361 2.274-2.25.393-.173.8-.342 1.23-.51.641 1.399-.604 2.423-1.244 3.523-.444.267-.875.533-1.286.805.384.271.791.547 1.212.823-2.447 2.938-5.698 5.24-7.565 8.622.426.636.861 1.273 1.305 1.918-.865.323-1.74.632-2.583.931.384 1.773.706 3.56.819 5.38.533-.388 1.085-.767 1.661-1.132.033.805.098 1.619.164 2.428-.65.412-1.296.823-1.927 1.221-.388 1.581-.346 3.214.052 4.795.571.187 1.202.356 1.796.604-.108.496-.21.987-.318 1.478-.36-.014-1.09-.051-1.45-.07-.581 3.767.586 12.409-.917 16.823-.051 1.796-.144 23.048.052 25.146 4.176.743 6.56.104 4.491-6.204 2.045-3.158 2.569-1.453 6.564-1.899.066-2.087.267-4.22-.36-6.246-2.147.005-4.29.056-6.423-.037.332-1.095.894-2.11 1.843-2.798 1.614.524 3.336.646 5.034.43.089-1.815-.098-3.635-.075-5.45-.356-.342-.697-.683-1.015-1.02-1.914.412-4.014.861-5.792-.201.43-.749.898-1.492 1.361-2.236 1.651-.005 3.336.061 4.94.575.8-1.979.693-4.262.304-6.316-1.764-1.46-4.295-.173-6.367-.524.019-.374.056-1.118.075-1.492 1.127-.547 2.311-1.287 3.635-.917.917-.009 2.11.641 2.807-.262.178-1.535.042-3.083.014-4.618-2.218-.547-4.51-.393-6.751-.267.468-1.544 1.039-3.097 2.068-4.365.557.393 1.076.851 1.623 1.301 1.029.211 2.073.435 3.125.655.356-2.601-.978-5.268.07-7.761.075-.716.262-1.404.575-2.054.692 1.315 1.23 2.704 1.74 4.112.702-1.806 1.39-3.644 1.441-5.605.636-.351 1.286-.688 1.96-1.025-.003.419-1.191 139.768-.819 140.243.449 7.078-.112 14.18.122 21.263.225.865 1.296 1.179 1.937 1.74-.028 1.418-.126 2.83-.267 4.243-.206 1.595.253 3.167.243 4.763-.019 13.702-1.072 16.081.313 19.818-.723 4.723-.308 54.191-.07 55.396-.43 3.027-.393 6.143.641 9.053.744.005 1.516.014 2.297.023.056-11.974-.136-258.798-.725-263.106.215-.795.421-1.595.739-2.367 2.877.94 5.942.599 8.931.674.168-.72.351-1.441.543-2.161-.243-.023-.735-.07-.983-.094.005-.239.005-.725.009-.968.374-.005 1.127-.019 1.506-.023-1.273-4.067-.027-7.87-.089-19.747 1.86.423 2.002.436 4.061.646-.309.636-.599 1.273-.865 1.913.51-.299 1.436-.327 1.436-1.146.706-2.905 1.053-5.904.982-8.894.002-1.258.134-35.343.889-36.538 20.376.602 16.766 2.22 24.342-7.588-.126-.178-.384-.538-.51-.716 1.081-.43 2.185-.861 3.172-1.52.725.22 1.446.458 2.176.744-.164.294-5.594 6.866-6.124 7.336-1.357.421-2.779.758-3.654 1.965 2.868-.056 5.726.575 8.604.14 1.123.175 29.488.164 30.971.173-.741 26.962 2.208 60.129.978 66.311.444.196.908.398 1.394.599.346-.094.711-.182 1.104-.271 3.991.594 8-.257 11.991-.014-.129 35.656.413 323.53.505 337.97 11.601.581 8.477-1.54 8.402 5.216 3.516 5.542 2.784-4.44 2.765 38.241.342.342.702.692 1.076 1.048.028 0 17.566-.014 17.637 0-.014 1.221-.009 2.442 0 3.668.295.356.613.716.945 1.085.013 1.411-.325 26.886.051 33.305.566-.206 1.16-.407 1.759-.613.43-2.905.497-181.237.51-181.273.557-.374 1.127-.758 1.708-1.146.271-.037.809-.108 1.076-.145 1.227-19.458-2.377-13.485 2.868-17.909-.019-1.427-.103-2.849-.426-4.234 1.174-.833 2.391-1.609 3.673-2.292-.201-5.179.402-10.419-.346-15.56 1.132-.599 2.236-1.282 3.149-2.213-.374-1.876-1.436-4.851.954-5.736.463.14.945.281 1.441.43.883-3.549.178-12.989.374-16.613 3.841-2.542 2.823-1.553 2.451-6.11 1.011-.819 2.105-1.539 3.345-2.002.484-2.319.449-11.238-.164-15.621 1.254-.997 2.447-2.068 3.705-3.069-.772-4.197-.304-8.501-.445-12.744 1.011-.861 2.068-1.67 3.205-2.386.246-4.659-.299-12.709-.234-13.113 1.057-.58 1.946-1.413 2.732-2.334 2.11-1.16 3.654-3.041 5.141-4.894.543-.066 1.127-.126 1.717-.187.613.267 1.245.533 1.9.8 1.053-.248 2.119-.458 3.214-.636 1 .314 3.2.911 4.669.847 2.508.739 5.02-.295 7.56-.239.281-.463.594-.922.926-1.38 2.248 2.027-.279 1.272 6.592 1.128.159 4.678-.739 9.319-.449 14.007 1.034-.538 2.115-1.277 3.345-.786-.07 6.465-.066 12.936-.014 19.401.196-.019.589-.056.786-.075-.178-.463-.332-.922-.473-1.375.954-.22 1.918-.412 2.915-.585-.061 5.404.215 10.812 0 16.21 1.104-.229 2.213-.477 3.336-.73.192 3.635-.346 7.294.229 10.91.828-.239 1.67-.473 2.536-.688-.037-.557-.047-1.104-.037-1.651-.444-.276-.87-.547-1.272-.809-.969-3.118-.76-2.727 1.951-5.502 1.254.978 2.433 2.073 3.312 3.425-.786 1.146-1.764 2.157-2.479 3.34-.435 1.628-.037 3.326 1.245 4.463-.052 2.325.384 4.884 2.395 6.358-.009.225-.028.669-.037.889-1.062.678-.908 1.792-.374 2.746 0 .001 1.937 28.154 1.937 28.154.852.103 2.059-.416 2.615.524.29 3.06.122 6.161-.36 9.198.917.009 1.843.019 2.798.033-.009 5.45.014 10.905-.019 16.36.716-.243 1.455-.477 2.208-.716.295.089.889.257 1.184.341-.095 31.287-1.246 43.037 7.064 49.315.912.332 1.82.744 2.704 1.212-.706.88-1.385 1.764-2.068 2.648-.618.047-1.212.103-1.787.164.075 1.085-.126 2.339.823 3.144-1.623 3.523-.515 7.593.328 11.191 2.203 1.127 4.767 1.422 6.83 2.854-.435 1.38-.473 2.826-.201 4.248 4.094-.159 8.225.323 12.295-.328 2.938.585 5.951.243 8.936.299-.014-.571 0-1.137.033-1.694 1-.4 1.425-.605 2.587-.978-.108-.557-.187-1.109-.239-1.651 2.203-1.506 4.141-3.382 6.461-4.739 6.751 4.244 6.921 4.404 7.364 6.04.688.37 1.39.758 2.091 1.165-.055 1-1.146 13.998-.037 18.718.328.009.978.019 1.305.028.201.243.604.734.805.978 1.609-.159 3.261-.421 4.608-1.408.398.547.814 1.095 1.263 1.642.086 12.155-.117 30.638.192 34.278 10.5-2.335 4.204-4.833 23.481-5.535 2.458-4.22-.445-2.249 9.455-2.456 1.738-7.804 1.513-4.199 7.949-7.336.042-.772.056-1.549.164-2.302.875.192 1.988.178 2.423 1.184 8.537-4.079 37.113-.624 38.115-.416.211.66.444 1.319.702 1.993 6.975-3.415 7.194-1.356 12.674-2.274.711.388 1.436.8 2.166 1.23-.421.622-.814 1.258-1.17 1.909 1.127-.178 2.292-.295 3.448-.435.131.898.295 1.811.486 2.718.449-.468.917-.936 1.39-1.408.374.44.72.88 1.165 1.324.252-1.015.346-2.058.5-3.092-.304-.43-.58-.861-.828-1.287 1.441-.206 2.901-.44 4.36-.664 1.687 1.587 2.183 1.575 2.489 5.661 2.854-.047 5.712.168 8.575.019.388-.809.819-1.605 1.254-2.395.454.126.926.267 1.422.407.005.407.023 1.226.028 1.633.318-.758.641-1.516.983-2.274.739-.206 1.506-.416 2.283-.622.164.842.36 1.689.58 2.531.005-.374.019-1.132.023-1.511.257-.005.781-.014 1.039-.019.44-.281.898-.547 1.385-.805-.047.884-.061 1.778-.075 2.676.253.131.753.393 1.006.524.065 1.684.14 3.382.435 5.057.978.037 16.173.383 17.338.388.304-.749.618-1.492.978-2.227-.164-.103-.487-.309-.646-.412-.094-1.544-.173-3.088-.197-4.627 1.492.094 1.123 1.422 1.029 2.48.608-.706 1.352-1.474 2.405-1.109.808 1.494.094 3.359.772 5.895 0 0 3.176.423 31.757.491.028 7.242-.117 14.489.094 21.736.533-.454 1.095-.903 1.67-1.343-.084-.192-.243-.575-.323-.772.304.023.917.065 1.226.084.351 1.577.646 3.172.968 4.767-.075-1.525-.15-3.05-.131-4.566.571-.089 1.165-.173 1.782-.248-.096 7.109-.014 7.776.814 8.777 2.091-.014 4.215.239 6.297-.229-.463-.145-1.394-.444-1.857-.594.009-.772.061-1.534.126-2.292.884-.131 1.778-.257 2.709-.37.136 1.179.281 2.363.426 3.551 9.073.206 30.044-.709 32.052 1.759 4.332-.047 8.673-.407 13.01-.079.407.603.852 1.212 1.31 1.825-.192 2.035-.538 4.384 1.296 5.82.084 1.263.187 2.526.318 3.799 2.391-.037 4.8-.08 7.191.248.047 6.157.281 12.309.271 18.47 2.676-.458 5.305-1.207 8.009-1.549 0-.589.023-1.17.075-1.74.983.084 2.068.084 2.971.65.636.033 1.296.07 1.979.117.473-.318.945-.632 1.469-.936-.028-.604-.028-1.202.004-1.792-.996.009-1.979.023-2.928.037.225-.777.487-1.539.777-2.297 2.966-2.531 1.633-6.784 2.657-10.101 2.508.065 5.16-.36 7.546.674.496 1.006.168 2.204.229 3.298-.604.019-1.183.051-1.74.084v1.338c.748.239 1.52.491 2.315.734v1.184c-.804-.065-1.581-.126-2.33-.187-.004 2.049.005 4.103.047 6.157.225-.098.669-.299.894-.398.061-.407.178-1.226.238-1.633.538.435 1.034.866 1.605 1.333 1.829.052 3.448-.805 4.922-1.825-.552-.299-1.114-.604-1.609-.894.023-.304.07-.917.098-1.221.903.229 1.81.468 2.751.711.009-1.001.061-1.993.135-2.98.58-.697.763-1.581.978-2.437-.379-.019-1.127-.052-1.502-.066-.075-.894-.136-1.782-.164-2.667 2.274-.968 4.833-1.488 7.308-1.137 1.375 1.095.865 3.106 1.165 4.641 1.273.931 2.503 1.941 3.804 2.868.72-.047 1.483-.061 2.25-.037.987-.823 2.026-1.647 3.345-1.895.023-.276.075-.828.098-1.104.21.009.632.019.842.028.777 1.02 2.625 2.007 3.35.304.66.416 1.193.959 1.722 1.577 1.174-.201 2.362-.557 3.349-1.296 1.585.049 15.115-2.487 16.117-2.681 1.16-.763 2.554-.777 3.916-.777.023-.313.07-.94.098-1.254.88-.047 1.782-.089 2.713-.122.052-.646.126-1.287.234-1.918 2.396.646 4.865 1.656 7.387.922-.173-1.712.702-3.92-.917-5.127-.023-.131-.065-.398-.089-.533 1.347-.646 1.45-2.147 1.544-3.448.973-.094 1.96-.187 2.976-.267.192-.178.575-.538.772-.716 1.235-.028 2.755.351 3.537-.95.136-.023.407-.075.543-.098.187.211.566.632.753.842 1.708.36 3.513.075 5.272.023-.005-.627.023-1.249.07-1.867 1.067 0 2.152 0 3.256.014.36-.608.725-1.216 1.118-1.815.281-.014.837-.042 1.118-.056-.023.257-.065.767-.089 1.02.496-.225 1.02-.444 1.567-.655.033-.632.084-1.263.168-1.885-.131-.159-.388-.487-.515-.646.103-.992.065-1.984-.21-2.933-.594-1.946-.281-3.986-.281-5.974 7.649-4.045 9.674-2.773 13.918-2.966 2.143.126 4.575-.519 6.447.889.585.012 12.596-.228 17.502-.604 3.298.22 6.625.608 9.946.346-.052-.393-.15-1.179-.197-1.572h1.413c-.037.356-.112 1.071-.15 1.427l.557-.033c.019-.641.061-1.277.135-1.904-.257-.014-.781-.037-1.043-.047.01-.295.033-.884.042-1.174.253-.178.753-.524 1.006-.697-.145-1.857-.426-3.71-.253-5.567-.136-.66-.253-1.319-.337-1.97 5.37-2.562-.046-1.216 8.417-1.24-.267-2.007-.042-4.023.075-6.03.72.014 1.474.033 2.255.056-.103 2.105-.15 4.384 1.506 5.96.753.005 1.525.014 2.339.033.781-1.904 1.095-3.953 1.034-6.007 1.01-.005 2.035-.023 3.093-.037.084-4.262.084-8.529.075-12.791-.271.051-.809.154-1.076.206-.912.529-1.951.758-2.943.954-.285-.678-.515-1.347-.744-2.012-.314-.056-.931-.168-1.244-.225-.033-.529-.033-1.053-.014-1.567 2.087-.444 4.239-.589 6.307-1.212-.608-.342-1.24-.669-1.815-.973-.65-1.469-.828-3.069-.786-4.655-1.146.023-2.278.056-3.387.103-1.029.388-2.044.763-3.06 1.113-.066.828-.131 1.656-.168 2.494-.43.379-.837.767-1.216 1.16-.206-.009-.622-.028-.828-.037-.66-.449-1.296-.875-1.923-1.291-.136-.744-.257-1.483-.332-2.218-.557-.683-1.086-1.366-1.577-2.059-5.277-.018-54.615-2.423-54.615-2.423-.178.248-.524.734-.697.982-.257 0-.777-.005-1.034-.005.042-.342.126-1.025.168-1.361-16.077-.316-37.591-1.567-37.591-1.567-.023.271-.075.814-.103 1.085-.627-.037-1.226-.07-1.806-.098.052-.342.15-1.025.197-1.366-1.689.384-3.415.585-5.127.552-.271-.725-.515-1.441-.739-2.157.374-.051 1.123-.15 1.497-.201.014-1.357-.056-2.723.15-4.066 1.184-.931 2.961-.356 4.398-.351 5.525 1.478 11.256.276 16.88.468 3.069-.791 6.255-.557 9.399-.683.009.285.023.861.033 1.146-.66.206-1.291.43-1.895.674 14.311-.546 33.441 2.852 47.186.028.019.285.056.856.075 1.141-.36.173-1.081.515-1.436.688 17.516 1.373 24.906.886 40.702 1.665.084.561.197 1.127.337 1.698.089-4.253.154-8.519.515-12.763-1.399-.21-2.788-.505-4.108-.959-.641-.033-1.259-.061-1.843-.075-1.117.529-7.044 2.554-9.759 2.994-.023-.37-.066-1.113-.089-1.483.884-.145 1.778-.271 2.709-.384.182-.182.538-.557.72-.739 1.362-.496 2.746-.959 4.196-1.244-.079-.496-.126-.982-.14-1.464 2.073-.599 3.986-1.75 6.199-1.876 0-.299.01-.898.014-1.202 4.292.036 3.342-.265 7.448 3.256.07.192.21.575.281.767 3.944 1.53 5.653 3.174 9.338 4.697 1.292 1.088 5.491 3.14 7.312 3.799 7.972 3.797 13.81 9.754 21.23 6.068.879-.29.337-1.184.295-1.829-1.315.019-2.606.028-3.888.028-.201-.589-.36-1.174-.505-1.754 2.755-.215 5.525-.547 8.304-.215.052.87.103 1.759.318 2.625.515.178 1.067.332 1.656.468.454.725.889 1.464 1.362 2.218-.023-.248-.075-.744-.103-.992h1.09c0 .332-.005.996-.009 1.333-.206-.033-.627-.098-.838-.131.651 4.155-.104 2.578-2.194 4.856-1.385-.009-2.76-.005-4.112.005-.135.734-.281 1.469-.37 2.213-.795.159-1.553.337-2.297.519.01.412.037 1.24.052 1.656-.533.384-1.039.795-1.567 1.128-.66-.066-1.282-.295-1.857-.473-.309.009-.931.028-1.244.033-.524-.201-1.015-.402-1.483-.594.126-.772.281-1.539.472-2.297-.318.047-.949.14-1.268.187-.014-.613 0-1.221.038-1.825.318.009.949.033 1.263.042l-.005-.571c-9.838.122-19.668-.215-29.497-.496l.023.594c.388-.014 1.17-.042 1.563-.056.201 1.441.215 2.905.215 4.37-.295.061-.879.187-1.174.253-.094 2.241-1.319 4.276-1.099 6.554.126 5.24-.482 10.55.407 15.743.767.234 1.558.496 2.363.767-.589 2.695-.472 5.474-.355 8.22.72.028 1.469.065 2.25.103.052-.384.155-1.146.206-1.53.632.239 1.244.482 1.923.749.117-.29.351-.87.463-1.16.95.187 1.909.393 2.891.608.178.458.384.922.618 1.389 1.806-.197 3.621-.43 5.455-.547.052.285.15.856.201 1.142.543-.313 1.114-.618 1.708-.908.042.407.126 1.23.168 1.637 3.836.346 7.687-.182 11.542.14.346.912.711 1.825 1.081 2.751 1.984-.009 3.981-.014 5.988-.056-.82-4.507.818-5.43.402-8.36-.22-1.609.37-3.163.987-4.613 1.736-.332 3.453-1.216 5.272-.692.024-1.605.033-3.205.052-4.8.491.229 1.029.487 1.572.749.332-.88 1.053-1.422 1.923-1.75.033.416.089 1.24.117 1.656l.543.014c-.487-1.857 0-4.028-1.216-5.619-.056-.646-.07-1.282-.047-1.909.304-.529.655-1.053.997-1.581-.271-.225-.814-.674-1.09-.898 0 0-1.525-27.01 1.329-103.214.36-.005 1.076-.014 1.432-.019.646.384 1.319.767 2.007 1.151.342.678.725 1.357 1.141 2.021.023.936.023 1.881.206 2.812.571.781 1.689.552 2.569.786 0 0 1.715 9.789 2.783 22.269.122 2.03-.711 4.061-.098 6.073 1.296 5.155 3.92 31.083 3.92 31.083 1.916 2.498 1.274-1.012 1.357 22.695-.019 2.082.949 4.023.945 6.105.061 3.897-.126 7.799.042 11.691.393 2.428 1.282 4.763 1.263 7.261.739-.082 15.325-2.451 17.048-2.48.098-.561.243-1.113.44-1.656.608-.136 1.249-.136 1.923 0 .136.538.29 1.09.463 1.651 4.407.851 8.917.346 13.38.473.182 1.081.393 2.171.575 3.266 5.949 1.166 12.405.044 42.414-.491.65-.585 1.296-1.198 2.082-1.651 1.764-.356 3.593-.145 5.403-.215 1.029-1.034 2.26-1.871 3.752-2.063.136 1.001.3 2.002.477 3.018 1.839-.079 3.874-.168 5.212 1.371 2.526.716 5.221.716 7.766-.005 2.091-1.697 1.984-1.809 6.162-.379.121-.95.276-1.899.449-2.84 3.523-.257 7.069-.276 10.61-.262 3.075 9.666 2.089 2.228 2.176 28.028.482.519.973 1.048 1.506 1.577 2.119.351 3.836 1.745 5.848 2.437.674-2.138.707-4.833 2.648-6.288 2.343-.325 29.183-.234 33.029-.229-.01 2.03-.005 4.07-.01 6.11 2.236.777 4.599 1.418 6.999.912 2.337-2.831 2.3-2.479 5.324-1.97 1.906.433 18.598.767 22.568.215-.051-2.681-.192-5.389.421-8.023 5.084-3.761 7.972-.701 17.857-1.436-.019-.313-.047-.95-.066-1.268 2.644-2.285-1.339-2.434 24.257-1.974 1.974-.033 2.208 2.185 2.33 3.687 2.33-.912 4.833-1.067 7.331-.95-.042.926 0 1.871.023 2.812 20.387.092 16.023-.847 19.893 2.807 2.47.014 4.955.014 7.443-.009.28-26.048-1.573-17.485 7.485-19.939 1.497-.421 3.013-.777 4.58-1.02v289.39h-2560v-368.641c.767.108 1.539.22 2.306.342.828-.112 1.656-.215 2.489-.304 5.931 5.95 5.105 2.507 6.994 7.64 2.435 2.635 2.096 14.556 2.133 15.556 1.446 1.436 3.294 2.802 3.673 4.945.421 3.442-.237 17.586.356 20.346.858.262 29.1.097 29.595-.009.636-2.035-.009-4.178.285-6.25 2.096-.51 4.276-.253 6.409-.295.543-5.704-.449-48.025.379-53.862 2.961-.225 5.946.248 8.884-.328-.513-18.075.071-16.026 3.878-16.861-.351-.94-.851-1.811-1.474-2.592-1.745-6.869.392-7.479 2.161-9.085.187-3.406.225-6.826-.108-10.222 1.895-.468 4.07-.393 5.506-1.927.566.276 1.132.561 1.703.851.036-.005 13.864.264 14.545.36-.047-.187-.14-.566-.187-.753.173-.786.337-1.577.496-2.358 2.776.495 2.376-.073 3.621 3.312.201.009.608.023.809.028.935-16.832.356-20.73.356-20.73.978.243 1.956.505 2.933.758-.023.889-.042 1.778-.075 2.676-1.597 1.583-.619 12.404-.477 14.016l.538.009c-.154-2.844.809-5.595.678-8.435.677.029 10.33.342 10.975.547.452-6.125.158-31.945.056-32.945-.36-.421-.711-.833-1.053-1.263 1.38-.421 1.436-2.129.239-2.788-.019-.229-.056-.692-.075-.922.332-.009 1.006-.028 1.343-.037.033-.253.108-.749.14-1.001.416-.58.809-1.179 1.184-1.782.487-.019.973-.033 1.46-.042.023.281.07.837.098 1.113.468.449.931.917 1.394 1.385.014-.276.047-.823.061-1.095 2.887.491 5.848.267 8.767.519.014.356.033 1.062.047 1.413.613.08 1.226.164 1.839.248-.412.136-.823.276-1.235.416 0 0 .881 46.531 1.081 48.416 3.603-.716 3.313-.574 3.949 2.012.865 0 1.736-.005 2.606-.009.463-.477.931-.954 1.399-1.422 3.294-.43 6.423.706 9.651 1.043 1.549 1.015 3.092 2.105 4.917 2.582.43 3.163.211 6.344.22 9.52-.627.065-1.24.196-1.839.393.632.566 1.277 1.118 1.932 1.67.103-.225.309-.674.412-.894.051-.407.112-.809.178-1.207.683.061 1.347.206 2.026.332-.019 2.76-.023 5.516-.005 8.281-.468.402-.936.814-1.404 1.226.009.491.019.992.028 1.492 1.043.14 2.087.276 3.13.412 0 0-.003 7.499-.421 13.974.496.019.996.047 1.502.08 2.182 1.853 4.54 2.022 6.573 2.297 1.67 3.813.384 8.07.856 12.08 1.039.491 1.174 1.675.056 2.171-.098 1.132-.192 2.278-.351 3.411.299-.005.894-.014 1.193-.019.009.295.033.88.042 1.174-.309.14-.922.416-1.23.557.299.051.898.159 1.198.211 0 .58.005 1.16.009 1.75-.229-.014-.688-.042-.917-.056 1.193 1.811.473 3.991.95 5.993-.365.042-1.09.126-1.455.168.089.444.182.894.276 1.352-1.418 3.153-1.02 7.074 1.029 9.857.033.234.103.697.136.931.36.019 1.076.056 1.432.075v1.184c-1.081.299-2.152.622-3.219.964.337.07 1.015.215 1.357.285-.051.898-.098 1.806-.164 2.713-.571.561-.823 1.305-1.015 2.068.875.384 1.745.781 2.615 1.193.627-.023 1.254-.042 1.885-.051-.009-.964-.009-1.927-.009-2.882.711.07 1.432.117 2.138.267.945.51.435 1.787.632 2.657 1.38-1.258 2.989-2.241 4.674-3.041.234-.87.444-1.75.636-2.62.304.028.903.084 1.207.108-.211-.692-.407-1.389-.594-2.073 1.09.145 2.18.313 3.251.552.281-.482.561-.959.847-1.427-.767.239-1.539.468-2.316.692.271-1.277.936-2.386 1.829-3.312 1.174-.164 2.335-.393 3.495-.636 0 .384-.005 1.146-.009 1.53 1.404-.051 2.798-.239 4.164-.58.309.524.613 1.062.912 1.605.267-.744.543-1.478.809-2.213.594.22 1.193.454 1.787.706.215-.164.65-.496.87-.664 0-.239.005-.725.005-.964.599-.37 1.193-.744 1.773-1.137.248-.023.739-.07.987-.094.009-.744.019-1.478.028-2.208 1.675-.136 3.626-.304 4.552-1.937.248-.023.739-.075.982-.103.009.374.033 1.123.042 1.497 1.001-.009 2.007-.014 3.013-.009-.664-1.675-1.319-3.429-.589-5.202.407 0 1.226.009 1.637.009-.608-.491-1.226-.978-1.843-1.446.346-.426.688-.856 1.043-1.268.005-.664.009-1.329.019-1.979.327-.009.987-.019 1.315-.023.196-.94.407-1.867.636-2.793.253.033.763.094 1.015.122 1.202.954 2.606 1.581 3.906 2.386.239 1.324.14 2.69.159 4.037.618.206 1.23.416 1.853.632 0-.421 0-1.258 0-1.675-.351.028-1.053.08-1.404.108.019-.332.061-1.001.08-1.333.342-.005 1.029-.019 1.371-.028.019-.356.051-1.071.065-1.427.735.028 1.469.056 2.208.089-.019 1.02-.047 2.04-.065 3.074.281-.267.837-.795 1.118-1.057.555-1.854.594-14.945-.061-17.984.589.098 1.184.206 1.778.318 1.75-.22 3.518-.192 5.282-.22.945-1.675 2.788-1.684 4.482-1.581.173-.767.351-1.52.543-2.269 3.509.164 7.153-.538 10.536.674 1.071.323 2.049-.543 3.05-.791.239.215.711.65.945.87 1.071-1.273 1.553-2.858 1.717-4.487.908.005 1.815.019 2.727.033.065.388.197 1.156.262 1.544-.379-.009-1.132-.028-1.506-.037.594.103 1.188.196 1.792.304.215-.964.468-1.913.772-2.849.744-.594 1.296-1.371 1.67-2.246.243.009.734.023.982.028-.028.561-.051 1.127-.075 1.698.734.225 1.474.454 2.218.683.351.58.711 1.165 1.071 1.75.833-.005 1.67-.009 2.512-.005.281.323.561.65.847.982.524-.019 1.048-.033 1.577-.042.496-.646 1.01-1.277 1.53-1.904.968.248 1.942.519 2.905.828.075-.159.229-.477.304-.636.772-.168 1.544-.332 2.32-.501-.028-1.113-.051-2.227-.075-3.331.267-.028.8-.084 1.067-.112.159 1.254.351 2.508.552 3.761 8.794.07 5.726.514 9.647 1.333.182-.197.552-.594.734-.791 2.718-.393 5.516-.108 8.201-.749 1.544-1.768 1.432-4.299 1.212-6.484 1.156-1.464 3.008-1.23 4.646-.968 1.123-.173 2.269-.15 3.359.22 1.871-.257 3.897-.711 5.539.538.014-.524.028-1.043.051-1.553.44-.356.861-.725 1.263-1.113.29-1.904.173-3.841.192-5.754 3.509-.945 7.364-.627 10.615 1.029.042-.393.084-.772.136-1.151 1.057.22 2.115.421 3.186.599 1.041 11.937-.154 12.132.758 16.543.819-1.207 1.708-2.494 1.595-4.028.066-4.407 1.366-8.655 1.455-13.053.875-.182 1.754-.351 2.643-.496-.009.365-.019 1.095-.028 1.46.641-.023 1.282-.047 1.923-.061.051-.318.154-.945.206-1.258 1.02.037 2.049.075 3.074.122 1.811 1.16 4.094.529 6.124.711-.15 4.875-.683 9.862.412 14.667-.463-.014-1.38-.051-1.843-.07.145.15.43.449.571.599 2.405.019 5.212-.524 7.055 1.436.646-.281 1.235-.655 1.773-1.109 3.219-.145 6.447-.014 9.67-.009-.042-.346-.07-.683-.094-1.015-.501-.571-.982-1.156-1.45-1.745 2.325-.73 4.781-.44 7.177-.622.014 1.104.042 2.208.084 3.317 1.23.07 2.746.529 3.34-.954 1.923-.337 3.883-.374 5.834-.285 1.563-.627 3.191-1.118 4.889-1.198.304.996-.122 2.522.842 3.158 1.586-.187 3.12-.664 4.697-.922.515-.753 1.062-1.483 1.609-2.208 1.895.005 3.789 0 5.689.019.987.922 2.189 1.665 2.971 2.784.243 1.68.103 3.382.112 5.071 1.067.243 2.138.491 3.209.734.229.725.449 1.45.674 2.189.664.257 1.333.51 2.012.767.393 1.305 1.469 2.124 2.545 2.873.154-.005.472-.023.632-.033.772.388 1.553.753 2.344 1.113-.239 3.789-.285 7.588-.192 11.382 5.689-.253 11.382-.496 17.081-.566.079-.622.159-1.244.253-1.857 1.609-.49 59.462-3.853 61.132-3.981.112-1.899.454-3.86 1.745-5.343.436-8.065-.011-.59-.585-16.968.73-.023 1.464-.037 2.204-.047-.131 4.033.023 8.075-.154 12.108.126-.262.384-.781.515-1.043.566.295 1.132.594 1.708.903.164-.889.313-1.782.458-2.667 2.297-.574 2.478-.422 15.574-.374-.108-.594-.215-1.188-.248-1.782.641-.683 1.642-.585 2.489-.777.089 1.998-.327 3.995-.061 5.988 1.759.271 3.551.136 5.329.225.103-1.011.211-2.026.341-3.027 1.497.346 1.895 1.792 2.18 3.106 2.816-.014 5.563-.837 8.388-.669.898.327 1.82.589 2.756.837.852-2.03.304-4.192.042-6.274.8.089 1.609.201 2.414.342-.056.641-.098 1.291-.136 1.946 4.697.688 9.464.299 14.194.253.594.257 1.202.519 1.81.781.505 2.395.458 4.856.482 7.289 1.118 1.029 2.161 2.143 3.055 3.382 4.401.272 28.22-.001 29.221.042 2.901.039 4.606 2.785 8.805 4.678.765-19.553-1.895-20.922-.384-26.639 1.085-4.061.019-8.304.599-12.416 1.352-.922 2.994-1.408 4.618-1.511.164.29.487.865.65 1.151 31.133 10.318 28.957 9.1 36.028 15.209-.702 6.157-.88 12.37-.664 18.573-.323-.037-.968-.117-1.291-.154-2.012 3.158-2.816 7.032-2.32 10.742.678 5.24-.033 10.629 1.572 15.743.491.683 1.132 1.221 1.853 1.67.037.229.112.692.15.922-.248-.005-.744-.014-.997-.019 1.039 7.582.362 14.552 1.857 14.077 4.439-.414 8.987-.415 13.113 1.23-.201-5.984.281-11.981-.136-17.956-.426-2.021.351-3.995.73-5.951.683.159 1.38.327 2.087.496.196.402.407.814.622 1.23.987-.019 1.984-.042 2.985-.07-1.113-1.132-2.363-2.115-3.724-2.919-.379-.772-.805-1.52-1.085-2.325.094-.777.688-1.385 1.048-2.058 2.054-1.301 4.501-1.188 6.84-1.076 1.296.884 2.578 1.839 4.075 2.372.107-1.018.654-10.686-.561-14.227-.234-.585.318-1.113.472-1.642.112-.557-.449-1.591.393-1.698 2.288-.505 4.683-.103 6.943.402 3.092.561 6.157-.604 9.258-.29 2.788.178 5.577.627 8.384.267-.192-.917-.421-1.82-.725-2.695.271-.351.566-.688.875-1.006.936.023.8 1.146 1.146 1.773.814-.014 1.628-.033 2.456-.047.473-1.885.716-3.832.617-5.773 1.647-1.146 3.659-.491 5.497-.412.009 1.483-.098 2.985.173 4.458.725.182 1.464.276 2.218.407-.824 3.622-.683 2.598.94 5.174.566-1.909.29-3.883.271-5.829.379-.15.772-.285 1.179-.398.313.711.646 1.422.992 2.133-.019-.524-.061-1.581-.084-2.11.402.098.809.206 1.23.313.341-.267.692-.533 1.053-.791-.338-10.619 1.429-14.709 2.353-18.405.402.196.819.398 1.24.603.458-.655.926-1.31 1.413-1.951.122-1.497-.992-3.036-.243-4.44-.337-.561-.688-1.142-1.006-1.689.234-.126.697-.374.931-.501-.384-.632-.744-1.263-1.099-1.899 3.691-.788 2.941-.859 4.042 1.132 9.497-.045 17.178.376 24.501.365.08-.309.243-.922.323-1.226.791-.094 1.591-.182 2.4-.271-.416 1.118.065 1.932 1.17 2.339.664 1.68.426 3.504.646 5.263 1.46.571 1.223-2.89 1.23-4.608.725-.44 1.464-.861 2.222-1.258.434-11.271 1.5-39.53 1.506-39.813.412-.407.833-.809 1.263-1.212-.033-1.043-.318-2.166.201-3.134 1.572-.187 3.163-.009 4.753.056-.066-.809-.126-1.619-.178-2.419.945-.421 1.918-.786 2.905-1.118-.005-.968-.023-1.937-.028-2.896.875-.22 1.754-.444 2.639-.669.164-.229.491-.688.65-.917.374.023 1.118.075 1.492.098 1.22-2.349.693-27.258.444-29.226 1.357-1.057 2.372-2.461 2.784-4.15.379.356.772.711 1.17 1.076-.15.435-.29.875-.416 1.319.519.019 1.053.047 1.595.08.931 1.563 2.971.725 4.458.903.262-.716.538-1.427.809-2.133.388-.243.791-.482 1.202-.716-.014-2.998.081-65.58 1.829-78.901 3.612-7.376 6.653-8.035 9.198-12.005 1.684-7.813-.477-16.014 1.703-23.775 2.362-1.156 27.256-20.422 28.262-21.329-.473-1.127-.07-2.091.922-2.746 2.274-5.726 3.799-11.743 6.517-17.291 3.032 5.469 4.299 11.687 6.587 17.474.43.304.889.585 1.371.847-.257.571-.51 1.142-.749 1.722.374.402.763.809 1.17 1.212.201.061.604.187.805.248 1.19 1.456 21.616 16.912 26.559 20.482.875 4.772.43 9.665.407 14.489-1.628 2.161-.978 5.127-1.23 7.654.468-.243.959-.473 1.464-.683.936 4.056 4.533 6.639 7.064 9.698.749 1.46 1.385 3.004 2.606 4.164.001.042.473 50.325.473 50.325-.543-.154-1.076-.285-1.605-.402-.477 1.329.08 2.55 1.081 3.462.92 4.944-.504 25.339.636 29.142.552-.019 1.113-.033 1.689-.042.37-.463.744-.926 1.132-1.38.524-.028 1.057-.051 1.605-.07.524.515 1.053 1.025 1.609 1.539.201-.426.599-1.287.8-1.712 2.81 2.81.828 3.239 1.02 8.187.252 10.633-.534 12.161.669 14.461.627-5.132-.374-10.344.533-15.471.473.192.959.384 1.46.58-.257 1.421-.72 23.761-.416 24.931-.08.192-.239.575-.318.767.108.234.318.692.426.922-.084.22-.257.655-.342.875.037 1.563-.14 3.125-.454 4.655-1.291-2.848-.285-7.176-.725-17.071-.094-.056-.285-.164-.379-.215-.084.065-.257.192-.341.257-.616 4.481-.636 33.198-.332 34.919-.212 1.493-.632 13.983.29 15.092.463-.276.851-.65 1.301-.968 1.029 1.566 6.543.684 7.804.435 3.439.842 7.018.145 10.517.547 1.619.285 2.667-1.338 4.154-1.605 1.24-.08 2.489.028 3.743.089.033-3.616.14-7.256-.561-10.821 2.558-.548 13.425-1.068 16.926-.889 1.034-.15 2.442.379 3.209-.552.126-1.037.375-89.498.379-89.637 1.432-.285 3.2-.225 4.075-1.651.43.449.725.861 1.207 1.333 1.498-2.22-.178 2.524 2.723-10.606.187-.851-.098-1.694-.253-2.517.215-.08.641-.243.856-.323.909-6.837 6.614-28.937 5.502-42.503-.096-2.008.801-23.172 1.516-29.282-.388-.365-.767-.725-1.137-1.085-.29-.033-.861-.098-1.151-.131.056-.215.164-.65.215-.866 1.268-1.146 1.764-2.826 2.232-4.407.071-.289.896-18.306.748-26.363.589.037 1.193.089 1.806.154 1.195-10.753-.007-5.328.758-19.565-.066-.201-.196-.608-.267-.814.164-.22.487-.664.65-.889-.426-.519-.847-1.034-1.254-1.549-.285.019-.851.056-1.137.075-.042-.561-.075-1.127-.098-1.684-.519-.379-1.025-.758-1.52-1.132.206-.435.421-.87.65-1.305.37-.014 1.113-.047 1.488-.061-.837-.702-1.656-1.418-2.442-2.157 1.062-.098 2.143-.173 3.228-.239.008-1 .213-50.351 1.581-52.253.094.435.281 1.301.374 1.736.833-.033 1.684-.056 2.531-.042-.809.646-1.609 1.282-2.4 1.923.281 2.306.225 4.632.131 6.952.753.07 1.53.145 2.311.22 0 .262.005.777.005 1.034-.922.379-1.825.767-2.718 1.174.154 2.349.402 4.688.515 7.041.641-.023 1.296-.047 1.965-.07.042.295.117.884.159 1.179-.908.491-1.768 1.034-2.61 1.609 1.782 6.531.097 8.741.992 29.506.692.103 1.394.211 2.105.323-.66.711-1.352 1.394-2.012 2.096.795.271 1.605.561 2.414.87-.697.575-1.38 1.142-2.077 1.698-.828 6.69-.342 13.46-.379 20.182.239.458.538.912.753 1.404-.309.543-.664 1.039-.982 1.558.463-.009 1.389-.033 1.853-.042-.501.43-.987.856-1.478 1.282-.341 3.794.164 7.584.576 11.35-.376 2.033-.474 9.954.356 11.425-.169.678-.323 1.357-.468 2.04 1.902 10.411-.792 57.477 7.916 87.266 1.221 1.469.206 3.509.683 5.23.257-.178.772-.543 1.029-.725-.082-24.663.01-24.229 1.011-25.142.436 3.602-.384 11.953.342 14.222.276-1.497.416-3.013.763-4.496 1.062 1.46.617 3.34.688 5.02-.473.234-.936.468-1.385.706.037.24-.832 6.822-.416 11.172.122 1.361 1.272 2.246 2.115 3.205.304-.136.917-.407 1.226-.543-.14.267-.416.791-.552 1.057.557.342 1.128.688 1.708 1.034.042-.646.094-1.282.154-1.918.332-.028.996-.089 1.329-.117-.374-4.192.837-8.444-.402-12.557.234-.505.487-1.006.749-1.502-.089-.552-.178-1.109-.239-1.656.187-.028.561-.084.749-.112.435 1.511 1.104 2.938 1.923 4.285-.608.36-1.193.73-1.782 1.095.73 4.613-.318 9.24-.023 13.876-.211.122-.636.365-.847.487-.047.875-.084 1.754-.117 2.639 2.465 1.249 5.333 1.17 7.986.632.023-12.014-.192-24.033.426-36.037.468-.379.94-.763 1.432-1.137 0-.29.005-.87.005-1.16 3.776-3.086 9.948-9.4 11.682-9.829 1.704-3.263.447-8.876 1.057-18.302.382-.684 7.491-6.947 10.653-8.697.061-6.002-.131-12.019.084-18.012 2.53-1.888 1.459-.348 7.102-6.016.262-.033.786-.089 1.048-.122.627-.58 1.277-1.156 1.918-1.74-.431-1.701.252-16.486.468-17.927 1.525-.781 3.013-1.782 3.761-3.396.15.051.444.159.594.211 1.993-2.007 4.519-3.387 6.419-5.488.243-.019.725-.056.964-.075 7.252-28.079 4.758-17.593 4.711-26.101.253-.201.758-.599 1.01-.8-.267-4.178.735-8.327.211-12.491 0 0 .131-5.634.627-10.47-.178-.112-.533-.342-.711-.458 1.454-10.698.547-6.802.8-11.804-.716-.201-1.399-.398-2.091-.604.351-.229 1.053-.692 1.404-.922.435-2.863 1.01-5.815.416-8.706-.487-2.222 1.614-4.075 1.043-6.335.109-1.787.328-14.529.255-15.176m.786-.397c.636.168.88-.07.73-.716-.669-.178-.912.061-.73.716m507.135 11.663c.791-.739 1.104-1.787 1.385-2.812-1.306.29-1.282 1.773-1.385 2.812m51.504-2.718c0 .908.023 1.815.108 2.723.538-.664 1.006-1.389 1.474-2.119-.544-.207-1.072-.408-1.582-.604m-55.462 46.746c-.196 1.23-.267 2.475-.309 3.719-.529.823-1.132 1.6-1.843 2.269-.037.781-.042 1.563-.014 2.349 1.698.295.398 2.007.402 3.069-.267-.061-.805-.182-1.076-.243.239.552.547 1.113.809 1.68-.697.51-1.315 1.071-1.909 1.661.449-.117.912-.234 1.39-.346.005.225.009.674.014.894.772.08 1.581.168 2.391.267-.005-1.525-.005-3.05.243-4.557.309-1.867-.211-3.733-.159-5.605.585-1.662.379-3.464.061-5.157m-44.29 4.033c.44 1.89.945 3.963 2.48 5.291-.097-1-.191-4.685-2.48-5.291m-1.296 3.705c.009 1.081-.211 2.33.795 3.069.061-.917.126-1.834.178-2.746-.243-.08-.73-.244-.973-.323m-2.194 4.299c.725-1.263 1.039-2.709 1.333-4.122-2.204.104-1.254 2.686-1.333 4.122m2.694-1.286c.192 1.156.444 2.302.688 3.457-.239.454-.388.922-.571 1.389.281-.496.571-.992.865-1.497.224.164.678.482.908.646-.047-.618-.075-1.235-.084-1.853-.243-.178-.725-.533-.964-.711-.06-.617-.215-1.197-.842-1.431m3.294-.103c.037 1.385-.543 3.158.777 4.136.524.398.987 1.347 1.773 1.067.412-.954-.168-1.942-.337-2.882-.674-.847-1.17-1.891-2.213-2.321m-1.867 13.562c-.066.865.346 1.656.669 2.437.295-.917.58-1.848.805-2.793-.37.09-1.104.268-1.474.356m2.12 2.751c1.296.814 2.905.271 4.318.823.019-.248.056-.739.075-.987-1.479-.004-2.948-.013-4.393.164m.528 1.806c.304.604.636.613.996.037-.341-.608-.673-.617-.996-.037m3.425-.037c.262.257.262.257 0 0m-3.944 5.413c.865.281 1.768.505 2.699.604.566-.613 1.273-1.043 2.124-1.193-.182-.356-.337-.711-.477-1.057-.342.407-.683.805-1.02 1.188-.772-.444-1.478-.931-2.269-1.277-.833.027-.833 1.154-1.057 1.735m.594 4.832c.014.257.037.777.052 1.039.482-.154 1.029-.304 1.553-.463.547.173 1.113.337 1.698.496.019-.271.056-.805.075-1.076-1.137.004-2.264.009-3.378.004m-546.999 1.296c-.009.861-.042 1.726-.154 2.582.15.908.327 1.815.575 2.713.3-1.772.29-3.625-.421-5.295m-126.011 7.21c.365-.033 1.099-.103 1.469-.136 1.071-1.076 2.311-1.965 3.523-2.891-.019-.318-.056-.959-.07-1.277-1.807 1.197-3.865 2.339-4.922 4.304m7.055-3.846c1.244 2.124 3.56 3.354 5.525 4.749-.388-2.297-2.765-3.092-4.098-4.72-.356-.01-1.072-.024-1.427-.029m666.671.692c.725.173 1.946.982 2.512.159-.393-.767-2.1-.683-2.512-.159m-.51 1.203c-.187.248-.566.753-.758 1.006.234.117.697.356.931.477-.178.543-.327 1.095-.454 1.647.608-.182 1.216-.454 1.773-.833.51.444 1.132.613 1.867.505-.627-.51-1.389-.786-2.133-.982.108-.201.323-.604.43-.809-.299-.047-.908-.14-1.212-.192-.112-.206-.332-.618-.444-.819m3.125.145c-.786 1.38 1.535.126 0 0m-550.681 6.414c.248-.005.744-.014.992-.019-.028-1.146-.065-2.306-.407-3.406.089-.197.257-.58.341-.777-.042-.43-.126-1.296-.173-1.731-1.3 1.666-.495 3.982-.753 5.933m548.51-.412c.089.632.421.735.997.313-.127-.631-.459-.734-.997-.313m-548.5 3.294c-.014.73-.014 1.46 0 2.194.234.154.702.463.936.618-.009-1.198-.009-2.4 0-3.598-.235.196-.702.589-.936.786m546.694.229c.458.37.978.739 1.474 1.118l-.964.276c.281.192.842.571 1.118.758-.056-.664-.108-1.324-.15-1.984.398.075 1.188.225 1.586.299-.958-.505-2.245-1.805-3.064-.467m4.075-.29c.262.243.262.243 0 0m-.954 1.394c-.243.753.023 1.025.8.809.206-.762-.061-1.029-.8-.809m-546.802.342c-.178 1.796-.327 3.635.056 5.418.234-1.802.149-3.622-.056-5.418m543.752 1.852c.14.683.351 1.371.557 2.049.926-.051 1.876-.103 2.835-.187-.416-.561-.959-.95-1.623-1.085-.389-.632-1.147-.679-1.769-.777m3.986.197c-.786.248-.351 1.516.426 1.305.86-.197.327-1.549-.426-1.305m-550.686.991c-.687 1.418 1.544.033 0 0m-.444 1.137c.065.482.145.964.239 1.45-.313 1.38-.58 2.952.482 4.094.032-1.857.757-4.037-.721-5.544m550.077.655c-.529.66.702 1.17 1.118.618.496-.674-.739-1.151-1.118-.618m-2.788 1.778c-.122.94.458 1.694.945 2.442.964-.042 1.951-.075 2.943-.136-.379-.14-1.142-.416-1.521-.557.061-.412.14-.819.239-1.226-.871-.224-1.736-.467-2.606-.523m3.836.089c-.182.66.056.88.716.669.145-.669-.094-.889-.716-.669m-548.337 12.608c-.313.618.758 1.647 1.244.861.19-1.44-.461-12.722-.599-13.268-.575 4.112.193 8.309-.645 12.407m-2.727-9.263c-.674.178-.566 1.338.009 1.586.655-.136.599-1.413-.009-1.586m547.639 2.62c.978-.047 1.97-.103 2.952-.323-.912-.706-1.895-1.296-2.835-1.923-.626.674-.435 1.474-.117 2.246m3.425-2.115c-.683.229-.37 1.422.309 1.422.65-.224.337-1.436-.309-1.422m-551.588 3.238c-.22 1.506-.056 3.041-.047 4.561l.313.009c.435-1.75.66-3.537.678-5.333-.336.239-.654.491-.944.763m547.588 1.843c1.053.557 1.16 1.474.692 2.498.472-.337.931-.706 1.46-1.02.646.29 1.249.655 1.923.959-.089-.833-.646-1.249-1.343-1.516-.697-.916-1.712-2.105-2.732-.921m3.888-.332c-.225.66 0 .898.664.711.182-.664-.037-.898-.664-.711m-551.565 3.696c-.22.678-.005.884.655.622.201-.669-.019-.875-.655-.622m560.145-.061c-1 .555-.616 3.166-.379 5.001 1.16.098 2.344.192 3.518.384-.056-.585-.098-1.165-.122-1.745.655-.037 1.333-.08 2.026-.117-.042-1.305-.571-2.489-1.104-3.644-1.324.032-2.643-.024-3.939.121m-12.388 1.988c.458.187.94.374 1.441.566 1.165-.342 2.339-.664 3.518-1.02-.285-.973-1.249-.922-1.918-.412-.473-.033-.926-.061-1.366-.089-.978-.682-1.788-.224-1.675.955m-544.043.098c-.407 1.881-.51 3.818-.458 5.74-.065 1.268.772 2.592-.047 3.757-.023.819-.014 1.637.019 2.461.627-.164 1.441-.075 1.885-.678.178-1.127-.285-2.175-.763-3.153.959-2.409.065-5.043.318-7.556-.238-.145-.715-.43-.954-.571m-3.756.501c-.239 1.665.005 3.35.262 5.001.346-1.656.641-3.467-.262-5.001m551.724 2.564c.248.252.248.252 0 0m-2.826 1.894c-.664.295-.683.599-.052.912.632-.299.646-.598.052-.912m4.561.258c.208 48.573-1.303 44.461 3.761 43.682.187.084.566.253.753.337 1.085-.636 2.073-1.478 2.101-2.849.908.094 1.843.211 2.779.337-.145.444-.257.898-.332 1.357.575.117 1.174.229 1.792.327-.22-.44-.426-.87-.618-1.301.253-.197.753-.585 1.006-.781-.014-1.549.285-3.336-.894-4.561-1.811.29-3.649.702-5.464.318-.753-1.193.833-2.063 1.563-2.774 1.305.702 2.83.739 4.285.519 1-.608.513-5.169.014-6.498-2.077.023-4.145.042-6.208 0 .042-1.347 1.151-2.175 2.04-3.032-.084-.374-.253-1.118-.337-1.492 1.212-.37 1.352.739 1.563 1.665 1.015.295 2.077.604 3.144.248-.253-.487-.491-.968-.716-1.45.257-.182.772-.552 1.029-.739-.042-1.563.337-3.364-.931-4.566-1.909.416-3.86.608-5.801.501.112-1.113.688-2.096 1.609-2.737.734.267 1.516.412 2.297.117.594.131 1.188.262 1.829.393 1.361-1.96 1.081-4.454.725-6.676-1.923-.037-3.85-.056-5.712.412-1.095-.725 0-2.049-.005-3.046-1.136-.812-2.674-1.811-2.746-1.867.454-.066 1.357-.192 1.806-.253-.061-.594-.103-1.188-.14-1.778.215 0 .65-.005.865-.005.131-.88.285-1.759.51-2.62-1.225-1.82-3.705-1.918-5.567-1.188m6.222.964c.094 1.562 1.376-.735 0 0m-11.817.809c-.047.669-.075 1.338-.075 2.012 1.104.019 2.227.028 3.364.033-.225-.449-.43-.894-.622-1.338-.234.005-.702.019-.94.023-.534-.37-1.109-.613-1.727-.73m3.022.224c.407.58.912 1.109 1.502 1.539.042-.393.117-1.179.159-1.572-.416.01-1.244.024-1.661.033m-551.144 1.165c-.08 1.113-.089 2.232 0 3.345.786-.987.871-2.386 0-3.345m548.721 1.937c.505.313 1.782.473 2.054-.15-.548-.318-1.872-.575-2.054.15m-.506 1.53c.056.987.267 1.96.463 2.933.426-.304.866-.613 1.324-.917.477.154 1.427.463 1.904.618-.501-.72-.954-1.422-1.436-2.124-.762-.206-1.501-.421-2.255-.51m3.692.084c-.716 1.418 1.53.052 0 0m-552.421.608c.126 1.249.313 2.489.575 3.724.758-1.216.59-2.825-.575-3.724m5.951.459c-.655.08-1.296.154-1.932.225.009 1.137.08 2.288.449 3.382-.154.926-.318 1.853-.454 2.788.674.192 1.343.365 2.049.538-.337-2.302-.295-4.622-.112-6.933m556.285-.229c-.014.229-.037.697-.047.931-.627.005-1.235.014-1.825.028-.009.225-.023.678-.028.908 1.591.005 3.195.009 4.805-.005-.229-.627-.44-1.249-.646-1.867-.771 0-1.529 0-2.259.005m-13.754 4.547c1.609.814 3.312.327 4.8-.519-.164-.473-.369-.922-.529-1.366-.243.253-.73.767-.973 1.025-.931-.257-1.857-.529-2.732-.856-.211.565-.412 1.136-.566 1.716m-548.421 2.236c.182.066.552.206.739.276.248-1.132-.005-2.297-.15-3.42-.313 1.02-.674 2.064-.589 3.144m303.658-1.16c.894-.028 1.806-.065 2.728-.126-.398-.566-.346-1.736-1.137-1.811-.716.473-1.151 1.231-1.591 1.937m245.413-.131c-.005.267-.019.805-.023 1.071.931-.103 1.89-.201 2.854-.276-.95-.276-1.895-.547-2.831-.795m-.683 1.979c.767.856 1.258 1.811.608 2.915 1.053-.295 2.157-.561 3.256-.253.009-.168.028-.501.037-.669-.346-.051-1.048-.15-1.394-.201.136-.243.402-.73.538-.973.552.028 1.123.061 1.717.094-.075-.229-.225-.683-.295-.908-1.444.806-1.752.535-4.467-.005m-544.491 1.867c.061.992.103 2.035.772 2.844-.716.968-.814 2.133-.702 3.298.819-.126 1.665-.243 2.508-.374-.435-1.96-.936-3.967-.285-5.942-.768.057-1.545.118-2.293.174m297.253-.103c-.033.87-.037 1.745-.009 2.62.65.239 1.38.449 1.548 1.249.435-.43.861-.856 1.348-1.263-.313-1.39-1.455-2.48-2.887-2.606m-301.305.776c-.449.426-.061 1.726.655 1.277.393-.421.009-1.674-.655-1.277m308.646 2.129c.304-.94-.356-1.661-.88-2.335-.692.866-.669 2.765.88 2.335m239.887.828c.959.285 1.951.51 2.966.655.009-.323.028-.968.037-1.291-1.103-.295-2.867-1.198-3.003.636m3.729-1.244c-.412.543.313 1.703.978 1.174.5-.557-.365-1.675-.978-1.174m-552.089.416c-.309 1.099-.412 2.241-.262 3.373.267-.136.8-.407 1.067-.543-.07-1.001-.159-2.021-.805-2.83m298.358 2.48c-.187.674-.636 1.338-.519 2.063.73.627 1.918 1.651 2.798.678.285-1.502-1.193-2.208-2.279-2.741m6.148.285c-1.268 1.067-.173 2.358.959 2.887.337 0 1.01-.009 1.343-.014.083-1.413-1.063-2.475-2.302-2.873m6.067.819c-.454.454-.332 1.492.374 1.637.997-.094.534-2.058-.374-1.637m238.503.014c-.435.8-.884 1.68.449 1.731-.22.421-.421.847-.604 1.277.351-.014 1.053-.037 1.404-.051-.136-.543-.248-1.085-.342-1.623.805.618 1.535 1.389 2.536 1.736-.945-1.241-2.278-2.079-3.443-3.07m3.317.659c-.725 1.39 1.544.047 0 0m-552.935.548c-.005.973.009 1.956.089 2.933.688-.702.604-1.712.725-2.611-.206-.079-.613-.243-.814-.322m4.626-.052c-.889.496-.412 1.586-.463 2.395 1.586.744.094 2.554.033 3.832.248.159.739.477.987.636.599-.122 1.188-.253 1.811-.374-.36-2.213-.299-4.421-.056-6.639-.412.103-.805.215-1.188.332-.281-.046-.843-.135-1.124-.182m-4.519 3.116c-.173 1.123-.281 2.25-.393 3.382.257-.023.772-.075 1.029-.098 0-1.132-.004-2.302-.636-3.284m294.957 1.258c.786.884 1.74 1.628 2.947 1.843-.126-1.02-.206-2.199-1.511-2.213.023-.253.066-.753.089-1.006-.533.455-1.034.913-1.525 1.376m12.482-.149c.636 1.029 1.277 2.199 2.568 2.512.323-1.394-.557-2.447-1.352-3.453-.407.314-.847.623-1.216.941m242.011-.903c-.159.421-.281.851-.374 1.291.44.318.926.571 1.436.856.192-.103.58-.309.777-.412.299.08.908.239 1.207.313-.407-.758-1.109-1.207-1.918-1.375-.393-.224-.767-.453-1.128-.673m-247.92.224c.005.365.014 1.104.019 1.474.51.487 1.02.987 1.548 1.492.426-.398.875-.795 1.329-1.188-.856-.772-1.675-1.707-2.896-1.778m251.022.15c-.491.575.5 1.399.987.791.454-.594-.538-1.385-.987-.791m-238.55.973c-.243.636-.028.889.641.749.22-.651.005-.903-.641-.749m-314.142 6.311c.894-.786.613-1.956.267-2.929-1.568-.257-.431 2.101-.267 2.929m4.07-2.54c.173.739.346 1.478.524 2.227.674.056 1.352.117 2.049.182.225-.936.473-1.871.734-2.798-1.099.188-2.208.3-3.307.389m544.987-.112c.201.487.51.908.936 1.263-.014.253-.047.758-.061 1.006.894-.253 1.829-.267 2.756-.037-.449-.73-.88-1.46-1.296-2.194-.8-.052-1.558-.151-2.335-.038m3.883-.211c-.716 1.404 1.539.042 0 0m-254.386 1.333c.398 1.029 1.137 1.853 2.073 2.451.028-.416.089-1.244.117-1.656-.426-.454-.842-.908-1.23-1.361-.333.188-.656.375-.96.566m12.459-.056c-.154 1.099 1.062 1.754 1.736 2.451.173-.271.515-.809.683-1.076-.773-.514-1.348-2.338-2.419-1.375m-18.938 0c.543.833 1.132 1.633 1.726 2.442.295-.36.594-.73.894-1.104-.356-.515-.749-.982-1.109-1.46-.379.029-1.137.094-1.511.122m12.617-.037c.515.894 1.123 1.736 1.782 2.54.281-.356.557-.72.833-1.095-.393-.524-.8-1.006-1.188-1.506-.355.014-1.071.047-1.427.061m-306.142 5.923c.182.154.538.463.72.618.66-1.418 1.404-2.905.814-4.501-.777 1.179-1.113 2.554-1.534 3.883m6.053-3.191c-.169.8-.318 1.609-.501 2.414.168.44.351.88.543 1.324 1.071-.271 2.18-.327 3.284-.178-.256-1.753.68-3.854-3.326-3.56m544.693.131c-.047.29-.14.875-.183 1.165 1.095.519 2.292.678 3.518.58-.744-.674-1.544-1.263-2.33-1.853-.252.029-.753.085-1.005.108m3.349-.061c-.407.585.561 1.389 1.067.842.379-.598-.603-1.389-1.067-.842m-550.662 3.902c.912-1.067.847-2.489.571-3.775-.351 1.225-.5 2.502-.571 3.775m293.572-1.221c.36.716.73 1.418 1.137 2.124.454-.225.945-.444 1.427-.674-.8-.575-1.408-1.815-2.564-1.45m12.861-.547c-.07.36-.215 1.076-.285 1.436.585.599 1.249 1.104 2.124 1.244-.347-1.066-.777-2.161-1.839-2.68m-19.172.435c.444 1.011 1.099 2.04 2.283 2.278-.327-1.207-.744-2.545-2.283-2.278m12.683.243c.458.692.632 1.885 1.68 1.927-.009-.674-.028-1.338-.056-2.002-.407.019-1.221.056-1.624.075m12.449 0c.356.87.777 1.768 1.778 2.054-.182-.716-.365-1.422-.538-2.129-.309.019-.931.056-1.24.075m-316.832 7.434h.889c-.037-2.002.515-3.925 1.067-5.825-2.303.768-1.863 3.888-1.956 5.825m3.901-5.609c-.332 2.058-1.511 3.911-1.137 6.077.791-.182 1.581-.379 2.391-.561.028-1.801.037-3.602.037-5.399-.322-.029-.968-.085-1.291-.117m3.673.135c-.328.309-.641.618-.945.931-.131 1.932-.056 3.911 1.025 5.595l-.098-.912c1.319.126 2.671.089 3.991-.14-.089-1.923-.215-3.864-.781-5.712-1.054.28-2.125.603-3.192.238m543.986-.089c-.042.655.632.945 1.01 1.389-.117.299-.355.894-.472 1.193.753-.552 1.483-1.146 2.218-1.75-.122-.215-.37-.641-.491-.851-.777-.013-1.535-.027-2.265.019m4.005.08c.229.285.229.285 0 0m1.651 4.496c.294 50.499-.435 55.696-.435 55.696.477.281.968.557 1.483.833-.365.22-.711.444-1.039.674-.14.688-.243 1.385-.342 2.082-.505.023-.992.051-1.455.08.117-.421.253-.837.407-1.249-.21-.454-.402-.903-.575-1.347.239.056.716.173.95.229-.009-.589-.005-1.179.019-1.768-1.422.342-2.872.482-4.276.07-.365 1.375-.505 2.896.444 4.084-.201.037-.608.108-.809.145.089.215.276.646.365.861 8.39-.445 8.035.498 9.89-.561-.03-1-.792-31.727-1.076-34.381 1.104-.8 2.405-2.049 3.818-1.113 4.151-3.253 1.851-3.616 3.233-6.526-3.542-.972-5.773 1.184-6.503-.922.421-.996 1.301-1.642 2.18-2.222.042-.257.131-.781.173-1.043h1.492c0 .337 0 1.015.005 1.352 1.081.056 2.372.664 3.27-.281-.22-2.044.529-4.412-.833-6.175-1.867.426-3.799.655-5.694.379-.734-1.834 2.475-2.611 1.614-4.641 1.17.066 2.363.117 3.56.066.547.716.14 1.502-.089 2.255.215.009.641.023.856.033.276-2.288 1.347-4.917-.276-6.947-3.433.655-6.965-.632-10.357.337m-5.843.87c1.146.304 2.325.519 3.537.468.394-1.614-3.332-1.748-3.537-.468m4.103-.763c.238.286.238.286 0 0m-553.535 2.704c-.023 1.179-.182 2.358-.538 3.485.697.126 1.38.257 2.101.412-.505.936-1.436 1.343-2.437 1.488-.379 1.567-.608 3.163-.814 4.758.875.136 1.759.253 2.643.444-.487.758-1.226 1.305-1.843 1.946-.215-.304-.646-.917-.861-1.221-.403 2.058-1.891 1.813 2.213 5.708 1.31-1.848 3.078-3.953 2.386-6.377 1.104-1.516.463-3.429.786-5.142-.646-.22-1.315-.435-1.937-.632.145-1.109 1.076-1.675 1.956-2.189-.182-.987-.37-1.974-.547-2.952-.14.014-.421.042-.557.056-.876-.261-1.746-.153-2.551.216m5.301-.509c-.85 5.212-1.411 14.166 2.466 17.315.197.851.407 1.708.599 2.568-.557-.402-1.085-.823-1.614-1.235-.313-1.492-1.025-2.868-1.998-4.028-.192 1.871-.295 3.808.262 5.637-.126.444-.239.894-.346 1.347 1.31 0 2.625-.014 3.949-.023-.047-.225-.136-.674-.182-.903.566.033 1.142.061 1.731.094.173.239.51.72.678.959.851-.15 1.722-.313 2.582-.491.112.126.341.379.458.501-.43.599-.842 1.212-1.212 1.843.426-.056 1.268-.173 1.689-.229.37-2.83-1.544-5.216-1.404-8.009-.561.243-1.104.501-1.637.758.823-3.932.106-2.04.791-4.323-1.24.047-2.62-.178-3.565.819-.285-.519-.552-1.034-.795-1.553 1.375-.15 2.76-.201 4.159-.164-.325-2.384-.066-6.43-1.623-5.722-1.151.164-2.344.823-3.42.075-.416.15-.819.309-1.207.468-.028-.342-.089-1.025-.117-1.371 1.75-.253 3.528-.337 5.296-.187-.14-1.38-.36-2.746-.702-4.089-1.615-.217-3.229-.048-4.838-.057m544.982.051c-.182 1.558 1.455-.519 0 0m-553.015 4.505c.931-1.273.889-2.873.912-4.37-1.258 1.006-1.852 2.957-.912 4.37m552.253-3.176c.224.669.575 1.324 1.048 1.876-.197.346-.37.702-.519 1.062.323-.009.968-.028 1.296-.037.318-.566.688-1.123 1.053-1.675-.96-.436-1.91-.871-2.878-1.226m3.546.94c.15.749 1.549.604 1.268-.248-.169-.865-1.554-.636-1.268.248m-556.744 2.774c-.295 1.82-.636 3.64-.538 5.497.192-.173.58-.519.772-.692.374-1.478.758-2.98.767-4.515-.252-.07-.753-.215-1.001-.29m553.75.576c-.15.538-.276 1.085-.374 1.633.168 0 .505 0 .674.005.763.299 1.539.393 2.395.351-.244-1.39-1.605-1.596-2.695-1.989m3.443.177c-.87.145-.426 1.474.356 1.263.87-.172.449-1.515-.356-1.263m-3.265 7.112c.594-.257 1.198-.519 1.824-.777.276.257.828.772 1.104 1.029.285-1.717-2.1-1.918-3.013-2.933-.463.851-.032 1.792.085 2.681m-.81 1.567c.276.72.716 1.371 1.216 1.97.814-.028 1.633-.051 2.479-.084-.715-1.381-2.198-1.98-3.695-1.886m3.687.07c-.468.604.501 1.633 1.146 1.174.608-.669-.477-1.74-1.146-1.174m-551.78 4.206c.468.837 1.23 1.45 1.899 2.138-.028-2.002-.084-4.005-.066-6.007-.626 1.263-2.133 2.334-1.833 3.869m-8.239 2.938c.281-.164.842-.496 1.123-.66.08-1.974 1.263-3.813.777-5.806-.773 2.106-1.858 4.178-1.9 6.466m3.504-6.4c.103 1.301.37 2.582.599 3.869.912.702 1.848 1.394 2.578 2.306.865.023 1.736.037 2.62.061-.538-.772-1.081-1.53-1.642-2.269-.346.15-1.034.444-1.375.594.168-.444.355-.889.552-1.324-1.788-.407-1.437-3.101-3.332-3.237m553.591 2.1c.07 1.558 1.361-.739 0 0m2.465.019c.047 1.558 1.371-.72 0 0m-556.379 2.073c-.374.482-.285 1.455.384 1.647.879-.103.369-1.914-.384-1.647m553.203-.262c.538.706 1.38 1.404.8 2.358 1.057-.103 2.133-.168 3.228-.206-.524-.108-1.029-.196-1.516-.271.098-.229.304-.683.407-.912-.131-.239-.388-.706-.519-.945-.814-.01-1.624-.02-2.4-.024m4.028-.019c-.173.66.07.884.73.674.135-.669-.108-.894-.73-.674m-561.034 5.586c.781.861 1.118-.884 1.661-1.273-.131-.435-.393-1.305-.524-1.74-.688.856-1.006 1.942-1.137 3.013m2.25-1.825c-.005.632.009 1.268.028 1.904 1.768.066 3.537.019 5.31.145.365-.201.744-.393 1.132-.585.412.318.847.641 1.287.959.332-.187.992-.557 1.324-.744-.178-.575-.313-1.137-.473-1.698-1.142.649-3.016.131-4.309.028-.43.36-.285.908-.271 1.394-.641-.014-1.258-.019-1.867-.009-.061-.496.51-1.268-.075-1.539-.631-.631-1.417-.004-2.086.145m16.005-.341c-.323.51-.58 1.043-.912 1.539-.327-1.637-2.147-1.366-3.247-.791-.295-.136-.571-.271-.833-.407-.426.735-1.441 1.38-.819 2.325.365-.122 1.099-.374 1.464-.501 1.441.552 3.701.575 4.472-1.015.351.197 1.057.594 1.408.791-.504-.659-1.023-1.3-1.533-1.941m539.003.44c-.023.332-.07.987-.094 1.319 1.099.594 2.325.8 3.542.351-.758-.641-1.553-1.216-2.344-1.778-.276.023-.828.08-1.104.108m2.948-.094c.276.73.786 1.305 1.53 1.623.005-.384.014-1.146.019-1.525-.385-.028-1.161-.075-1.549-.098m7.878 2.419c-.023.575-.075 1.146-.084 1.722.337.421.697.847 1.062 1.277.664.313 1.324.66 1.974 1.057.276.023.819.07 1.09.098-.005-1.558 0-3.111.014-4.664-.964-.051-1.913-.103-2.84-.173-.425.224-.833.454-1.216.683m-10.667.388c.515 1.609 2.639.351 3.869.711-1.123-.795-2.596-.547-3.869-.711m-.439 1.764c.655.889 1.193 1.853.627 2.952 1.104-.51 2.278-.36 3.425-.019-.234-.646-.449-1.282-.65-1.918.416.159.851.318 1.301.487.042-.398.122-1.198.164-1.6-.533.29-1.048.589-1.534.898-1.116-.309-2.215-.613-3.333-.8m-290.321 2.026c-.262.758-.009 1.029.763.8.229-.763-.024-1.034-.763-.8m290.419 3.864c.889.267 1.829.851 2.821.655.599-.402 1.216-.809 1.918-1.076-.014-.281-.033-.842-.042-1.123-.328-.014-.978-.033-1.305-.047-.009.257-.023.763-.028 1.02-.229-.154-.683-.463-.912-.618-.426.164-.828.332-1.216.501-.051-.29-.159-.88-.211-1.174-.646.44-.857 1.155-1.025 1.862m11.878-.108c-1.025.566-1.38 1.647-.351 2.447-.061 1.048-.103 2.101-.14 3.153 1.193.262 2.419.248 3.64.033.009-1.885.061-3.766-.037-5.647-1.053-.033-2.092-.117-3.112.014m-11.097 1.348c-.005.655.295.791.903.416-.033-.664-.332-.8-.903-.416m1.843.042c.155 1.553 1.32-.81 0 0m1.624 1.417c-1.132.744-2.498.505-3.747.444-.112.159-.342.482-.458.641 1.188.112.992.908.566 1.726.762-.037 1.539-.066 2.344-.084.285.089.861.262 1.151.351-.458-.444-.931-.87-1.38-1.287.023-.262.07-.795.089-1.057.669.206 1.357.421 2.058.622-.235-.457-.427-.907-.623-1.356m-.805 4.459c.014.72.744 1.109 1.174 1.633-.019-.66-.028-1.31-.023-1.956-.29.079-.866.243-1.151.323m-3.396.07c.037.908.037 1.829.211 2.737.337.646 1.137.136 1.726.281.767-.019 2.208.561 2.358-.618-.566-.72-1.249-1.324-1.895-1.932-.828-.108-1.619-.286-2.4-.468m.018 3.822c-.07.706.454 1.165.908 1.642.014.262.052.791.066 1.053 1.043.196 2.091.458 3.139.739-.243-.982-.776-2.208.725-2.386-.36-.384-.641-.865-1.076-1.113-.182.215-.547.65-.73.866-1.02-.272-2.021-.59-3.032-.801m.038 5.17c.313.108.936.323 1.244.43-.295.613-.622 1.202-.907 1.806 1.165.042 2.358.131 3.504.468.356-.674.117-1.371-.103-2.035.674-.234 1.118-.664.842-1.418-1.507.318-3.27-.084-4.58.749m-416.262 17.913c-.178.187-.529.557-.706.739.234.346.706 1.029.94 1.375.234-.547.473-1.09.725-1.633-.239-.116-.721-.359-.959-.481m-.613 9.801c.033.917.454 1.694 1.38 1.993.005-.725.019-1.446.037-2.166-.355.042-1.062.127-1.417.173m-206.76 3.5c.389 12.976-2.104 44.925.777 47.144 1.039-2.872.552-16.199.473-17.712.603.65 1.17 1.357 1.811 1.993 1.029.342 1.464-1.011 1.039-1.759-5.005-8.663-1.358 4.211-3.195-28.964-.232-.174-.681-.524-.905-.702m291.041 13.24c-.047.683-.075 1.366-.094 2.058 1.6.211 3.256.112 4.819.622 2.604-.347 2.415 1.434 3.284-2.615-2.671-.136-5.343-.047-8.009-.065m-83.453 22.287c.384-.744.239-1.745-.094-2.48-.556.375-.613 2.186.094 2.48m-909.45 9.881c1.404-.154.973-1.544 1.006-2.517-1.034.454-.894 1.581-1.006 2.517m908.669.243c.267.617.538 1.24.814 1.867.117-1.563.126-3.139.047-4.702-1.31.388-.791 1.825-.861 2.835m.004 10.143c-.084 1.067.36 2.044.8 2.989.164-1.006.313-2.012.477-3.013-.225-1.16-.37-2.335-.515-3.495-1.038.899-.738 2.303-.762 3.519m-911.186-.95c-.201.646.023.87.683.669.202-.664-.028-.884-.683-.669m911.294 7.626c-.056 2.503-.739 5.338.678 7.584.468-2.517.29-5.081-.052-7.593-.158.004-.472.009-.626.009m-.094 8.019c-.108 2.76.028 5.525-.164 8.281-.281 1.796-1.128 3.761.094 5.418-.079 2.437-.463 4.856-.627 7.294-.019 2.676.426 5.343.327 8.023-.341 2.049-.66 4.239.211 6.213-.323 1.754-.458 3.542-.023 5.296-.473 3.022-.518 4.207.084 5.665-.281 1.525-.472 3.074-.126 4.618.36 1.474-.407 2.929-.066 4.402-.309 2.503.122 5.034.327 7.537.182-.136.552-.412.735-.547.295-2.508.15-5.057-.145-7.556.416-2.235.423-18.336.023-19.56.201-.683.426-1.357.65-2.03-.303-1.427-.076-11.787-.164-12.173.435-2.199.145-4.407-.225-6.582.44-4.103.636-8.248-.126-12.323.165-.807-.237-1.443-.785-1.976m-701.216 4.126c.262.271.262.271 0 0m712.295 2.119c.15.36.318.725.501 1.099-.466 1.171-.149 1.686-.379 3.411.388.458 1.623.842.917 1.614-1.118 1.946.346 4.117-.276 6.157.543 1.633-.243 3.209-.674 4.763 1.933 3.864.363 7.187.009 9.46 1.759.552 1.109 2.685-.117 3.443.206.519.524.968.945 1.366-.285.463-.613.908-.879 1.38.311 3.288 1.545-.727.243 9.104.218 1.004 1.811 6.634.08 8.627.519.767 1.081 1.502 1.647 2.26 1.31-4.234.197-8.692.688-12.978-.412-1.881-.458-3.878.042-5.74.066-2.816-.631-5.619-.15-8.43-.458-2.685.393-5.361-.014-8.047.075-.234.22-.692.295-.926-.968-2.601.103-5.268-.108-7.925.575-3.27-.987-6.32-1.614-9.455-.291.204-.866.611-1.156.817m-377.853 8.735c-.094.716-.168 1.436-.22 2.166-.435-.136-.861-.267-1.282-.388-.023 1.45.061 2.957-.683 4.276.697-.173 1.399-.342 2.105-.505.005.861.019 1.722.037 2.592-.477.178-.945.365-1.404.552-.187-.744.14-1.754-.594-2.232-.73-.281-1.53-.005-2.264-.009.398.346.814.678 1.329.884 1.735 1.7.814 3.501.617 6.232.538-.842 1.123-1.651 1.82-2.372.847 1.441-.033 2.802-1.258 3.621-.496 2.18-.636 4.416-.458 6.648.412-.379.819-.772 1.24-1.151.398.187.8.379 1.212.575 1.147-4.192 1.192-1.673.487-6.671.098-.763.192-1.52.29-2.269-.108-.15-.327-.454-.44-.603.52-3.131.85-8.862-.534-11.346m-485.586 18.676c.281.252.281.252 0 0m10.802.87c.272.262.272.262 0 0m-21.136 8.912c-.712 1.413 1.543.07 0 0m2012.72 3.865c-.112.342-.342 1.029-.454 1.371.257.571.529 1.151.814 1.74-.229.136-.692.407-.922.543.028 1.315-.098 3.106 1.216 3.883.711 1.998.571 4.122.159 6.161 1.496 1.852 10.421.664 15.621 1.31.954-.271 1.951-.304 2.84.29-.033-.253-.103-.758-.136-1.011 2.578.379 5.184.571 7.808.374 0 0-16.64-8.659-16.641-8.66-.168-.168-.514-.501-.688-.669-1.972-.818-7.484-4.087-9.617-5.332m54.175 6.479c.258.253.258.253 0 0m-77.099 7.864c.239.276.239.276 0 0m-20.73.52c-.767 1.403 1.53.07 0 0m23.041 1.366c.248.262.248.262 0 0m25.296-.066c.038 1.554 1.394-.706 0 0m4.623.061c.323.758 1.787.458 2.503.197-.478-.604-1.844-.52-2.503-.197m-1159.322 4.697c-.084 1.516-.089 3.041.023 4.561.416-1.506 1.502-3.326-.023-4.561m1211.279 8.983c-.431.575-.323.926.318 1.062.37-.585.262-.936-.318-1.062m-1210.9 4.444c-.084-.842-.206-1.67-.36-2.484-.305.856-.468 1.824.36 2.484m.575 12.276c-.332 3.56.182 7.116 1.001 10.578.196-.126.594-.379.791-.505-.012-1.001.182-9.019-1.792-10.073m1142.489.421c.262.248.262.248 0 0m-1142.461 11.308c-.253.772-.005 1.043.753.814.23-.786-.018-1.057-.753-.814m1154.166 4.196c.243.267.243.267 0 0m-1154.25 7.504c-.229 2.451.791 4.763 1.062 7.177.543-.847.889-1.801.552-2.793-.426-1.464.014-3.602-1.614-4.384m901.23.094c-.098 1.165-.094 2.339-.084 3.513.15-.145.454-.43.604-.575-.169-.987-.309-1.974-.52-2.938m-901.155 8.402c-.328 2.685-.257 5.502.959 7.981.215-.379.65-1.128.87-1.502-.346-1.778-.978-3.499-1.048-5.319-.014-.542-.276-.93-.781-1.16m.004 11.163c-.37 2.367.103 4.734.959 6.952.22-.023.655-.07.875-.098-.035-1.943-.799-6.089-1.834-6.854m1006.845 7.518c.225.281.225.281 0 0m-8.936.454c.234.276.234.276 0 0m-997.895 1.67c-.243 2.372-.304 4.865.838 7.041.21-.131.632-.398.847-.533-.459-2.195-.44-4.557-1.685-6.508m-.018 11.261c-.094 1.142-.098 2.297-.051 3.453.44 1.029.814 2.096 1.315 3.116-.113-2.162.237-4.838-1.264-6.569m-.089 10.545c-.126 1.927-.299 4.042 1.113 5.6.402-1.595-.084-3.186-.253-4.763-.215-.21-.645-.627-.86-.837m.295 10.774c-.318 1.329.033 2.653.309 3.963.164.07.491.215.655.285-.015-1.474-.328-2.929-.964-4.248m-.314 10.264c-.098 1.324.028 2.685.833 3.799.047-.805.098-1.595.136-2.381-.337-.477-.66-.95-.969-1.418z"/></svg>