<?xml version="1.0" encoding="utf-8"?>
<svg version="1.1" id="Layer_1" xmlns="http://www.w3.org/2000/svg" xmlns:xlink="http://www.w3.org/1999/xlink" x="0px" y="0px"
	 viewBox="0 0 2590.051 781.78" enable-background="new 0 0 2590.051 781.78" xml:space="preserve">
<path d="M1021.912,32.195c0.487-1.291,1.057-2.55,1.698-3.775c0.547,0.837,1.095,1.684,1.656,2.522
	c-0.346-0.047-1.043-0.136-1.389-0.182c2.29,4.465,1.547-0.526,1.68,17.123c-0.254,2.799,2.209,1.976,1.062,7.499
	c0.206,2.269,0.398,4.543,0.318,6.826c0.739,0.337,1.455,0.683,2.218,1.039c-0.884,0.271-1.787,0.491-2.667,0.711
	c0.206,3.018-0.618,6.25,0.744,9.085c-0.108,0.842-0.098,1.694,0.028,2.54c-0.22,0.426-0.421,0.856-0.613,1.287
	c1.491,12.25-3.438,44.885,14.049,55.018c1.053,1.338,2.325,2.582,4.107,2.816c-0.182,0.519-0.351,1.048-0.5,1.572
	c0.053,19.342-0.823,15.759,2.283,18.292c2.756,1.862,5.156,4.182,7.939,6.002c0.662,5.89,0.154,16.907,0.005,17.927
	c3.602,2.807,7.018,5.867,10.784,8.458c0.04,15.911,0.103,15.987-0.388,17.82c0.711,0.674,1.417,1.352,2.119,2.049
	c0.229,0.042,0.688,0.122,0.912,0.159c3.083,2.966,6.218,5.885,9.478,8.65c0.023,0.402,0.07,0.805,0.131,1.216
	c0.566,0.463,1.165,0.917,1.666,1.478c-0.566,4.709-0.333,114.305-0.267,116.772c2.165,2.348,1.307,9.021,0.847,12.187
	c-0.36,2.423,0.776,4.805,0.229,7.214c-0.255,1.504-0.879,17.853-0.477,18.363c-0.079,0.884-0.173,1.759-0.234,2.648
	c1.651-1.534,4.028-1.062,6.058-1.595c0.164,3.454,1.068,22.875-0.304,28.487c0.983,3.643-0.851,145.805,0.416,151.659
	c5.245,0.332,10.503-0.08,15.747,0.145c1.506-1.45,1.095-4.019,1.731-5.937c0.734-2.503-0.182-4.95-0.767-7.359
	c0.14-0.51,1.357-0.88,0.823-1.492c-1.6-2.578-3.649-5.23-3.12-8.468c1.432,0.641,2.765,1.483,3.995,2.475
	c0.501,0.019,1.02,0.047,1.548,0.08c0.243-0.861,0.487-1.717,0.716-2.573c2.278-2.278,4.884-4.262,6.919-6.77
	c0.5-1.787,1.001-3.584,1.539-5.361c0.159-6.582-0.079-13.179,0.173-19.766c0.421,0.351,0.847,0.711,1.286,1.081
	c0.028-1.085,0.168-2.194,0.884-3.06c0.225,1.623,0.36,3.265,0.744,4.87c-1.278,3.493,0.223,12.868-0.449,18.466
	c0.173,3.777-1.985,2.605,7.326,10.564c0.357,2.967,0.369,2.073,2.096,2.606c1.24-1.071,2.634-1.946,4.122-2.639
	c0.376,5.853-1.948,5.693-4.332,10.713c0.908,0.323,1.801,0.332,2.452-0.519c0.201-0.051,0.604-0.159,0.809-0.215
	c0.196-0.22,0.585-0.655,0.781-0.87c0.313-0.009,0.936-0.028,1.249-0.037c-1.585,7.427-1.575,4.236-3.499,7.827
	c-1.385,1.946,0.154,4.248,0.617,6.26c1.589,0.938,15.223,0.289,16.693,0.112c0.379-11.832,0.042-23.677,0.182-35.513
	c0.552-0.341,1.127-0.678,1.708-1.01c-0.26-4.094-0.58-74.856,0.243-77.68c0.365-0.033,1.085-0.094,1.446-0.122
	c-0.056-3.04-0.437-94.893,0.421-99.106c-0.65-0.197-1.301-0.388-1.923-0.575c-0.005-4.894-0.019-9.792,0.005-14.685
	c0.533-0.271,1.137-0.491,1.67-0.823c0.733-7.656-1.567-13.368,0.646-15.906c3.135,1.099,6.508,0.388,9.755,0.749
	c-0.359-1.728-1.076-8.158,0.487-9.38c6.349,0.888,16.916-0.213,29.497,0.982c-0.471-11.413-0.054-43.105-0.061-49.305
	c-0.837-2.508-2.372-4.772-4.084-6.774c-0.117-3.345-0.3-6.985,1.586-9.927c0.215,0.58,0.44,1.165,0.683,1.754
	c3.902,0.005,7.804-0.009,11.715,0.009c0.005-0.351,0.014-1.053,0.019-1.404c0.561-0.393,1.142-0.781,1.736-1.16
	c0.098,0.94,0.178,1.895,0.388,2.83c1.132,0.164,2.288,0.126,3.448,0.145c0.089-4.117,0.037-8.239,0.042-12.356
	c-0.655-0.561-1.291-1.132-1.923-1.694c-0.037-1.609,0.037-3.265,0.936-4.664c0.407,0.07,1.216,0.206,1.619,0.276
	c-0.009-0.271-0.033-0.814-0.042-1.085c0.566-0.159,1.165-0.309,1.764-0.463c-0.014,0.585-0.009,1.174,0.014,1.768
	c2.344,0.014,4.697,0.028,7.055-0.023c-1.23-1.296-1.684-2.989-1.539-4.744c1.16,0.108,2.344,0.239,3.518,0.435
	c-0.012-3.884,23.212-41.622,24.926-43.584c0.726,1,23.122,37.196,24.426,40.529c1.053-0.356,2.466-1.68,3.443-0.547
	c0.365,1.361,0.089,2.929-0.739,4.075c-0.075,1.277-0.182,2.55-0.243,3.827c2.381,0.08,4.772,0.051,7.167,0.047
	c0.365-0.346,0.795-0.678,1.216-0.997c0.543,1.16,1.834,0.992,2.905,1.142c-0.421,1.797-0.758,3.724-2.152,5.057
	c-0.529,3.841-0.215,7.729-0.299,11.593c0.37,0.187,0.758,0.374,1.165,0.571c-0.033,0.276-0.094,0.833-0.122,1.109
	c14.132-1.038,14.122,0.65,17.927-0.926c0.388,0.342,0.753,0.669,1.198,0.996c0.234,3.92-1.511,7.715-4.342,10.372
	c-0.239,0.805-0.468,1.605-0.683,2.414c1.034,5.258-1.034,10.606,0.374,15.832c0.169,0.117,0.496,0.351,0.66,0.468
	c4.182-0.842,8.486-0.117,12.725-0.435c0.033-1.371,0.07-2.737,0.239-4.098c0.617,0.876,0.297,0.287,0.795,9.113
	c-0.51-0.421-0.996-0.847-1.469-1.273c0.047,0.763,0.117,1.535,0.201,2.311c0.622-0.009,1.244-0.019,1.89-0.014
	c-0.192-1.628-0.636-3.425,0.627-4.744c0.154,1.464,0.248,2.943,0.454,4.412c-0.159,0.931-0.304,1.862-0.412,2.802
	c-0.543-0.201-1.062-0.398-1.567-0.594c-0.313,0.585-0.608,1.179-0.884,1.773c22.979,0.178,5.057-0.588,24.412,0.529
	c0.487-0.501,0.912-1.071,1.38-1.609c0.313-21.249-2.479-18.975,1.132-25.478c2.246,0.182,4.5,0.608,6.77,0.365
	c-0.37-2.77-0.36-5.586-0.052-8.36c0.566,0.253,1.151,0.505,1.75,0.758c-0.037,1.343-0.023,2.77-0.917,3.869
	c0.21,0.089,0.632,0.276,0.842,0.37c-0.014,1.179-0.028,2.358-0.023,3.537c1.871-0.028,3.752,0,5.637,0.037
	c0.543-1.287,0.388-2.615-0.346-3.785c0.557-1.446,1.043-2.915,1.474-4.402c0.983-0.309,2.213-1.792,2.985-0.309
	c5.198,0.285,10.414,0.042,15.602,0.604c0.131-0.585,0.285-1.165,0.463-1.745c1.81,0.29,3.658,0.309,5.483,0.019
	c0.168,0.552,0.351,1.109,0.547,1.67c2.545-0.159,5.146,0.187,7.658-0.416c0.276-0.982,0.571-1.965,0.983-2.905
	c0.585,0.201,0.805,0.861,1.23,1.301c-0.515,0.473-1.011,0.95-1.483,1.432c0.795,0.182,1.623,0.346,2.461,0.463
	c-0.065-0.271-0.196-0.809-0.267-1.076c0.58-1.221,0.94-2.559,0.29-3.832c0.285-0.594,0.51-1.193,0.847-1.773
	c1.521,1.806,0.009,4.145,0.515,6.218c1.89,1.146,4.281,0.103,6.381,0.173c0.781,0.465,0.468,1.345,0.702,6.11
	c0.351-1.001,0.716-2.002,1.099-2.999c0.445,0.239,0.908,0.482,1.39,0.735c-0.515,1.179-0.931,2.395-1.352,3.607
	c-0.444-0.178-0.87-0.356-1.282-0.529c0.005,0.356,0.005,1.062,0.005,1.413c2.975-0.047,5.979,0.215,8.936-0.267
	c0.239,0.089,0.711,0.267,0.95,0.356c-0.305,22.708,0.392,21.495-0.566,26.531c1.212,0.161,67.149,0.021,68.356,0.014
	c4.69-0.067,5.363,3.704,9.38-0.332c1.221,0.234,2.423,0.589,3.672,0.772c0.103-0.122,0.309-0.365,0.412-0.487
	c0.003-0.878-0.304-106.27-0.697-107.055c1.638-3.732-0.108-17.735,0.571-26.564c0.033-0.777-0.664-1.301-1.039-1.876
	c0.487-2.333,0.469-11.221-0.145-13.937c-0.557-0.243-1.099-0.491-1.619-0.739c0.051-0.646,0.126-1.287,0.215-1.927
	c0.594,0.061,1.202,0.122,1.834,0.182c-0.047-1.039-0.075-2.082-0.089-3.12c-0.725-0.954-1.446-1.909-2.203-2.821
	c-0.019-0.678-0.028-1.352-0.005-2.021c0.678,0.182,1.343,0.365,2.058,0.543c-0.234-0.253-0.706-0.753-0.94-1.001
	c0.089-0.379,0.197-0.753,0.328-1.127c-2.096,0.084-4.178,0.552-6.264,0.299c0.164-0.692,0.384-1.38,0.589-2.068
	c-0.206-0.589-0.398-1.179-0.561-1.764c-0.482-0.225-0.94-0.444-1.385-0.664c0.262-2.143,0.571-4.276,0.669-6.433
	c0.43-0.571,1.16-1.053,1.193-1.853c1.91-19.154,3.279-14.084,0.005-17.249c0.547-0.37,1.361-0.51,1.782-1.095
	c-0.009-0.889-0.159-1.768-0.164-2.653c0.435-0.561,1.202-0.491,1.862-0.664c0.692,0.758,1.436,1.483,2.208,2.185
	c-0.196,0.407-0.37,0.814-0.529,1.226c0.351,0.005,1.048,0.023,1.394,0.028c-0.084-0.543-0.136-1.076-0.197-1.614
	c0.604-0.066,1.221-0.126,1.857-0.182c-0.342,0.477-0.674,0.954-0.992,1.432c0.678,0.529,1.207,1.193,1.651,1.951
	c-0.969,0.009-1.913-0.009-2.849-0.023c0.678,3.158,2.274,5.998,3.883,8.767c0.309,0.014,0.922,0.042,1.226,0.056
	c0.482,0.276,0.987,0.547,1.506,0.819c-0.487,0.533-0.954,1.062-1.413,1.591c-0.014,1.796,0.477,3.682,2.124,4.669
	c-0.379,1.109-0.73,2.292-0.131,3.396c0.813-1,28.089-35.674,33.488-39.869c-0.014,0.632-0.014,1.268,0.005,1.904
	c-0.861,0.515-1.693,1.053-2.503,1.605c0.388,0.281,0.791,0.561,1.216,0.837c-0.332,0.515-0.65,1.029-0.945,1.549
	c-0.603,0.014-1.188,0.028-1.754,0.042c-0.168,0.239-0.51,0.711-0.678,0.95c0.314-0.037,0.945-0.108,1.263-0.145
	c0.599,0.327,1.216,0.65,1.857,0.968c-0.459,0.412-0.922,0.819-1.357,1.221c-0.07-0.267-0.211-0.8-0.285-1.067
	c-0.632-0.173-1.221-0.356-1.806-0.547c0.182,0.791,0.341,1.586,0.543,2.386c0.243-0.164,0.73-0.491,0.978-0.655
	c-0.173,0.716-0.309,1.436-0.458,2.152c-0.908,0.618-1.815,1.221-2.732,1.787c0.435-0.781,0.931-1.544,1.455-2.288
	c0.079-0.229,0.239-0.683,0.318-0.912c-1.17,0.777-2.522,1.062-3.874,1.24c0.426,0.29,1.273,0.865,1.698,1.151
	c-0.856,0.037-1.67-0.042-2.48-0.168c0.052,0.117,0.154,0.351,0.211,0.468c-0.856,0.608-1.427,1.483-1.965,2.349
	c-0.519,0.332-1.02,0.655-1.455,1.043c0.137,1.828,2.232,1.289-2.559,2.676c0.356,0.501,0.8,1.015,1.184,1.53
	c-1.193,1.085-2.283,2.274-3.242,3.565c-0.683,0.019-1.348,0.033-1.988,0.051c-0.15,0.192-0.449,0.571-0.604,0.758
	c0.365,0.112,1.095,0.337,1.455,0.449c-0.557,1.216-1.441,2.222-2.409,3.116c-0.22-0.239-0.66-0.72-0.875-0.959
	c-1.623,1.577-2.919,3.448-3.93,5.46c0.898-0.585,1.656-1.361,2.274-2.25c0.393-0.173,0.8-0.342,1.23-0.51
	c0.641,1.399-0.604,2.423-1.244,3.523c-0.444,0.267-0.875,0.533-1.286,0.805c0.384,0.271,0.791,0.547,1.212,0.823
	c-2.447,2.938-5.698,5.24-7.565,8.622c0.426,0.636,0.861,1.273,1.305,1.918c-0.865,0.323-1.74,0.632-2.583,0.931
	c0.384,1.773,0.706,3.56,0.819,5.38c0.533-0.388,1.085-0.767,1.661-1.132c0.033,0.805,0.098,1.619,0.164,2.428
	c-0.65,0.412-1.296,0.823-1.927,1.221c-0.388,1.581-0.346,3.214,0.052,4.795c0.571,0.187,1.202,0.356,1.796,0.604
	c-0.108,0.496-0.21,0.987-0.318,1.478c-0.36-0.014-1.09-0.051-1.45-0.07c-0.581,3.767,0.586,12.409-0.917,16.823
	c-0.051,1.796-0.144,23.048,0.052,25.146c4.176,0.743,6.56,0.104,4.491-6.204c2.045-3.158,2.569-1.453,6.564-1.899
	c0.066-2.087,0.267-4.22-0.36-6.246c-2.147,0.005-4.29,0.056-6.423-0.037c0.332-1.095,0.894-2.11,1.843-2.798
	c1.614,0.524,3.336,0.646,5.034,0.43c0.089-1.815-0.098-3.635-0.075-5.45c-0.356-0.342-0.697-0.683-1.015-1.02
	c-1.914,0.412-4.014,0.861-5.792-0.201c0.43-0.749,0.898-1.492,1.361-2.236c1.651-0.005,3.336,0.061,4.94,0.575
	c0.8-1.979,0.693-4.262,0.304-6.316c-1.764-1.46-4.295-0.173-6.367-0.524c0.019-0.374,0.056-1.118,0.075-1.492
	c1.127-0.547,2.311-1.287,3.635-0.917c0.917-0.009,2.11,0.641,2.807-0.262c0.178-1.535,0.042-3.083,0.014-4.618
	c-2.218-0.547-4.51-0.393-6.751-0.267c0.468-1.544,1.039-3.097,2.068-4.365c0.557,0.393,1.076,0.851,1.623,1.301
	c1.029,0.211,2.073,0.435,3.125,0.655c0.356-2.601-0.978-5.268,0.07-7.761c0.075-0.716,0.262-1.404,0.575-2.054
	c0.692,1.315,1.23,2.704,1.74,4.112c0.702-1.806,1.39-3.644,1.441-5.605c0.636-0.351,1.286-0.688,1.96-1.025
	c-0.003,0.419-1.191,139.768-0.819,140.243c0.449,7.078-0.112,14.18,0.122,21.263c0.225,0.865,1.296,1.179,1.937,1.74
	c-0.028,1.418-0.126,2.83-0.267,4.243c-0.206,1.595,0.253,3.167,0.243,4.763c-0.019,13.702-1.072,16.081,0.313,19.818
	c-0.723,4.723-0.308,54.191-0.07,55.396c-0.43,3.027-0.393,6.143,0.641,9.053c0.744,0.005,1.516,0.014,2.297,0.023
	c0.056-11.974-0.136-258.798-0.725-263.106c0.215-0.795,0.421-1.595,0.739-2.367c2.877,0.94,5.942,0.599,8.931,0.674
	c0.168-0.72,0.351-1.441,0.543-2.161c-0.243-0.023-0.735-0.07-0.983-0.094c0.005-0.239,0.005-0.725,0.009-0.968
	c0.374-0.005,1.127-0.019,1.506-0.023c-1.273-4.067-0.027-7.87-0.089-19.747c1.86,0.423,2.002,0.436,4.061,0.646
	c-0.309,0.636-0.599,1.273-0.865,1.913c0.51-0.299,1.436-0.327,1.436-1.146c0.706-2.905,1.053-5.904,0.982-8.894
	c0.002-1.258,0.134-35.343,0.889-36.538c20.376,0.602,16.766,2.22,24.342-7.588c-0.126-0.178-0.384-0.538-0.51-0.716
	c1.081-0.43,2.185-0.861,3.172-1.52c0.725,0.22,1.446,0.458,2.176,0.744c-0.164,0.294-5.594,6.866-6.124,7.336
	c-1.357,0.421-2.779,0.758-3.654,1.965c2.868-0.056,5.726,0.575,8.604,0.14c1.123,0.175,29.488,0.164,30.971,0.173
	c-0.741,26.962,2.208,60.129,0.978,66.311c0.444,0.196,0.908,0.398,1.394,0.599c0.346-0.094,0.711-0.182,1.104-0.271
	c3.991,0.594,8-0.257,11.991-0.014c-0.129,35.656,0.413,323.53,0.505,337.97c11.601,0.581,8.477-1.54,8.402,5.216
	c3.516,5.542,2.784-4.44,2.765,38.241c0.342,0.342,0.702,0.692,1.076,1.048c0.028,0,17.566-0.014,17.637,0
	c-0.014,1.221-0.009,2.442,0,3.668c0.295,0.356,0.613,0.716,0.945,1.085c0.013,1.411-0.325,26.886,0.051,33.305
	c0.566-0.206,1.16-0.407,1.759-0.613c0.43-2.905,0.497-181.237,0.51-181.273c0.557-0.374,1.127-0.758,1.708-1.146
	c0.271-0.037,0.809-0.108,1.076-0.145c1.227-19.458-2.377-13.485,2.868-17.909c-0.019-1.427-0.103-2.849-0.426-4.234
	c1.174-0.833,2.391-1.609,3.673-2.292c-0.201-5.179,0.402-10.419-0.346-15.56c1.132-0.599,2.236-1.282,3.149-2.213
	c-0.374-1.876-1.436-4.851,0.954-5.736c0.463,0.14,0.945,0.281,1.441,0.43c0.883-3.549,0.178-12.989,0.374-16.613
	c3.841-2.542,2.823-1.553,2.451-6.11c1.011-0.819,2.105-1.539,3.345-2.002c0.484-2.319,0.449-11.238-0.164-15.621
	c1.254-0.997,2.447-2.068,3.705-3.069c-0.772-4.197-0.304-8.501-0.445-12.744c1.011-0.861,2.068-1.67,3.205-2.386
	c0.246-4.659-0.299-12.709-0.234-13.113c1.057-0.58,1.946-1.413,2.732-2.334c2.11-1.16,3.654-3.041,5.141-4.894
	c0.543-0.066,1.127-0.126,1.717-0.187c0.613,0.267,1.245,0.533,1.9,0.8c1.053-0.248,2.119-0.458,3.214-0.636
	c1,0.314,3.2,0.911,4.669,0.847c2.508,0.739,5.02-0.295,7.56-0.239c0.281-0.463,0.594-0.922,0.926-1.38
	c2.248,2.027-0.279,1.272,6.592,1.128c0.159,4.678-0.739,9.319-0.449,14.007c1.034-0.538,2.115-1.277,3.345-0.786
	c-0.07,6.465-0.066,12.936-0.014,19.401c0.196-0.019,0.589-0.056,0.786-0.075c-0.178-0.463-0.332-0.922-0.473-1.375
	c0.954-0.22,1.918-0.412,2.915-0.585c-0.061,5.404,0.215,10.812,0,16.21c1.104-0.229,2.213-0.477,3.336-0.73
	c0.192,3.635-0.346,7.294,0.229,10.91c0.828-0.239,1.67-0.473,2.536-0.688c-0.037-0.557-0.047-1.104-0.037-1.651
	c-0.444-0.276-0.87-0.547-1.272-0.809c-0.969-3.118-0.76-2.727,1.951-5.502c1.254,0.978,2.433,2.073,3.312,3.425
	c-0.786,1.146-1.764,2.157-2.479,3.34c-0.435,1.628-0.037,3.326,1.245,4.463c-0.052,2.325,0.384,4.884,2.395,6.358
	c-0.009,0.225-0.028,0.669-0.037,0.889c-1.062,0.678-0.908,1.792-0.374,2.746c0,0.001,1.937,28.154,1.937,28.154
	c0.852,0.103,2.059-0.416,2.615,0.524c0.29,3.06,0.122,6.161-0.36,9.198c0.917,0.009,1.843,0.019,2.798,0.033
	c-0.009,5.45,0.014,10.905-0.019,16.36c0.716-0.243,1.455-0.477,2.208-0.716c0.295,0.089,0.889,0.257,1.184,0.341
	c-0.095,31.287-1.246,43.037,7.064,49.315c0.912,0.332,1.82,0.744,2.704,1.212c-0.706,0.88-1.385,1.764-2.068,2.648
	c-0.618,0.047-1.212,0.103-1.787,0.164c0.075,1.085-0.126,2.339,0.823,3.144c-1.623,3.523-0.515,7.593,0.328,11.191
	c2.203,1.127,4.767,1.422,6.83,2.854c-0.435,1.38-0.473,2.826-0.201,4.248c4.094-0.159,8.225,0.323,12.295-0.328
	c2.938,0.585,5.951,0.243,8.936,0.299c-0.014-0.571,0-1.137,0.033-1.694c1-0.4,1.425-0.605,2.587-0.978
	c-0.108-0.557-0.187-1.109-0.239-1.651c2.203-1.506,4.141-3.382,6.461-4.739c6.751,4.244,6.921,4.404,7.364,6.04
	c0.688,0.37,1.39,0.758,2.091,1.165c-0.055,1-1.146,13.998-0.037,18.718c0.328,0.009,0.978,0.019,1.305,0.028
	c0.201,0.243,0.604,0.734,0.805,0.978c1.609-0.159,3.261-0.421,4.608-1.408c0.398,0.547,0.814,1.095,1.263,1.642
	c0.086,12.155-0.117,30.638,0.192,34.278c10.5-2.335,4.204-4.833,23.481-5.535c2.458-4.22-0.445-2.249,9.455-2.456
	c1.738-7.804,1.513-4.199,7.949-7.336c0.042-0.772,0.056-1.549,0.164-2.302c0.875,0.192,1.988,0.178,2.423,1.184
	c8.537-4.079,37.113-0.624,38.115-0.416c0.211,0.66,0.444,1.319,0.702,1.993c6.975-3.415,7.194-1.356,12.674-2.274
	c0.711,0.388,1.436,0.8,2.166,1.23c-0.421,0.622-0.814,1.258-1.17,1.909c1.127-0.178,2.292-0.295,3.448-0.435
	c0.131,0.898,0.295,1.811,0.486,2.718c0.449-0.468,0.917-0.936,1.39-1.408c0.374,0.44,0.72,0.88,1.165,1.324
	c0.252-1.015,0.346-2.058,0.5-3.092c-0.304-0.43-0.58-0.861-0.828-1.287c1.441-0.206,2.901-0.44,4.36-0.664
	c1.687,1.587,2.183,1.575,2.489,5.661c2.854-0.047,5.712,0.168,8.575,0.019c0.388-0.809,0.819-1.605,1.254-2.395
	c0.454,0.126,0.926,0.267,1.422,0.407c0.005,0.407,0.023,1.226,0.028,1.633c0.318-0.758,0.641-1.516,0.983-2.274
	c0.739-0.206,1.506-0.416,2.283-0.622c0.164,0.842,0.36,1.689,0.58,2.531c0.005-0.374,0.019-1.132,0.023-1.511
	c0.257-0.005,0.781-0.014,1.039-0.019c0.44-0.281,0.898-0.547,1.385-0.805c-0.047,0.884-0.061,1.778-0.075,2.676
	c0.253,0.131,0.753,0.393,1.006,0.524c0.065,1.684,0.14,3.382,0.435,5.057c0.978,0.037,16.173,0.383,17.338,0.388
	c0.304-0.749,0.618-1.492,0.978-2.227c-0.164-0.103-0.487-0.309-0.646-0.412c-0.094-1.544-0.173-3.088-0.197-4.627
	c1.492,0.094,1.123,1.422,1.029,2.48c0.608-0.706,1.352-1.474,2.405-1.109c0.808,1.494,0.094,3.359,0.772,5.895
	c0,0,3.176,0.423,31.757,0.491c0.028,7.242-0.117,14.489,0.094,21.736c0.533-0.454,1.095-0.903,1.67-1.343
	c-0.084-0.192-0.243-0.575-0.323-0.772c0.304,0.023,0.917,0.065,1.226,0.084c0.351,1.577,0.646,3.172,0.968,4.767
	c-0.075-1.525-0.15-3.05-0.131-4.566c0.571-0.089,1.165-0.173,1.782-0.248c-0.096,7.109-0.014,7.776,0.814,8.777
	c2.091-0.014,4.215,0.239,6.297-0.229c-0.463-0.145-1.394-0.444-1.857-0.594c0.009-0.772,0.061-1.534,0.126-2.292
	c0.884-0.131,1.778-0.257,2.709-0.37c0.136,1.179,0.281,2.363,0.426,3.551c9.073,0.206,30.044-0.709,32.052,1.759
	c4.332-0.047,8.673-0.407,13.01-0.079c0.407,0.603,0.852,1.212,1.31,1.825c-0.192,2.035-0.538,4.384,1.296,5.82
	c0.084,1.263,0.187,2.526,0.318,3.799c2.391-0.037,4.8-0.08,7.191,0.248c0.047,6.157,0.281,12.309,0.271,18.47
	c2.676-0.458,5.305-1.207,8.009-1.549c0-0.589,0.023-1.17,0.075-1.74c0.983,0.084,2.068,0.084,2.971,0.65
	c0.636,0.033,1.296,0.07,1.979,0.117c0.473-0.318,0.945-0.632,1.469-0.936c-0.028-0.604-0.028-1.202,0.004-1.792
	c-0.996,0.009-1.979,0.023-2.928,0.037c0.225-0.777,0.487-1.539,0.777-2.297c2.966-2.531,1.633-6.784,2.657-10.101
	c2.508,0.065,5.16-0.36,7.546,0.674c0.496,1.006,0.168,2.204,0.229,3.298c-0.604,0.019-1.183,0.051-1.74,0.084
	c0,0.337,0,1.001,0,1.338c0.748,0.239,1.52,0.491,2.315,0.734c0,0.295,0,0.889,0,1.184c-0.804-0.065-1.581-0.126-2.33-0.187
	c-0.004,2.049,0.005,4.103,0.047,6.157c0.225-0.098,0.669-0.299,0.894-0.398c0.061-0.407,0.178-1.226,0.238-1.633
	c0.538,0.435,1.034,0.866,1.605,1.333c1.829,0.052,3.448-0.805,4.922-1.825c-0.552-0.299-1.114-0.604-1.609-0.894
	c0.023-0.304,0.07-0.917,0.098-1.221c0.903,0.229,1.81,0.468,2.751,0.711c0.009-1.001,0.061-1.993,0.135-2.98
	c0.58-0.697,0.763-1.581,0.978-2.437c-0.379-0.019-1.127-0.052-1.502-0.066c-0.075-0.894-0.136-1.782-0.164-2.667
	c2.274-0.968,4.833-1.488,7.308-1.137c1.375,1.095,0.865,3.106,1.165,4.641c1.273,0.931,2.503,1.941,3.804,2.868
	c0.72-0.047,1.483-0.061,2.25-0.037c0.987-0.823,2.026-1.647,3.345-1.895c0.023-0.276,0.075-0.828,0.098-1.104
	c0.21,0.009,0.632,0.019,0.842,0.028c0.777,1.02,2.625,2.007,3.35,0.304c0.66,0.416,1.193,0.959,1.722,1.577
	c1.174-0.201,2.362-0.557,3.349-1.296c1.585,0.049,15.115-2.487,16.117-2.681c1.16-0.763,2.554-0.777,3.916-0.777
	c0.023-0.313,0.07-0.94,0.098-1.254c0.88-0.047,1.782-0.089,2.713-0.122c0.052-0.646,0.126-1.287,0.234-1.918
	c2.396,0.646,4.865,1.656,7.387,0.922c-0.173-1.712,0.702-3.92-0.917-5.127c-0.023-0.131-0.065-0.398-0.089-0.533
	c1.347-0.646,1.45-2.147,1.544-3.448c0.973-0.094,1.96-0.187,2.976-0.267c0.192-0.178,0.575-0.538,0.772-0.716
	c1.235-0.028,2.755,0.351,3.537-0.95c0.136-0.023,0.407-0.075,0.543-0.098c0.187,0.211,0.566,0.632,0.753,0.842
	c1.708,0.36,3.513,0.075,5.272,0.023c-0.005-0.627,0.023-1.249,0.07-1.867c1.067,0,2.152,0,3.256,0.014
	c0.36-0.608,0.725-1.216,1.118-1.815c0.281-0.014,0.837-0.042,1.118-0.056c-0.023,0.257-0.065,0.767-0.089,1.02
	c0.496-0.225,1.02-0.444,1.567-0.655c0.033-0.632,0.084-1.263,0.168-1.885c-0.131-0.159-0.388-0.487-0.515-0.646
	c0.103-0.992,0.065-1.984-0.21-2.933c-0.594-1.946-0.281-3.986-0.281-5.974c7.649-4.045,9.674-2.773,13.918-2.966
	c2.143,0.126,4.575-0.519,6.447,0.889c0.585,0.012,12.596-0.228,17.502-0.604c3.298,0.22,6.625,0.608,9.946,0.346
	c-0.052-0.393-0.15-1.179-0.197-1.572c0.356,0,1.062,0,1.413,0c-0.037,0.356-0.112,1.071-0.15,1.427l0.557-0.033
	c0.019-0.641,0.061-1.277,0.135-1.904c-0.257-0.014-0.781-0.037-1.043-0.047c0.01-0.295,0.033-0.884,0.042-1.174
	c0.253-0.178,0.753-0.524,1.006-0.697c-0.145-1.857-0.426-3.71-0.253-5.567c-0.136-0.66-0.253-1.319-0.337-1.97
	c5.37-2.562-0.046-1.216,8.417-1.24c-0.267-2.007-0.042-4.023,0.075-6.03c0.72,0.014,1.474,0.033,2.255,0.056
	c-0.103,2.105-0.15,4.384,1.506,5.96c0.753,0.005,1.525,0.014,2.339,0.033c0.781-1.904,1.095-3.953,1.034-6.007
	c1.01-0.005,2.035-0.023,3.093-0.037c0.084-4.262,0.084-8.529,0.075-12.791c-0.271,0.051-0.809,0.154-1.076,0.206
	c-0.912,0.529-1.951,0.758-2.943,0.954c-0.285-0.678-0.515-1.347-0.744-2.012c-0.314-0.056-0.931-0.168-1.244-0.225
	c-0.033-0.529-0.033-1.053-0.014-1.567c2.087-0.444,4.239-0.589,6.307-1.212c-0.608-0.342-1.24-0.669-1.815-0.973
	c-0.65-1.469-0.828-3.069-0.786-4.655c-1.146,0.023-2.278,0.056-3.387,0.103c-1.029,0.388-2.044,0.763-3.06,1.113
	c-0.066,0.828-0.131,1.656-0.168,2.494c-0.43,0.379-0.837,0.767-1.216,1.16c-0.206-0.009-0.622-0.028-0.828-0.037
	c-0.66-0.449-1.296-0.875-1.923-1.291c-0.136-0.744-0.257-1.483-0.332-2.218c-0.557-0.683-1.086-1.366-1.577-2.059
	c-5.277-0.018-54.615-2.423-54.615-2.423c-0.178,0.248-0.524,0.734-0.697,0.982c-0.257,0-0.777-0.005-1.034-0.005
	c0.042-0.342,0.126-1.025,0.168-1.361c-16.077-0.316-37.591-1.567-37.591-1.567c-0.023,0.271-0.075,0.814-0.103,1.085
	c-0.627-0.037-1.226-0.07-1.806-0.098c0.052-0.342,0.15-1.025,0.197-1.366c-1.689,0.384-3.415,0.585-5.127,0.552
	c-0.271-0.725-0.515-1.441-0.739-2.157c0.374-0.051,1.123-0.15,1.497-0.201c0.014-1.357-0.056-2.723,0.15-4.066
	c1.184-0.931,2.961-0.356,4.398-0.351c5.525,1.478,11.256,0.276,16.88,0.468c3.069-0.791,6.255-0.557,9.399-0.683
	c0.009,0.285,0.023,0.861,0.033,1.146c-0.66,0.206-1.291,0.43-1.895,0.674c14.311-0.546,33.441,2.852,47.186,0.028
	c0.019,0.285,0.056,0.856,0.075,1.141c-0.36,0.173-1.081,0.515-1.436,0.688c17.516,1.373,24.906,0.886,40.702,1.665
	c0.084,0.561,0.197,1.127,0.337,1.698c0.089-4.253,0.154-8.519,0.515-12.763c-1.399-0.21-2.788-0.505-4.108-0.959
	c-0.641-0.033-1.259-0.061-1.843-0.075c-1.117,0.529-7.044,2.554-9.759,2.994c-0.023-0.37-0.066-1.113-0.089-1.483
	c0.884-0.145,1.778-0.271,2.709-0.384c0.182-0.182,0.538-0.557,0.72-0.739c1.362-0.496,2.746-0.959,4.196-1.244
	c-0.079-0.496-0.126-0.982-0.14-1.464c2.073-0.599,3.986-1.75,6.199-1.876c0-0.299,0.01-0.898,0.014-1.202
	c4.292,0.036,3.342-0.265,7.448,3.256c0.07,0.192,0.21,0.575,0.281,0.767c3.944,1.53,5.653,3.174,9.338,4.697
	c1.292,1.088,5.491,3.14,7.312,3.799c7.972,3.797,13.81,9.754,21.23,6.068c0.879-0.29,0.337-1.184,0.295-1.829
	c-1.315,0.019-2.606,0.028-3.888,0.028c-0.201-0.589-0.36-1.174-0.505-1.754c2.755-0.215,5.525-0.547,8.304-0.215
	c0.052,0.87,0.103,1.759,0.318,2.625c0.515,0.178,1.067,0.332,1.656,0.468c0.454,0.725,0.889,1.464,1.362,2.218
	c-0.023-0.248-0.075-0.744-0.103-0.992c0.276,0,0.819,0,1.09,0c0,0.332-0.005,0.996-0.009,1.333
	c-0.206-0.033-0.627-0.098-0.838-0.131c0.651,4.155-0.104,2.578-2.194,4.856c-1.385-0.009-2.76-0.005-4.112,0.005
	c-0.135,0.734-0.281,1.469-0.37,2.213c-0.795,0.159-1.553,0.337-2.297,0.519c0.01,0.412,0.037,1.24,0.052,1.656
	c-0.533,0.384-1.039,0.795-1.567,1.128c-0.66-0.066-1.282-0.295-1.857-0.473c-0.309,0.009-0.931,0.028-1.244,0.033
	c-0.524-0.201-1.015-0.402-1.483-0.594c0.126-0.772,0.281-1.539,0.472-2.297c-0.318,0.047-0.949,0.14-1.268,0.187
	c-0.014-0.613,0-1.221,0.038-1.825c0.318,0.009,0.949,0.033,1.263,0.042l-0.005-0.571c-9.838,0.122-19.668-0.215-29.497-0.496
	l0.023,0.594c0.388-0.014,1.17-0.042,1.563-0.056c0.201,1.441,0.215,2.905,0.215,4.37c-0.295,0.061-0.879,0.187-1.174,0.253
	c-0.094,2.241-1.319,4.276-1.099,6.554c0.126,5.24-0.482,10.55,0.407,15.743c0.767,0.234,1.558,0.496,2.363,0.767
	c-0.589,2.695-0.472,5.474-0.355,8.22c0.72,0.028,1.469,0.065,2.25,0.103c0.052-0.384,0.155-1.146,0.206-1.53
	c0.632,0.239,1.244,0.482,1.923,0.749c0.117-0.29,0.351-0.87,0.463-1.16c0.95,0.187,1.909,0.393,2.891,0.608
	c0.178,0.458,0.384,0.922,0.618,1.389c1.806-0.197,3.621-0.43,5.455-0.547c0.052,0.285,0.15,0.856,0.201,1.142
	c0.543-0.313,1.114-0.618,1.708-0.908c0.042,0.407,0.126,1.23,0.168,1.637c3.836,0.346,7.687-0.182,11.542,0.14
	c0.346,0.912,0.711,1.825,1.081,2.751c1.984-0.009,3.981-0.014,5.988-0.056c-0.82-4.507,0.818-5.43,0.402-8.36
	c-0.22-1.609,0.37-3.163,0.987-4.613c1.736-0.332,3.453-1.216,5.272-0.692c0.024-1.605,0.033-3.205,0.052-4.8
	c0.491,0.229,1.029,0.487,1.572,0.749c0.332-0.88,1.053-1.422,1.923-1.75c0.033,0.416,0.089,1.24,0.117,1.656l0.543,0.014
	c-0.487-1.857,0-4.028-1.216-5.619c-0.056-0.646-0.07-1.282-0.047-1.909c0.304-0.529,0.655-1.053,0.997-1.581
	c-0.271-0.225-0.814-0.674-1.09-0.898c0,0-1.525-27.01,1.329-103.214c0.36-0.005,1.076-0.014,1.432-0.019
	c0.646,0.384,1.319,0.767,2.007,1.151c0.342,0.678,0.725,1.357,1.141,2.021c0.023,0.936,0.023,1.881,0.206,2.812
	c0.571,0.781,1.689,0.552,2.569,0.786c0,0,1.715,9.789,2.783,22.269c0.122,2.03-0.711,4.061-0.098,6.073
	c1.296,5.155,3.92,31.083,3.92,31.083c1.916,2.498,1.274-1.012,1.357,22.695c-0.019,2.082,0.949,4.023,0.945,6.105
	c0.061,3.897-0.126,7.799,0.042,11.691c0.393,2.428,1.282,4.763,1.263,7.261c0.739-0.082,15.325-2.451,17.048-2.48
	c0.098-0.561,0.243-1.113,0.44-1.656c0.608-0.136,1.249-0.136,1.923,0c0.136,0.538,0.29,1.09,0.463,1.651
	c4.407,0.851,8.917,0.346,13.38,0.473c0.182,1.081,0.393,2.171,0.575,3.266c5.949,1.166,12.405,0.044,42.414-0.491
	c0.65-0.585,1.296-1.198,2.082-1.651c1.764-0.356,3.593-0.145,5.403-0.215c1.029-1.034,2.26-1.871,3.752-2.063
	c0.136,1.001,0.3,2.002,0.477,3.018c1.839-0.079,3.874-0.168,5.212,1.371c2.526,0.716,5.221,0.716,7.766-0.005
	c2.091-1.697,1.984-1.809,6.162-0.379c0.121-0.95,0.276-1.899,0.449-2.84c3.523-0.257,7.069-0.276,10.61-0.262
	c3.075,9.666,2.089,2.228,2.176,28.028c0.482,0.519,0.973,1.048,1.506,1.577c2.119,0.351,3.836,1.745,5.848,2.437
	c0.674-2.138,0.707-4.833,2.648-6.288c2.343-0.325,29.183-0.234,33.029-0.229c-0.01,2.03-0.005,4.07-0.01,6.11
	c2.236,0.777,4.599,1.418,6.999,0.912c2.337-2.831,2.3-2.479,5.324-1.97c1.906,0.433,18.598,0.767,22.568,0.215
	c-0.051-2.681-0.192-5.389,0.421-8.023c5.084-3.761,7.972-0.701,17.857-1.436c-0.019-0.313-0.047-0.95-0.066-1.268
	c2.644-2.285-1.339-2.434,24.257-1.974c1.974-0.033,2.208,2.185,2.33,3.687c2.33-0.912,4.833-1.067,7.331-0.95
	c-0.042,0.926,0,1.871,0.023,2.812c20.387,0.092,16.023-0.847,19.893,2.807c2.47,0.014,4.955,0.014,7.443-0.009
	c0.28-26.048-1.573-17.485,7.485-19.939c1.497-0.421,3.013-0.777,4.58-1.02V753.36h-2560V384.719
	c0.767,0.108,1.539,0.22,2.306,0.342c0.828-0.112,1.656-0.215,2.489-0.304c5.931,5.95,5.105,2.507,6.994,7.64
	c2.435,2.635,2.096,14.556,2.133,15.556c1.446,1.436,3.294,2.802,3.673,4.945c0.421,3.442-0.237,17.586,0.356,20.346
	c0.858,0.262,29.1,0.097,29.595-0.009c0.636-2.035-0.009-4.178,0.285-6.25c2.096-0.51,4.276-0.253,6.409-0.295
	c0.543-5.704-0.449-48.025,0.379-53.862c2.961-0.225,5.946,0.248,8.884-0.328c-0.513-18.075,0.071-16.026,3.878-16.861
	c-0.351-0.94-0.851-1.811-1.474-2.592c-1.745-6.869,0.392-7.479,2.161-9.085c0.187-3.406,0.225-6.826-0.108-10.222
	c1.895-0.468,4.07-0.393,5.506-1.927c0.566,0.276,1.132,0.561,1.703,0.851c0.036-0.005,13.864,0.264,14.545,0.36
	c-0.047-0.187-0.14-0.566-0.187-0.753c0.173-0.786,0.337-1.577,0.496-2.358c2.776,0.495,2.376-0.073,3.621,3.312
	c0.201,0.009,0.608,0.023,0.809,0.028c0.935-16.832,0.356-20.73,0.356-20.73c0.978,0.243,1.956,0.505,2.933,0.758
	c-0.023,0.889-0.042,1.778-0.075,2.676c-1.597,1.583-0.619,12.404-0.477,14.016l0.538,0.009c-0.154-2.844,0.809-5.595,0.678-8.435
	c0.677,0.029,10.33,0.342,10.975,0.547c0.452-6.125,0.158-31.945,0.056-32.945c-0.36-0.421-0.711-0.833-1.053-1.263
	c1.38-0.421,1.436-2.129,0.239-2.788c-0.019-0.229-0.056-0.692-0.075-0.922c0.332-0.009,1.006-0.028,1.343-0.037
	c0.033-0.253,0.108-0.749,0.14-1.001c0.416-0.58,0.809-1.179,1.184-1.782c0.487-0.019,0.973-0.033,1.46-0.042
	c0.023,0.281,0.07,0.837,0.098,1.113c0.468,0.449,0.931,0.917,1.394,1.385c0.014-0.276,0.047-0.823,0.061-1.095
	c2.887,0.491,5.848,0.267,8.767,0.519c0.014,0.356,0.033,1.062,0.047,1.413c0.613,0.08,1.226,0.164,1.839,0.248
	c-0.412,0.136-0.823,0.276-1.235,0.416c0,0,0.881,46.531,1.081,48.416c3.603-0.716,3.313-0.574,3.949,2.012
	c0.865,0,1.736-0.005,2.606-0.009c0.463-0.477,0.931-0.954,1.399-1.422c3.294-0.43,6.423,0.706,9.651,1.043
	c1.549,1.015,3.092,2.105,4.917,2.582c0.43,3.163,0.211,6.344,0.22,9.52c-0.627,0.065-1.24,0.196-1.839,0.393
	c0.632,0.566,1.277,1.118,1.932,1.67c0.103-0.225,0.309-0.674,0.412-0.894c0.051-0.407,0.112-0.809,0.178-1.207
	c0.683,0.061,1.347,0.206,2.026,0.332c-0.019,2.76-0.023,5.516-0.005,8.281c-0.468,0.402-0.936,0.814-1.404,1.226
	c0.009,0.491,0.019,0.992,0.028,1.492c1.043,0.14,2.087,0.276,3.13,0.412c0,0-0.003,7.499-0.421,13.974
	c0.496,0.019,0.996,0.047,1.502,0.08c2.182,1.853,4.54,2.022,6.573,2.297c1.67,3.813,0.384,8.07,0.856,12.08
	c1.039,0.491,1.174,1.675,0.056,2.171c-0.098,1.132-0.192,2.278-0.351,3.411c0.299-0.005,0.894-0.014,1.193-0.019
	c0.009,0.295,0.033,0.88,0.042,1.174c-0.309,0.14-0.922,0.416-1.23,0.557c0.299,0.051,0.898,0.159,1.198,0.211
	c0,0.58,0.005,1.16,0.009,1.75c-0.229-0.014-0.688-0.042-0.917-0.056c1.193,1.811,0.473,3.991,0.95,5.993
	c-0.365,0.042-1.09,0.126-1.455,0.168c0.089,0.444,0.182,0.894,0.276,1.352c-1.418,3.153-1.02,7.074,1.029,9.857
	c0.033,0.234,0.103,0.697,0.136,0.931c0.36,0.019,1.076,0.056,1.432,0.075c0,0.295,0,0.889,0,1.184
	c-1.081,0.299-2.152,0.622-3.219,0.964c0.337,0.07,1.015,0.215,1.357,0.285c-0.051,0.898-0.098,1.806-0.164,2.713
	c-0.571,0.561-0.823,1.305-1.015,2.068c0.875,0.384,1.745,0.781,2.615,1.193c0.627-0.023,1.254-0.042,1.885-0.051
	c-0.009-0.964-0.009-1.927-0.009-2.882c0.711,0.07,1.432,0.117,2.138,0.267c0.945,0.51,0.435,1.787,0.632,2.657
	c1.38-1.258,2.989-2.241,4.674-3.041c0.234-0.87,0.444-1.75,0.636-2.62c0.304,0.028,0.903,0.084,1.207,0.108
	c-0.211-0.692-0.407-1.389-0.594-2.073c1.09,0.145,2.18,0.313,3.251,0.552c0.281-0.482,0.561-0.959,0.847-1.427
	c-0.767,0.239-1.539,0.468-2.316,0.692c0.271-1.277,0.936-2.386,1.829-3.312c1.174-0.164,2.335-0.393,3.495-0.636
	c0,0.384-0.005,1.146-0.009,1.53c1.404-0.051,2.798-0.239,4.164-0.58c0.309,0.524,0.613,1.062,0.912,1.605
	c0.267-0.744,0.543-1.478,0.809-2.213c0.594,0.22,1.193,0.454,1.787,0.706c0.215-0.164,0.65-0.496,0.87-0.664
	c0-0.239,0.005-0.725,0.005-0.964c0.599-0.37,1.193-0.744,1.773-1.137c0.248-0.023,0.739-0.07,0.987-0.094
	c0.009-0.744,0.019-1.478,0.028-2.208c1.675-0.136,3.626-0.304,4.552-1.937c0.248-0.023,0.739-0.075,0.982-0.103
	c0.009,0.374,0.033,1.123,0.042,1.497c1.001-0.009,2.007-0.014,3.013-0.009c-0.664-1.675-1.319-3.429-0.589-5.202
	c0.407,0,1.226,0.009,1.637,0.009c-0.608-0.491-1.226-0.978-1.843-1.446c0.346-0.426,0.688-0.856,1.043-1.268
	c0.005-0.664,0.009-1.329,0.019-1.979c0.327-0.009,0.987-0.019,1.315-0.023c0.196-0.94,0.407-1.867,0.636-2.793
	c0.253,0.033,0.763,0.094,1.015,0.122c1.202,0.954,2.606,1.581,3.906,2.386c0.239,1.324,0.14,2.69,0.159,4.037
	c0.618,0.206,1.23,0.416,1.853,0.632c0-0.421,0-1.258,0-1.675c-0.351,0.028-1.053,0.08-1.404,0.108
	c0.019-0.332,0.061-1.001,0.08-1.333c0.342-0.005,1.029-0.019,1.371-0.028c0.019-0.356,0.051-1.071,0.065-1.427
	c0.735,0.028,1.469,0.056,2.208,0.089c-0.019,1.02-0.047,2.04-0.065,3.074c0.281-0.267,0.837-0.795,1.118-1.057
	c0.555-1.854,0.594-14.945-0.061-17.984c0.589,0.098,1.184,0.206,1.778,0.318c1.75-0.22,3.518-0.192,5.282-0.22
	c0.945-1.675,2.788-1.684,4.482-1.581c0.173-0.767,0.351-1.52,0.543-2.269c3.509,0.164,7.153-0.538,10.536,0.674
	c1.071,0.323,2.049-0.543,3.05-0.791c0.239,0.215,0.711,0.65,0.945,0.87c1.071-1.273,1.553-2.858,1.717-4.487
	c0.908,0.005,1.815,0.019,2.727,0.033c0.065,0.388,0.197,1.156,0.262,1.544c-0.379-0.009-1.132-0.028-1.506-0.037
	c0.594,0.103,1.188,0.196,1.792,0.304c0.215-0.964,0.468-1.913,0.772-2.849c0.744-0.594,1.296-1.371,1.67-2.246
	c0.243,0.009,0.734,0.023,0.982,0.028c-0.028,0.561-0.051,1.127-0.075,1.698c0.734,0.225,1.474,0.454,2.218,0.683
	c0.351,0.58,0.711,1.165,1.071,1.75c0.833-0.005,1.67-0.009,2.512-0.005c0.281,0.323,0.561,0.65,0.847,0.982
	c0.524-0.019,1.048-0.033,1.577-0.042c0.496-0.646,1.01-1.277,1.53-1.904c0.968,0.248,1.942,0.519,2.905,0.828
	c0.075-0.159,0.229-0.477,0.304-0.636c0.772-0.168,1.544-0.332,2.32-0.501c-0.028-1.113-0.051-2.227-0.075-3.331
	c0.267-0.028,0.8-0.084,1.067-0.112c0.159,1.254,0.351,2.508,0.552,3.761c8.794,0.07,5.726,0.514,9.647,1.333
	c0.182-0.197,0.552-0.594,0.734-0.791c2.718-0.393,5.516-0.108,8.201-0.749c1.544-1.768,1.432-4.299,1.212-6.484
	c1.156-1.464,3.008-1.23,4.646-0.968c1.123-0.173,2.269-0.15,3.359,0.22c1.871-0.257,3.897-0.711,5.539,0.538
	c0.014-0.524,0.028-1.043,0.051-1.553c0.44-0.356,0.861-0.725,1.263-1.113c0.29-1.904,0.173-3.841,0.192-5.754
	c3.509-0.945,7.364-0.627,10.615,1.029c0.042-0.393,0.084-0.772,0.136-1.151c1.057,0.22,2.115,0.421,3.186,0.599
	c1.041,11.937-0.154,12.132,0.758,16.543c0.819-1.207,1.708-2.494,1.595-4.028c0.066-4.407,1.366-8.655,1.455-13.053
	c0.875-0.182,1.754-0.351,2.643-0.496c-0.009,0.365-0.019,1.095-0.028,1.46c0.641-0.023,1.282-0.047,1.923-0.061
	c0.051-0.318,0.154-0.945,0.206-1.258c1.02,0.037,2.049,0.075,3.074,0.122c1.811,1.16,4.094,0.529,6.124,0.711
	c-0.15,4.875-0.683,9.862,0.412,14.667c-0.463-0.014-1.38-0.051-1.843-0.07c0.145,0.15,0.43,0.449,0.571,0.599
	c2.405,0.019,5.212-0.524,7.055,1.436c0.646-0.281,1.235-0.655,1.773-1.109c3.219-0.145,6.447-0.014,9.67-0.009
	c-0.042-0.346-0.07-0.683-0.094-1.015c-0.501-0.571-0.982-1.156-1.45-1.745c2.325-0.73,4.781-0.44,7.177-0.622
	c0.014,1.104,0.042,2.208,0.084,3.317c1.23,0.07,2.746,0.529,3.34-0.954c1.923-0.337,3.883-0.374,5.834-0.285
	c1.563-0.627,3.191-1.118,4.889-1.198c0.304,0.996-0.122,2.522,0.842,3.158c1.586-0.187,3.12-0.664,4.697-0.922
	c0.515-0.753,1.062-1.483,1.609-2.208c1.895,0.005,3.789,0,5.689,0.019c0.987,0.922,2.189,1.665,2.971,2.784
	c0.243,1.68,0.103,3.382,0.112,5.071c1.067,0.243,2.138,0.491,3.209,0.734c0.229,0.725,0.449,1.45,0.674,2.189
	c0.664,0.257,1.333,0.51,2.012,0.767c0.393,1.305,1.469,2.124,2.545,2.873c0.154-0.005,0.472-0.023,0.632-0.033
	c0.772,0.388,1.553,0.753,2.344,1.113c-0.239,3.789-0.285,7.588-0.192,11.382c5.689-0.253,11.382-0.496,17.081-0.566
	c0.079-0.622,0.159-1.244,0.253-1.857c1.609-0.49,59.462-3.853,61.132-3.981c0.112-1.899,0.454-3.86,1.745-5.343
	c0.436-8.065-0.011-0.59-0.585-16.968c0.73-0.023,1.464-0.037,2.204-0.047c-0.131,4.033,0.023,8.075-0.154,12.108
	c0.126-0.262,0.384-0.781,0.515-1.043c0.566,0.295,1.132,0.594,1.708,0.903c0.164-0.889,0.313-1.782,0.458-2.667
	c2.297-0.574,2.478-0.422,15.574-0.374c-0.108-0.594-0.215-1.188-0.248-1.782c0.641-0.683,1.642-0.585,2.489-0.777
	c0.089,1.998-0.327,3.995-0.061,5.988c1.759,0.271,3.551,0.136,5.329,0.225c0.103-1.011,0.211-2.026,0.341-3.027
	c1.497,0.346,1.895,1.792,2.18,3.106c2.816-0.014,5.563-0.837,8.388-0.669c0.898,0.327,1.82,0.589,2.756,0.837
	c0.852-2.03,0.304-4.192,0.042-6.274c0.8,0.089,1.609,0.201,2.414,0.342c-0.056,0.641-0.098,1.291-0.136,1.946
	c4.697,0.688,9.464,0.299,14.194,0.253c0.594,0.257,1.202,0.519,1.81,0.781c0.505,2.395,0.458,4.856,0.482,7.289
	c1.118,1.029,2.161,2.143,3.055,3.382c4.401,0.272,28.22-0.001,29.221,0.042c2.901,0.039,4.606,2.785,8.805,4.678
	c0.765-19.553-1.895-20.922-0.384-26.639c1.085-4.061,0.019-8.304,0.599-12.416c1.352-0.922,2.994-1.408,4.618-1.511
	c0.164,0.29,0.487,0.865,0.65,1.151c31.133,10.318,28.957,9.1,36.028,15.209c-0.702,6.157-0.88,12.37-0.664,18.573
	c-0.323-0.037-0.968-0.117-1.291-0.154c-2.012,3.158-2.816,7.032-2.32,10.742c0.678,5.24-0.033,10.629,1.572,15.743
	c0.491,0.683,1.132,1.221,1.853,1.67c0.037,0.229,0.112,0.692,0.15,0.922c-0.248-0.005-0.744-0.014-0.997-0.019
	c1.039,7.582,0.362,14.552,1.857,14.077c4.439-0.414,8.987-0.415,13.113,1.23c-0.201-5.984,0.281-11.981-0.136-17.956
	c-0.426-2.021,0.351-3.995,0.73-5.951c0.683,0.159,1.38,0.327,2.087,0.496c0.196,0.402,0.407,0.814,0.622,1.23
	c0.987-0.019,1.984-0.042,2.985-0.07c-1.113-1.132-2.363-2.115-3.724-2.919c-0.379-0.772-0.805-1.52-1.085-2.325
	c0.094-0.777,0.688-1.385,1.048-2.058c2.054-1.301,4.501-1.188,6.84-1.076c1.296,0.884,2.578,1.839,4.075,2.372
	c0.107-1.018,0.654-10.686-0.561-14.227c-0.234-0.585,0.318-1.113,0.472-1.642c0.112-0.557-0.449-1.591,0.393-1.698
	c2.288-0.505,4.683-0.103,6.943,0.402c3.092,0.561,6.157-0.604,9.258-0.29c2.788,0.178,5.577,0.627,8.384,0.267
	c-0.192-0.917-0.421-1.82-0.725-2.695c0.271-0.351,0.566-0.688,0.875-1.006c0.936,0.023,0.8,1.146,1.146,1.773
	c0.814-0.014,1.628-0.033,2.456-0.047c0.473-1.885,0.716-3.832,0.617-5.773c1.647-1.146,3.659-0.491,5.497-0.412
	c0.009,1.483-0.098,2.985,0.173,4.458c0.725,0.182,1.464,0.276,2.218,0.407c-0.824,3.622-0.683,2.598,0.94,5.174
	c0.566-1.909,0.29-3.883,0.271-5.829c0.379-0.15,0.772-0.285,1.179-0.398c0.313,0.711,0.646,1.422,0.992,2.133
	c-0.019-0.524-0.061-1.581-0.084-2.11c0.402,0.098,0.809,0.206,1.23,0.313c0.341-0.267,0.692-0.533,1.053-0.791
	c-0.338-10.619,1.429-14.709,2.353-18.405c0.402,0.196,0.819,0.398,1.24,0.603c0.458-0.655,0.926-1.31,1.413-1.951
	c0.122-1.497-0.992-3.036-0.243-4.44c-0.337-0.561-0.688-1.142-1.006-1.689c0.234-0.126,0.697-0.374,0.931-0.501
	c-0.384-0.632-0.744-1.263-1.099-1.899c3.691-0.788,2.941-0.859,4.042,1.132c9.497-0.045,17.178,0.376,24.501,0.365
	c0.08-0.309,0.243-0.922,0.323-1.226c0.791-0.094,1.591-0.182,2.4-0.271c-0.416,1.118,0.065,1.932,1.17,2.339
	c0.664,1.68,0.426,3.504,0.646,5.263c1.46,0.571,1.223-2.89,1.23-4.608c0.725-0.44,1.464-0.861,2.222-1.258
	c0.434-11.271,1.5-39.53,1.506-39.813c0.412-0.407,0.833-0.809,1.263-1.212c-0.033-1.043-0.318-2.166,0.201-3.134
	c1.572-0.187,3.163-0.009,4.753,0.056c-0.066-0.809-0.126-1.619-0.178-2.419c0.945-0.421,1.918-0.786,2.905-1.118
	c-0.005-0.968-0.023-1.937-0.028-2.896c0.875-0.22,1.754-0.444,2.639-0.669c0.164-0.229,0.491-0.688,0.65-0.917
	c0.374,0.023,1.118,0.075,1.492,0.098c1.22-2.349,0.693-27.258,0.444-29.226c1.357-1.057,2.372-2.461,2.784-4.15
	c0.379,0.356,0.772,0.711,1.17,1.076c-0.15,0.435-0.29,0.875-0.416,1.319c0.519,0.019,1.053,0.047,1.595,0.08
	c0.931,1.563,2.971,0.725,4.458,0.903c0.262-0.716,0.538-1.427,0.809-2.133c0.388-0.243,0.791-0.482,1.202-0.716
	c-0.014-2.998,0.081-65.58,1.829-78.901c3.612-7.376,6.653-8.035,9.198-12.005c1.684-7.813-0.477-16.014,1.703-23.775
	c2.362-1.156,27.256-20.422,28.262-21.329c-0.473-1.127-0.07-2.091,0.922-2.746c2.274-5.726,3.799-11.743,6.517-17.291
	c3.032,5.469,4.299,11.687,6.587,17.474c0.43,0.304,0.889,0.585,1.371,0.847c-0.257,0.571-0.51,1.142-0.749,1.722
	c0.374,0.402,0.763,0.809,1.17,1.212c0.201,0.061,0.604,0.187,0.805,0.248c1.19,1.456,21.616,16.912,26.559,20.482
	c0.875,4.772,0.43,9.665,0.407,14.489c-1.628,2.161-0.978,5.127-1.23,7.654c0.468-0.243,0.959-0.473,1.464-0.683
	c0.936,4.056,4.533,6.639,7.064,9.698c0.749,1.46,1.385,3.004,2.606,4.164c0.001,0.042,0.473,50.325,0.473,50.325
	c-0.543-0.154-1.076-0.285-1.605-0.402c-0.477,1.329,0.08,2.55,1.081,3.462c0.92,4.944-0.504,25.339,0.636,29.142
	c0.552-0.019,1.113-0.033,1.689-0.042c0.37-0.463,0.744-0.926,1.132-1.38c0.524-0.028,1.057-0.051,1.605-0.07
	c0.524,0.515,1.053,1.025,1.609,1.539c0.201-0.426,0.599-1.287,0.8-1.712c2.81,2.81,0.828,3.239,1.02,8.187
	c0.252,10.633-0.534,12.161,0.669,14.461c0.627-5.132-0.374-10.344,0.533-15.471c0.473,0.192,0.959,0.384,1.46,0.58
	c-0.257,1.421-0.72,23.761-0.416,24.931c-0.08,0.192-0.239,0.575-0.318,0.767c0.108,0.234,0.318,0.692,0.426,0.922
	c-0.084,0.22-0.257,0.655-0.342,0.875c0.037,1.563-0.14,3.125-0.454,4.655c-1.291-2.848-0.285-7.176-0.725-17.071
	c-0.094-0.056-0.285-0.164-0.379-0.215c-0.084,0.065-0.257,0.192-0.341,0.257c-0.616,4.481-0.636,33.198-0.332,34.919
	c-0.212,1.493-0.632,13.983,0.29,15.092c0.463-0.276,0.851-0.65,1.301-0.968c1.029,1.566,6.543,0.684,7.804,0.435
	c3.439,0.842,7.018,0.145,10.517,0.547c1.619,0.285,2.667-1.338,4.154-1.605c1.24-0.08,2.489,0.028,3.743,0.089
	c0.033-3.616,0.14-7.256-0.561-10.821c2.558-0.548,13.425-1.068,16.926-0.889c1.034-0.15,2.442,0.379,3.209-0.552
	c0.126-1.037,0.375-89.498,0.379-89.637c1.432-0.285,3.2-0.225,4.075-1.651c0.43,0.449,0.725,0.861,1.207,1.333
	c1.498-2.22-0.178,2.524,2.723-10.606c0.187-0.851-0.098-1.694-0.253-2.517c0.215-0.08,0.641-0.243,0.856-0.323
	c0.909-6.837,6.614-28.937,5.502-42.503c-0.096-2.008,0.801-23.172,1.516-29.282c-0.388-0.365-0.767-0.725-1.137-1.085
	c-0.29-0.033-0.861-0.098-1.151-0.131c0.056-0.215,0.164-0.65,0.215-0.866c1.268-1.146,1.764-2.826,2.232-4.407
	c0.071-0.289,0.896-18.306,0.748-26.363c0.589,0.037,1.193,0.089,1.806,0.154c1.195-10.753-0.007-5.328,0.758-19.565
	c-0.066-0.201-0.196-0.608-0.267-0.814c0.164-0.22,0.487-0.664,0.65-0.889c-0.426-0.519-0.847-1.034-1.254-1.549
	c-0.285,0.019-0.851,0.056-1.137,0.075c-0.042-0.561-0.075-1.127-0.098-1.684c-0.519-0.379-1.025-0.758-1.52-1.132
	c0.206-0.435,0.421-0.87,0.65-1.305c0.37-0.014,1.113-0.047,1.488-0.061c-0.837-0.702-1.656-1.418-2.442-2.157
	c1.062-0.098,2.143-0.173,3.228-0.239c0.008-1,0.213-50.351,1.581-52.253c0.094,0.435,0.281,1.301,0.374,1.736
	c0.833-0.033,1.684-0.056,2.531-0.042c-0.809,0.646-1.609,1.282-2.4,1.923c0.281,2.306,0.225,4.632,0.131,6.952
	c0.753,0.07,1.53,0.145,2.311,0.22c0,0.262,0.005,0.777,0.005,1.034c-0.922,0.379-1.825,0.767-2.718,1.174
	c0.154,2.349,0.402,4.688,0.515,7.041c0.641-0.023,1.296-0.047,1.965-0.07c0.042,0.295,0.117,0.884,0.159,1.179
	c-0.908,0.491-1.768,1.034-2.61,1.609c1.782,6.531,0.097,8.741,0.992,29.506c0.692,0.103,1.394,0.211,2.105,0.323
	c-0.66,0.711-1.352,1.394-2.012,2.096c0.795,0.271,1.605,0.561,2.414,0.87c-0.697,0.575-1.38,1.142-2.077,1.698
	c-0.828,6.69-0.342,13.46-0.379,20.182c0.239,0.458,0.538,0.912,0.753,1.404c-0.309,0.543-0.664,1.039-0.982,1.558
	c0.463-0.009,1.389-0.033,1.853-0.042c-0.501,0.43-0.987,0.856-1.478,1.282c-0.341,3.794,0.164,7.584,0.576,11.35
	c-0.376,2.033-0.474,9.954,0.356,11.425c-0.169,0.678-0.323,1.357-0.468,2.04c1.902,10.411-0.792,57.477,7.916,87.266
	c1.221,1.469,0.206,3.509,0.683,5.23c0.257-0.178,0.772-0.543,1.029-0.725c-0.082-24.663,0.01-24.229,1.011-25.142
	c0.436,3.602-0.384,11.953,0.342,14.222c0.276-1.497,0.416-3.013,0.763-4.496c1.062,1.46,0.617,3.34,0.688,5.02
	c-0.473,0.234-0.936,0.468-1.385,0.706c0.037,0.24-0.832,6.822-0.416,11.172c0.122,1.361,1.272,2.246,2.115,3.205
	c0.304-0.136,0.917-0.407,1.226-0.543c-0.14,0.267-0.416,0.791-0.552,1.057c0.557,0.342,1.128,0.688,1.708,1.034
	c0.042-0.646,0.094-1.282,0.154-1.918c0.332-0.028,0.996-0.089,1.329-0.117c-0.374-4.192,0.837-8.444-0.402-12.557
	c0.234-0.505,0.487-1.006,0.749-1.502c-0.089-0.552-0.178-1.109-0.239-1.656c0.187-0.028,0.561-0.084,0.749-0.112
	c0.435,1.511,1.104,2.938,1.923,4.285c-0.608,0.36-1.193,0.73-1.782,1.095c0.73,4.613-0.318,9.24-0.023,13.876
	c-0.211,0.122-0.636,0.365-0.847,0.487c-0.047,0.875-0.084,1.754-0.117,2.639c2.465,1.249,5.333,1.17,7.986,0.632
	c0.023-12.014-0.192-24.033,0.426-36.037c0.468-0.379,0.94-0.763,1.432-1.137c0-0.29,0.005-0.87,0.005-1.16
	c3.776-3.086,9.948-9.4,11.682-9.829c1.704-3.263,0.447-8.876,1.057-18.302c0.382-0.684,7.491-6.947,10.653-8.697
	c0.061-6.002-0.131-12.019,0.084-18.012c2.53-1.888,1.459-0.348,7.102-6.016c0.262-0.033,0.786-0.089,1.048-0.122
	c0.627-0.58,1.277-1.156,1.918-1.74c-0.431-1.701,0.252-16.486,0.468-17.927c1.525-0.781,3.013-1.782,3.761-3.396
	c0.15,0.051,0.444,0.159,0.594,0.211c1.993-2.007,4.519-3.387,6.419-5.488c0.243-0.019,0.725-0.056,0.964-0.075
	c7.252-28.079,4.758-17.593,4.711-26.101c0.253-0.201,0.758-0.599,1.01-0.8c-0.267-4.178,0.735-8.327,0.211-12.491
	c0,0,0.131-5.634,0.627-10.47c-0.178-0.112-0.533-0.342-0.711-0.458c1.454-10.698,0.547-6.802,0.8-11.804
	c-0.716-0.201-1.399-0.398-2.091-0.604c0.351-0.229,1.053-0.692,1.404-0.922c0.435-2.863,1.01-5.815,0.416-8.706
	c-0.487-2.222,1.614-4.075,1.043-6.335C1021.766,45.584,1021.985,32.842,1021.912,32.195 M1022.698,31.798
	c0.636,0.168,0.88-0.07,0.73-0.716C1022.759,30.904,1022.516,31.143,1022.698,31.798 M1529.833,43.461
	c0.791-0.739,1.104-1.787,1.385-2.812C1529.912,40.939,1529.936,42.422,1529.833,43.461 M1581.337,40.743
	c0,0.908,0.023,1.815,0.108,2.723c0.538-0.664,1.006-1.389,1.474-2.119C1582.375,41.14,1581.847,40.939,1581.337,40.743
	 M1525.875,87.489c-0.196,1.23-0.267,2.475-0.309,3.719c-0.529,0.823-1.132,1.6-1.843,2.269c-0.037,0.781-0.042,1.563-0.014,2.349
	c1.698,0.295,0.398,2.007,0.402,3.069c-0.267-0.061-0.805-0.182-1.076-0.243c0.239,0.552,0.547,1.113,0.809,1.68
	c-0.697,0.51-1.315,1.071-1.909,1.661c0.449-0.117,0.912-0.234,1.39-0.346c0.005,0.225,0.009,0.674,0.014,0.894
	c0.772,0.08,1.581,0.168,2.391,0.267c-0.005-1.525-0.005-3.05,0.243-4.557c0.309-1.867-0.211-3.733-0.159-5.605
	C1526.399,90.984,1526.193,89.182,1525.875,87.489 M1481.585,91.522c0.44,1.89,0.945,3.963,2.48,5.291
	C1483.968,95.813,1483.874,92.128,1481.585,91.522 M1480.289,95.227c0.009,1.081-0.211,2.33,0.795,3.069
	c0.061-0.917,0.126-1.834,0.178-2.746C1481.019,95.47,1480.532,95.306,1480.289,95.227 M1478.095,99.526
	c0.725-1.263,1.039-2.709,1.333-4.122C1477.224,95.508,1478.174,98.09,1478.095,99.526 M1480.789,98.24
	c0.192,1.156,0.444,2.302,0.688,3.457c-0.239,0.454-0.388,0.922-0.571,1.389c0.281-0.496,0.571-0.992,0.865-1.497
	c0.224,0.164,0.678,0.482,0.908,0.646c-0.047-0.618-0.075-1.235-0.084-1.853c-0.243-0.178-0.725-0.533-0.964-0.711
	C1481.571,99.054,1481.416,98.474,1480.789,98.24 M1484.083,98.137c0.037,1.385-0.543,3.158,0.777,4.136
	c0.524,0.398,0.987,1.347,1.773,1.067c0.412-0.954-0.168-1.942-0.337-2.882C1485.622,99.611,1485.126,98.567,1484.083,98.137
	 M1482.216,111.699c-0.066,0.865,0.346,1.656,0.669,2.437c0.295-0.917,0.58-1.848,0.805-2.793
	C1483.32,111.433,1482.586,111.611,1482.216,111.699 M1484.336,114.45c1.296,0.814,2.905,0.271,4.318,0.823
	c0.019-0.248,0.056-0.739,0.075-0.987C1487.25,114.282,1485.781,114.273,1484.336,114.45 M1484.864,116.256
	c0.304,0.604,0.636,0.613,0.996,0.037C1485.519,115.685,1485.187,115.676,1484.864,116.256 M1488.289,116.219
	C1488.551,116.476,1488.551,116.476,1488.289,116.219 M1484.345,121.632c0.865,0.281,1.768,0.505,2.699,0.604
	c0.566-0.613,1.273-1.043,2.124-1.193c-0.182-0.356-0.337-0.711-0.477-1.057c-0.342,0.407-0.683,0.805-1.02,1.188
	c-0.772-0.444-1.478-0.931-2.269-1.277C1484.569,119.924,1484.569,121.051,1484.345,121.632 M1484.939,126.464
	c0.014,0.257,0.037,0.777,0.052,1.039c0.482-0.154,1.029-0.304,1.553-0.463c0.547,0.173,1.113,0.337,1.698,0.496
	c0.019-0.271,0.056-0.805,0.075-1.076C1487.18,126.464,1486.053,126.469,1484.939,126.464 M937.94,127.76
	c-0.009,0.861-0.042,1.726-0.154,2.582c0.15,0.908,0.327,1.815,0.575,2.713C938.661,131.283,938.651,129.43,937.94,127.76
	 M811.929,134.97c0.365-0.033,1.099-0.103,1.469-0.136c1.071-1.076,2.311-1.965,3.523-2.891c-0.019-0.318-0.056-0.959-0.07-1.277
	C815.044,131.863,812.986,133.005,811.929,134.97 M818.984,131.124c1.244,2.124,3.56,3.354,5.525,4.749
	c-0.388-2.297-2.765-3.092-4.098-4.72C820.055,131.143,819.339,131.129,818.984,131.124 M1485.655,131.816
	c0.725,0.173,1.946,0.982,2.512,0.159C1487.774,131.208,1486.067,131.292,1485.655,131.816 M1485.145,133.019
	c-0.187,0.248-0.566,0.753-0.758,1.006c0.234,0.117,0.697,0.356,0.931,0.477c-0.178,0.543-0.327,1.095-0.454,1.647
	c0.608-0.182,1.216-0.454,1.773-0.833c0.51,0.444,1.132,0.613,1.867,0.505c-0.627-0.51-1.389-0.786-2.133-0.982
	c0.108-0.201,0.323-0.604,0.43-0.809c-0.299-0.047-0.908-0.14-1.212-0.192C1485.477,133.632,1485.257,133.22,1485.145,133.019
	 M1488.27,133.164C1487.484,134.544,1489.805,133.29,1488.27,133.164 M937.589,139.578c0.248-0.005,0.744-0.014,0.992-0.019
	c-0.028-1.146-0.065-2.306-0.407-3.406c0.089-0.197,0.257-0.58,0.341-0.777c-0.042-0.43-0.126-1.296-0.173-1.731
	C937.042,135.311,937.847,137.627,937.589,139.578 M1486.099,139.166c0.089,0.632,0.421,0.735,0.997,0.313
	C1486.969,138.848,1486.637,138.745,1486.099,139.166 M937.599,142.46c-0.014,0.73-0.014,1.46,0,2.194
	c0.234,0.154,0.702,0.463,0.936,0.618c-0.009-1.198-0.009-2.4,0-3.598C938.3,141.87,937.833,142.263,937.599,142.46
	 M1484.293,142.689c0.458,0.37,0.978,0.739,1.474,1.118l-0.964,0.276c0.281,0.192,0.842,0.571,1.118,0.758
	c-0.056-0.664-0.108-1.324-0.15-1.984c0.398,0.075,1.188,0.225,1.586,0.299C1486.399,142.651,1485.112,141.351,1484.293,142.689
	 M1488.368,142.399C1488.63,142.642,1488.63,142.642,1488.368,142.399 M1487.414,143.793c-0.243,0.753,0.023,1.025,0.8,0.809
	C1488.42,143.84,1488.153,143.573,1487.414,143.793 M940.612,144.135c-0.178,1.796-0.327,3.635,0.056,5.418
	C940.902,147.751,940.817,145.931,940.612,144.135 M1484.364,145.987c0.14,0.683,0.351,1.371,0.557,2.049
	c0.926-0.051,1.876-0.103,2.835-0.187c-0.416-0.561-0.959-0.95-1.623-1.085C1485.744,146.132,1484.986,146.085,1484.364,145.987
	 M1488.35,146.184c-0.786,0.248-0.351,1.516,0.426,1.305C1489.636,147.292,1489.103,145.94,1488.35,146.184 M937.664,147.175
	C936.977,148.593,939.208,147.208,937.664,147.175 M937.22,148.312c0.065,0.482,0.145,0.964,0.239,1.45
	c-0.313,1.38-0.58,2.952,0.482,4.094C937.973,151.999,938.698,149.819,937.22,148.312 M1487.297,148.967
	c-0.529,0.66,0.702,1.17,1.118,0.618C1488.911,148.911,1487.676,148.434,1487.297,148.967 M1484.509,150.745
	c-0.122,0.94,0.458,1.694,0.945,2.442c0.964-0.042,1.951-0.075,2.943-0.136c-0.379-0.14-1.142-0.416-1.521-0.557
	c0.061-0.412,0.14-0.819,0.239-1.226C1486.244,151.044,1485.379,150.801,1484.509,150.745 M1488.345,150.834
	c-0.182,0.66,0.056,0.88,0.716,0.669C1489.206,150.834,1488.967,150.614,1488.345,150.834 M940.008,163.442
	c-0.313,0.618,0.758,1.647,1.244,0.861c0.19-1.44-0.461-12.722-0.599-13.268C940.078,155.147,940.846,159.344,940.008,163.442
	 M937.281,154.179c-0.674,0.178-0.566,1.338,0.009,1.586C937.945,155.629,937.889,154.352,937.281,154.179 M1484.92,156.799
	c0.978-0.047,1.97-0.103,2.952-0.323c-0.912-0.706-1.895-1.296-2.835-1.923C1484.411,155.227,1484.602,156.027,1484.92,156.799
	 M1488.345,154.684c-0.683,0.229-0.37,1.422,0.309,1.422C1489.304,155.882,1488.991,154.67,1488.345,154.684 M936.757,157.922
	c-0.22,1.506-0.056,3.041-0.047,4.561l0.313,0.009c0.435-1.75,0.66-3.537,0.678-5.333
	C937.365,157.398,937.047,157.65,936.757,157.922 M1484.345,159.765c1.053,0.557,1.16,1.474,0.692,2.498
	c0.472-0.337,0.931-0.706,1.46-1.02c0.646,0.29,1.249,0.655,1.923,0.959c-0.089-0.833-0.646-1.249-1.343-1.516
	C1486.38,159.77,1485.365,158.581,1484.345,159.765 M1488.233,159.433c-0.225,0.66,0,0.898,0.664,0.711
	C1489.079,159.48,1488.86,159.246,1488.233,159.433 M936.668,163.129c-0.22,0.678-0.005,0.884,0.655,0.622
	C937.524,163.082,937.304,162.876,936.668,163.129 M1496.813,163.068c-1,0.555-0.616,3.166-0.379,5.001
	c1.16,0.098,2.344,0.192,3.518,0.384c-0.056-0.585-0.098-1.165-0.122-1.745c0.655-0.037,1.333-0.08,2.026-0.117
	c-0.042-1.305-0.571-2.489-1.104-3.644C1499.428,162.979,1498.109,162.923,1496.813,163.068 M1484.425,165.056
	c0.458,0.187,0.94,0.374,1.441,0.566c1.165-0.342,2.339-0.664,3.518-1.02c-0.285-0.973-1.249-0.922-1.918-0.412
	c-0.473-0.033-0.926-0.061-1.366-0.089C1485.122,163.419,1484.312,163.877,1484.425,165.056 M940.382,165.154
	c-0.407,1.881-0.51,3.818-0.458,5.74c-0.065,1.268,0.772,2.592-0.047,3.757c-0.023,0.819-0.014,1.637,0.019,2.461
	c0.627-0.164,1.441-0.075,1.885-0.678c0.178-1.127-0.285-2.175-0.763-3.153c0.959-2.409,0.065-5.043,0.318-7.556
	C941.098,165.58,940.621,165.295,940.382,165.154 M936.626,165.655c-0.239,1.665,0.005,3.35,0.262,5.001
	C937.234,169,937.529,167.189,936.626,165.655 M1488.35,168.219C1488.598,168.471,1488.598,168.471,1488.35,168.219
	 M1485.524,170.113c-0.664,0.295-0.683,0.599-0.052,0.912C1486.104,170.726,1486.118,170.427,1485.524,170.113 M1490.085,170.371
	c0.208,48.573-1.303,44.461,3.761,43.682c0.187,0.084,0.566,0.253,0.753,0.337c1.085-0.636,2.073-1.478,2.101-2.849
	c0.908,0.094,1.843,0.211,2.779,0.337c-0.145,0.444-0.257,0.898-0.332,1.357c0.575,0.117,1.174,0.229,1.792,0.327
	c-0.22-0.44-0.426-0.87-0.618-1.301c0.253-0.197,0.753-0.585,1.006-0.781c-0.014-1.549,0.285-3.336-0.894-4.561
	c-1.811,0.29-3.649,0.702-5.464,0.318c-0.753-1.193,0.833-2.063,1.563-2.774c1.305,0.702,2.83,0.739,4.285,0.519
	c1-0.608,0.513-5.169,0.014-6.498c-2.077,0.023-4.145,0.042-6.208,0c0.042-1.347,1.151-2.175,2.04-3.032
	c-0.084-0.374-0.253-1.118-0.337-1.492c1.212-0.37,1.352,0.739,1.563,1.665c1.015,0.295,2.077,0.604,3.144,0.248
	c-0.253-0.487-0.491-0.968-0.716-1.45c0.257-0.182,0.772-0.552,1.029-0.739c-0.042-1.563,0.337-3.364-0.931-4.566
	c-1.909,0.416-3.86,0.608-5.801,0.501c0.112-1.113,0.688-2.096,1.609-2.737c0.734,0.267,1.516,0.412,2.297,0.117
	c0.594,0.131,1.188,0.262,1.829,0.393c1.361-1.96,1.081-4.454,0.725-6.676c-1.923-0.037-3.85-0.056-5.712,0.412
	c-1.095-0.725,0-2.049-0.005-3.046c-1.136-0.812-2.674-1.811-2.746-1.867c0.454-0.066,1.357-0.192,1.806-0.253
	c-0.061-0.594-0.103-1.188-0.14-1.778c0.215,0,0.65-0.005,0.865-0.005c0.131-0.88,0.285-1.759,0.51-2.62
	C1494.427,169.739,1491.947,169.641,1490.085,170.371 M1496.307,171.335C1496.401,172.897,1497.683,170.6,1496.307,171.335
	 M1484.49,172.144c-0.047,0.669-0.075,1.338-0.075,2.012c1.104,0.019,2.227,0.028,3.364,0.033c-0.225-0.449-0.43-0.894-0.622-1.338
	c-0.234,0.005-0.702,0.019-0.94,0.023C1485.683,172.504,1485.108,172.261,1484.49,172.144 M1487.512,172.368
	c0.407,0.58,0.912,1.109,1.502,1.539c0.042-0.393,0.117-1.179,0.159-1.572C1488.757,172.345,1487.929,172.359,1487.512,172.368
	 M936.368,173.533c-0.08,1.113-0.089,2.232,0,3.345C937.154,175.891,937.239,174.492,936.368,173.533 M1485.089,175.47
	c0.505,0.313,1.782,0.473,2.054-0.15C1486.595,175.002,1485.271,174.745,1485.089,175.47 M1484.583,177
	c0.056,0.987,0.267,1.96,0.463,2.933c0.426-0.304,0.866-0.613,1.324-0.917c0.477,0.154,1.427,0.463,1.904,0.618
	c-0.501-0.72-0.954-1.422-1.436-2.124C1486.076,177.304,1485.337,177.089,1484.583,177 M1488.275,177.084
	C1487.559,178.502,1489.805,177.136,1488.275,177.084 M935.854,177.692c0.126,1.249,0.313,2.489,0.575,3.724
	C937.187,180.2,937.019,178.591,935.854,177.692 M941.805,178.151c-0.655,0.08-1.296,0.154-1.932,0.225
	c0.009,1.137,0.08,2.288,0.449,3.382c-0.154,0.926-0.318,1.853-0.454,2.788c0.674,0.192,1.343,0.365,2.049,0.538
	C941.58,182.782,941.622,180.462,941.805,178.151 M1498.09,177.922c-0.014,0.229-0.037,0.697-0.047,0.931
	c-0.627,0.005-1.235,0.014-1.825,0.028c-0.009,0.225-0.023,0.678-0.028,0.908c1.591,0.005,3.195,0.009,4.805-0.005
	c-0.229-0.627-0.44-1.249-0.646-1.867C1499.578,177.917,1498.82,177.917,1498.09,177.922 M1484.336,182.469
	c1.609,0.814,3.312,0.327,4.8-0.519c-0.164-0.473-0.369-0.922-0.529-1.366c-0.243,0.253-0.73,0.767-0.973,1.025
	c-0.931-0.257-1.857-0.529-2.732-0.856C1484.691,181.318,1484.49,181.889,1484.336,182.469 M935.915,184.705
	c0.182,0.066,0.552,0.206,0.739,0.276c0.248-1.132-0.005-2.297-0.15-3.42C936.191,182.581,935.83,183.625,935.915,184.705
	 M1239.573,183.545c0.894-0.028,1.806-0.065,2.728-0.126c-0.398-0.566-0.346-1.736-1.137-1.811
	C1240.448,182.081,1240.013,182.839,1239.573,183.545 M1484.986,183.414c-0.005,0.267-0.019,0.805-0.023,1.071
	c0.931-0.103,1.89-0.201,2.854-0.276C1486.867,183.933,1485.922,183.662,1484.986,183.414 M1484.303,185.393
	c0.767,0.856,1.258,1.811,0.608,2.915c1.053-0.295,2.157-0.561,3.256-0.253c0.009-0.168,0.028-0.501,0.037-0.669
	c-0.346-0.051-1.048-0.15-1.394-0.201c0.136-0.243,0.402-0.73,0.538-0.973c0.552,0.028,1.123,0.061,1.717,0.094
	c-0.075-0.229-0.225-0.683-0.295-0.908C1487.326,186.204,1487.018,185.933,1484.303,185.393 M939.812,187.26
	c0.061,0.992,0.103,2.035,0.772,2.844c-0.716,0.968-0.814,2.133-0.702,3.298c0.819-0.126,1.665-0.243,2.508-0.374
	c-0.435-1.96-0.936-3.967-0.285-5.942C941.337,187.143,940.56,187.204,939.812,187.26 M1237.065,187.157
	c-0.033,0.87-0.037,1.745-0.009,2.62c0.65,0.239,1.38,0.449,1.548,1.249c0.435-0.43,0.861-0.856,1.348-1.263
	C1239.639,188.373,1238.497,187.283,1237.065,187.157 M935.76,187.933c-0.449,0.426-0.061,1.726,0.655,1.277
	C936.808,188.789,936.424,187.536,935.76,187.933 M1244.406,190.062c0.304-0.94-0.356-1.661-0.88-2.335
	C1242.834,188.593,1242.857,190.492,1244.406,190.062 M1484.293,190.89c0.959,0.285,1.951,0.51,2.966,0.655
	c0.009-0.323,0.028-0.968,0.037-1.291C1486.193,189.959,1484.429,189.056,1484.293,190.89 M1488.022,189.646
	c-0.412,0.543,0.313,1.703,0.978,1.174C1489.5,190.263,1488.635,189.145,1488.022,189.646 M935.933,190.062
	c-0.309,1.099-0.412,2.241-0.262,3.373c0.267-0.136,0.8-0.407,1.067-0.543C936.668,191.891,936.579,190.871,935.933,190.062
	 M1234.291,192.542c-0.187,0.674-0.636,1.338-0.519,2.063c0.73,0.627,1.918,1.651,2.798,0.678
	C1236.855,193.781,1235.377,193.075,1234.291,192.542 M1240.439,192.827c-1.268,1.067-0.173,2.358,0.959,2.887
	c0.337,0,1.01-0.009,1.343-0.014C1242.824,194.287,1241.678,193.225,1240.439,192.827 M1246.506,193.646
	c-0.454,0.454-0.332,1.492,0.374,1.637C1247.877,195.189,1247.414,193.225,1246.506,193.646 M1485.009,193.66
	c-0.435,0.8-0.884,1.68,0.449,1.731c-0.22,0.421-0.421,0.847-0.604,1.277c0.351-0.014,1.053-0.037,1.404-0.051
	c-0.136-0.543-0.248-1.085-0.342-1.623c0.805,0.618,1.535,1.389,2.536,1.736C1487.507,195.489,1486.174,194.651,1485.009,193.66
	 M1488.326,194.319C1487.601,195.709,1489.87,194.366,1488.326,194.319 M935.391,194.867c-0.005,0.973,0.009,1.956,0.089,2.933
	c0.688-0.702,0.604-1.712,0.725-2.611C935.999,195.11,935.592,194.946,935.391,194.867 M940.017,194.815
	c-0.889,0.496-0.412,1.586-0.463,2.395c1.586,0.744,0.094,2.554,0.033,3.832c0.248,0.159,0.739,0.477,0.987,0.636
	c0.599-0.122,1.188-0.253,1.811-0.374c-0.36-2.213-0.299-4.421-0.056-6.639c-0.412,0.103-0.805,0.215-1.188,0.332
	C940.86,194.951,940.298,194.862,940.017,194.815 M935.498,197.931c-0.173,1.123-0.281,2.25-0.393,3.382
	c0.257-0.023,0.772-0.075,1.029-0.098C936.134,200.083,936.13,198.913,935.498,197.931 M1230.455,199.189
	c0.786,0.884,1.74,1.628,2.947,1.843c-0.126-1.02-0.206-2.199-1.511-2.213c0.023-0.253,0.066-0.753,0.089-1.006
	C1231.447,198.268,1230.946,198.726,1230.455,199.189 M1242.937,199.04c0.636,1.029,1.277,2.199,2.568,2.512
	c0.323-1.394-0.557-2.447-1.352-3.453C1243.746,198.413,1243.306,198.722,1242.937,199.04 M1484.948,198.137
	c-0.159,0.421-0.281,0.851-0.374,1.291c0.44,0.318,0.926,0.571,1.436,0.856c0.192-0.103,0.58-0.309,0.777-0.412
	c0.299,0.08,0.908,0.239,1.207,0.313c-0.407-0.758-1.109-1.207-1.918-1.375C1485.683,198.586,1485.309,198.357,1484.948,198.137
	 M1237.028,198.361c0.005,0.365,0.014,1.104,0.019,1.474c0.51,0.487,1.02,0.987,1.548,1.492c0.426-0.398,0.875-0.795,1.329-1.188
	C1239.068,199.367,1238.249,198.432,1237.028,198.361 M1488.05,198.511c-0.491,0.575,0.5,1.399,0.987,0.791
	C1489.491,198.708,1488.499,197.917,1488.05,198.511 M1249.5,199.484c-0.243,0.636-0.028,0.889,0.641,0.749
	C1250.361,199.582,1250.146,199.33,1249.5,199.484 M935.358,205.795c0.894-0.786,0.613-1.956,0.267-2.929
	C934.057,202.609,935.194,204.967,935.358,205.795 M939.428,203.255c0.173,0.739,0.346,1.478,0.524,2.227
	c0.674,0.056,1.352,0.117,2.049,0.182c0.225-0.936,0.473-1.871,0.734-2.798C941.636,203.054,940.527,203.166,939.428,203.255
	 M1484.415,203.143c0.201,0.487,0.51,0.908,0.936,1.263c-0.014,0.253-0.047,0.758-0.061,1.006c0.894-0.253,1.829-0.267,2.756-0.037
	c-0.449-0.73-0.88-1.46-1.296-2.194C1485.95,203.129,1485.192,203.03,1484.415,203.143 M1488.298,202.932
	C1487.582,204.336,1489.837,202.974,1488.298,202.932 M1233.912,204.265c0.398,1.029,1.137,1.853,2.073,2.451
	c0.028-0.416,0.089-1.244,0.117-1.656c-0.426-0.454-0.842-0.908-1.23-1.361C1234.539,203.887,1234.216,204.074,1233.912,204.265
	 M1246.371,204.209c-0.154,1.099,1.062,1.754,1.736,2.451c0.173-0.271,0.515-0.809,0.683-1.076
	C1248.017,205.07,1247.442,203.246,1246.371,204.209 M1227.433,204.209c0.543,0.833,1.132,1.633,1.726,2.442
	c0.295-0.36,0.594-0.73,0.894-1.104c-0.356-0.515-0.749-0.982-1.109-1.46C1228.565,204.116,1227.807,204.181,1227.433,204.209
	 M1240.05,204.172c0.515,0.894,1.123,1.736,1.782,2.54c0.281-0.356,0.557-0.72,0.833-1.095c-0.393-0.524-0.8-1.006-1.188-1.506
	C1241.122,204.125,1240.406,204.158,1240.05,204.172 M933.908,210.095c0.182,0.154,0.538,0.463,0.72,0.618
	c0.66-1.418,1.404-2.905,0.814-4.501C934.665,207.391,934.329,208.766,933.908,210.095 M939.961,206.904
	c-0.169,0.8-0.318,1.609-0.501,2.414c0.168,0.44,0.351,0.88,0.543,1.324c1.071-0.271,2.18-0.327,3.284-0.178
	C943.031,208.711,943.967,206.61,939.961,206.904 M1484.654,207.035c-0.047,0.29-0.14,0.875-0.183,1.165
	c1.095,0.519,2.292,0.678,3.518,0.58c-0.744-0.674-1.544-1.263-2.33-1.853C1485.407,206.956,1484.906,207.012,1484.654,207.035
	 M1488.003,206.974c-0.407,0.585,0.561,1.389,1.067,0.842C1489.449,207.218,1488.467,206.427,1488.003,206.974 M937.341,210.876
	c0.912-1.067,0.847-2.489,0.571-3.775C937.561,208.326,937.412,209.603,937.341,210.876 M1230.913,209.655
	c0.36,0.716,0.73,1.418,1.137,2.124c0.454-0.225,0.945-0.444,1.427-0.674C1232.677,210.53,1232.069,209.29,1230.913,209.655
	 M1243.774,209.108c-0.07,0.36-0.215,1.076-0.285,1.436c0.585,0.599,1.249,1.104,2.124,1.244
	C1245.266,210.722,1244.836,209.627,1243.774,209.108 M1224.602,209.543c0.444,1.011,1.099,2.04,2.283,2.278
	C1226.558,210.614,1226.141,209.276,1224.602,209.543 M1237.285,209.786c0.458,0.692,0.632,1.885,1.68,1.927
	c-0.009-0.674-0.028-1.338-0.056-2.002C1238.502,209.73,1237.688,209.767,1237.285,209.786 M1249.734,209.786
	c0.356,0.87,0.777,1.768,1.778,2.054c-0.182-0.716-0.365-1.422-0.538-2.129C1250.665,209.73,1250.043,209.767,1249.734,209.786
	 M932.902,217.22c0.22,0,0.669,0,0.889,0c-0.037-2.002,0.515-3.925,1.067-5.825C932.555,212.163,932.995,215.283,932.902,217.22
	 M936.803,211.611c-0.332,2.058-1.511,3.911-1.137,6.077c0.791-0.182,1.581-0.379,2.391-0.561c0.028-1.801,0.037-3.602,0.037-5.399
	C937.772,211.699,937.126,211.643,936.803,211.611 M940.476,211.746c-0.328,0.309-0.641,0.618-0.945,0.931
	c-0.131,1.932-0.056,3.911,1.025,5.595l-0.098-0.912c1.319,0.126,2.671,0.089,3.991-0.14c-0.089-1.923-0.215-3.864-0.781-5.712
	C942.614,211.788,941.543,212.111,940.476,211.746 M1484.462,211.657c-0.042,0.655,0.632,0.945,1.01,1.389
	c-0.117,0.299-0.355,0.894-0.472,1.193c0.753-0.552,1.483-1.146,2.218-1.75c-0.122-0.215-0.37-0.641-0.491-0.851
	C1485.95,211.625,1485.192,211.611,1484.462,211.657 M1488.467,211.737C1488.696,212.022,1488.696,212.022,1488.467,211.737
	 M1490.118,216.233c0.294,50.499-0.435,55.696-0.435,55.696c0.477,0.281,0.968,0.557,1.483,0.833
	c-0.365,0.22-0.711,0.444-1.039,0.674c-0.14,0.688-0.243,1.385-0.342,2.082c-0.505,0.023-0.992,0.051-1.455,0.08
	c0.117-0.421,0.253-0.837,0.407-1.249c-0.21-0.454-0.402-0.903-0.575-1.347c0.239,0.056,0.716,0.173,0.95,0.229
	c-0.009-0.589-0.005-1.179,0.019-1.768c-1.422,0.342-2.872,0.482-4.276,0.07c-0.365,1.375-0.505,2.896,0.444,4.084
	c-0.201,0.037-0.608,0.108-0.809,0.145c0.089,0.215,0.276,0.646,0.365,0.861c8.39-0.445,8.035,0.498,9.89-0.561
	c-0.03-1-0.792-31.727-1.076-34.381c1.104-0.8,2.405-2.049,3.818-1.113c4.151-3.253,1.851-3.616,3.233-6.526
	c-3.542-0.972-5.773,1.184-6.503-0.922c0.421-0.996,1.301-1.642,2.18-2.222c0.042-0.257,0.131-0.781,0.173-1.043
	c0.374,0,1.118,0,1.492,0c0,0.337,0,1.015,0.005,1.352c1.081,0.056,2.372,0.664,3.27-0.281c-0.22-2.044,0.529-4.412-0.833-6.175
	c-1.867,0.426-3.799,0.655-5.694,0.379c-0.734-1.834,2.475-2.611,1.614-4.641c1.17,0.066,2.363,0.117,3.56,0.066
	c0.547,0.716,0.14,1.502-0.089,2.255c0.215,0.009,0.641,0.023,0.856,0.033c0.276-2.288,1.347-4.917-0.276-6.947
	C1497.042,216.551,1493.51,215.264,1490.118,216.233 M1484.275,217.103c1.146,0.304,2.325,0.519,3.537,0.468
	C1488.206,215.957,1484.48,215.823,1484.275,217.103 M1488.378,216.34C1488.616,216.626,1488.616,216.626,1488.378,216.34
	 M934.843,219.044c-0.023,1.179-0.182,2.358-0.538,3.485c0.697,0.126,1.38,0.257,2.101,0.412c-0.505,0.936-1.436,1.343-2.437,1.488
	c-0.379,1.567-0.608,3.163-0.814,4.758c0.875,0.136,1.759,0.253,2.643,0.444c-0.487,0.758-1.226,1.305-1.843,1.946
	c-0.215-0.304-0.646-0.917-0.861-1.221c-0.403,2.058-1.891,1.813,2.213,5.708c1.31-1.848,3.078-3.953,2.386-6.377
	c1.104-1.516,0.463-3.429,0.786-5.142c-0.646-0.22-1.315-0.435-1.937-0.632c0.145-1.109,1.076-1.675,1.956-2.189
	c-0.182-0.987-0.37-1.974-0.547-2.952c-0.14,0.014-0.421,0.042-0.557,0.056C936.518,218.567,935.648,218.675,934.843,219.044
	 M940.144,218.535c-0.85,5.212-1.411,14.166,2.466,17.315c0.197,0.851,0.407,1.708,0.599,2.568
	c-0.557-0.402-1.085-0.823-1.614-1.235c-0.313-1.492-1.025-2.868-1.998-4.028c-0.192,1.871-0.295,3.808,0.262,5.637
	c-0.126,0.444-0.239,0.894-0.346,1.347c1.31,0,2.625-0.014,3.949-0.023c-0.047-0.225-0.136-0.674-0.182-0.903
	c0.566,0.033,1.142,0.061,1.731,0.094c0.173,0.239,0.51,0.72,0.678,0.959c0.851-0.15,1.722-0.313,2.582-0.491
	c0.112,0.126,0.341,0.379,0.458,0.501c-0.43,0.599-0.842,1.212-1.212,1.843c0.426-0.056,1.268-0.173,1.689-0.229
	c0.37-2.83-1.544-5.216-1.404-8.009c-0.561,0.243-1.104,0.501-1.637,0.758c0.823-3.932,0.106-2.04,0.791-4.323
	c-1.24,0.047-2.62-0.178-3.565,0.819c-0.285-0.519-0.552-1.034-0.795-1.553c1.375-0.15,2.76-0.201,4.159-0.164
	c-0.325-2.384-0.066-6.43-1.623-5.722c-1.151,0.164-2.344,0.823-3.42,0.075c-0.416,0.15-0.819,0.309-1.207,0.468
	c-0.028-0.342-0.089-1.025-0.117-1.371c1.75-0.253,3.528-0.337,5.296-0.187c-0.14-1.38-0.36-2.746-0.702-4.089
	C943.367,218.375,941.753,218.544,940.144,218.535 M1485.126,218.586C1484.944,220.144,1486.581,218.067,1485.126,218.586
	 M932.111,223.091c0.931-1.273,0.889-2.873,0.912-4.37C931.765,219.727,931.171,221.678,932.111,223.091 M1484.364,219.915
	c0.224,0.669,0.575,1.324,1.048,1.876c-0.197,0.346-0.37,0.702-0.519,1.062c0.323-0.009,0.968-0.028,1.296-0.037
	c0.318-0.566,0.688-1.123,1.053-1.675C1486.282,220.705,1485.332,220.27,1484.364,219.915 M1487.91,220.855
	c0.15,0.749,1.549,0.604,1.268-0.248C1489.009,219.742,1487.624,219.971,1487.91,220.855 M931.166,223.629
	c-0.295,1.82-0.636,3.64-0.538,5.497c0.192-0.173,0.58-0.519,0.772-0.692c0.374-1.478,0.758-2.98,0.767-4.515
	C931.915,223.849,931.414,223.704,931.166,223.629 M1484.916,224.205c-0.15,0.538-0.276,1.085-0.374,1.633
	c0.168,0,0.505,0,0.674,0.005c0.763,0.299,1.539,0.393,2.395,0.351C1487.367,224.804,1486.006,224.598,1484.916,224.205
	 M1488.359,224.382c-0.87,0.145-0.426,1.474,0.356,1.263C1489.585,225.473,1489.164,224.13,1488.359,224.382 M1485.094,231.494
	c0.594-0.257,1.198-0.519,1.824-0.777c0.276,0.257,0.828,0.772,1.104,1.029c0.285-1.717-2.1-1.918-3.013-2.933
	C1484.546,229.664,1484.977,230.605,1485.094,231.494 M1484.284,233.061c0.276,0.72,0.716,1.371,1.216,1.97
	c0.814-0.028,1.633-0.051,2.479-0.084C1487.264,233.566,1485.781,232.967,1484.284,233.061 M1487.971,233.131
	c-0.468,0.604,0.501,1.633,1.146,1.174C1489.725,233.636,1488.64,232.565,1487.971,233.131 M936.191,237.337
	c0.468,0.837,1.23,1.45,1.899,2.138c-0.028-2.002-0.084-4.005-0.066-6.007C937.398,234.731,935.891,235.802,936.191,237.337
	 M927.952,240.275c0.281-0.164,0.842-0.496,1.123-0.66c0.08-1.974,1.263-3.813,0.777-5.806
	C929.079,235.915,927.994,237.987,927.952,240.275 M931.456,233.875c0.103,1.301,0.37,2.582,0.599,3.869
	c0.912,0.702,1.848,1.394,2.578,2.306c0.865,0.023,1.736,0.037,2.62,0.061c-0.538-0.772-1.081-1.53-1.642-2.269
	c-0.346,0.15-1.034,0.444-1.375,0.594c0.168-0.444,0.355-0.889,0.552-1.324C933,236.705,933.351,234.011,931.456,233.875
	 M1485.047,235.975C1485.117,237.533,1486.408,235.236,1485.047,235.975 M1487.512,235.994
	C1487.559,237.552,1488.883,235.274,1487.512,235.994 M931.133,238.067c-0.374,0.482-0.285,1.455,0.384,1.647
	C932.396,239.611,931.886,237.8,931.133,238.067 M1484.336,237.805c0.538,0.706,1.38,1.404,0.8,2.358
	c1.057-0.103,2.133-0.168,3.228-0.206c-0.524-0.108-1.029-0.196-1.516-0.271c0.098-0.229,0.304-0.683,0.407-0.912
	c-0.131-0.239-0.388-0.706-0.519-0.945C1485.922,237.819,1485.112,237.809,1484.336,237.805 M1488.364,237.786
	c-0.173,0.66,0.07,0.884,0.73,0.674C1489.229,237.791,1488.986,237.566,1488.364,237.786 M927.33,243.372
	c0.781,0.861,1.118-0.884,1.661-1.273c-0.131-0.435-0.393-1.305-0.524-1.74C927.779,241.215,927.461,242.301,927.33,243.372
	 M929.58,241.547c-0.005,0.632,0.009,1.268,0.028,1.904c1.768,0.066,3.537,0.019,5.31,0.145c0.365-0.201,0.744-0.393,1.132-0.585
	c0.412,0.318,0.847,0.641,1.287,0.959c0.332-0.187,0.992-0.557,1.324-0.744c-0.178-0.575-0.313-1.137-0.473-1.698
	c-1.142,0.649-3.016,0.131-4.309,0.028c-0.43,0.36-0.285,0.908-0.271,1.394c-0.641-0.014-1.258-0.019-1.867-0.009
	c-0.061-0.496,0.51-1.268-0.075-1.539C931.035,240.771,930.249,241.398,929.58,241.547 M945.585,241.206
	c-0.323,0.51-0.58,1.043-0.912,1.539c-0.327-1.637-2.147-1.366-3.247-0.791c-0.295-0.136-0.571-0.271-0.833-0.407
	c-0.426,0.735-1.441,1.38-0.819,2.325c0.365-0.122,1.099-0.374,1.464-0.501c1.441,0.552,3.701,0.575,4.472-1.015
	c0.351,0.197,1.057,0.594,1.408,0.791C946.614,242.488,946.095,241.847,945.585,241.206 M1484.588,241.646
	c-0.023,0.332-0.07,0.987-0.094,1.319c1.099,0.594,2.325,0.8,3.542,0.351c-0.758-0.641-1.553-1.216-2.344-1.778
	C1485.416,241.561,1484.864,241.618,1484.588,241.646 M1487.536,241.552c0.276,0.73,0.786,1.305,1.53,1.623
	c0.005-0.384,0.014-1.146,0.019-1.525C1488.7,241.622,1487.924,241.575,1487.536,241.552 M1495.414,243.971
	c-0.023,0.575-0.075,1.146-0.084,1.722c0.337,0.421,0.697,0.847,1.062,1.277c0.664,0.313,1.324,0.66,1.974,1.057
	c0.276,0.023,0.819,0.07,1.09,0.098c-0.005-1.558,0-3.111,0.014-4.664c-0.964-0.051-1.913-0.103-2.84-0.173
	C1496.205,243.512,1495.797,243.742,1495.414,243.971 M1484.747,244.359c0.515,1.609,2.639,0.351,3.869,0.711
	C1487.493,244.275,1486.02,244.523,1484.747,244.359 M1484.308,246.123c0.655,0.889,1.193,1.853,0.627,2.952
	c1.104-0.51,2.278-0.36,3.425-0.019c-0.234-0.646-0.449-1.282-0.65-1.918c0.416,0.159,0.851,0.318,1.301,0.487
	c0.042-0.398,0.122-1.198,0.164-1.6c-0.533,0.29-1.048,0.589-1.534,0.898C1486.525,246.614,1485.426,246.31,1484.308,246.123
	 M1193.987,248.149c-0.262,0.758-0.009,1.029,0.763,0.8C1194.979,248.186,1194.726,247.915,1193.987,248.149 M1484.406,252.013
	c0.889,0.267,1.829,0.851,2.821,0.655c0.599-0.402,1.216-0.809,1.918-1.076c-0.014-0.281-0.033-0.842-0.042-1.123
	c-0.328-0.014-0.978-0.033-1.305-0.047c-0.009,0.257-0.023,0.763-0.028,1.02c-0.229-0.154-0.683-0.463-0.912-0.618
	c-0.426,0.164-0.828,0.332-1.216,0.501c-0.051-0.29-0.159-0.88-0.211-1.174C1484.785,250.591,1484.574,251.306,1484.406,252.013
	 M1496.284,251.905c-1.025,0.566-1.38,1.647-0.351,2.447c-0.061,1.048-0.103,2.101-0.14,3.153c1.193,0.262,2.419,0.248,3.64,0.033
	c0.009-1.885,0.061-3.766-0.037-5.647C1498.343,251.858,1497.304,251.774,1496.284,251.905 M1485.187,253.253
	c-0.005,0.655,0.295,0.791,0.903,0.416C1486.057,253.005,1485.758,252.869,1485.187,253.253 M1487.03,253.295
	C1487.185,254.848,1488.35,252.485,1487.03,253.295 M1488.654,254.712c-1.132,0.744-2.498,0.505-3.747,0.444
	c-0.112,0.159-0.342,0.482-0.458,0.641c1.188,0.112,0.992,0.908,0.566,1.726c0.762-0.037,1.539-0.066,2.344-0.084
	c0.285,0.089,0.861,0.262,1.151,0.351c-0.458-0.444-0.931-0.87-1.38-1.287c0.023-0.262,0.07-0.795,0.089-1.057
	c0.669,0.206,1.357,0.421,2.058,0.622C1489.042,255.611,1488.85,255.161,1488.654,254.712 M1487.849,259.171
	c0.014,0.72,0.744,1.109,1.174,1.633c-0.019-0.66-0.028-1.31-0.023-1.956C1488.71,258.927,1488.134,259.091,1487.849,259.171
	 M1484.453,259.241c0.037,0.908,0.037,1.829,0.211,2.737c0.337,0.646,1.137,0.136,1.726,0.281c0.767-0.019,2.208,0.561,2.358-0.618
	c-0.566-0.72-1.249-1.324-1.895-1.932C1486.025,259.601,1485.234,259.423,1484.453,259.241 M1484.471,263.063
	c-0.07,0.706,0.454,1.165,0.908,1.642c0.014,0.262,0.052,0.791,0.066,1.053c1.043,0.196,2.091,0.458,3.139,0.739
	c-0.243-0.982-0.776-2.208,0.725-2.386c-0.36-0.384-0.641-0.865-1.076-1.113c-0.182,0.215-0.547,0.65-0.73,0.866
	C1486.483,263.592,1485.482,263.274,1484.471,263.063 M1484.509,268.233c0.313,0.108,0.936,0.323,1.244,0.43
	c-0.295,0.613-0.622,1.202-0.907,1.806c1.165,0.042,2.358,0.131,3.504,0.468c0.356-0.674,0.117-1.371-0.103-2.035
	c0.674-0.234,1.118-0.664,0.842-1.418C1487.582,267.802,1485.819,267.4,1484.509,268.233 M1068.247,286.146
	c-0.178,0.187-0.529,0.557-0.706,0.739c0.234,0.346,0.706,1.029,0.94,1.375c0.234-0.547,0.473-1.09,0.725-1.633
	C1068.967,286.511,1068.485,286.268,1068.247,286.146 M1067.634,295.947c0.033,0.917,0.454,1.694,1.38,1.993
	c0.005-0.725,0.019-1.446,0.037-2.166C1068.696,295.816,1067.989,295.901,1067.634,295.947 M860.874,299.447
	c0.389,12.976-2.104,44.925,0.777,47.144c1.039-2.872,0.552-16.199,0.473-17.712c0.603,0.65,1.17,1.357,1.811,1.993
	c1.029,0.342,1.464-1.011,1.039-1.759c-5.005-8.663-1.358,4.211-3.195-28.964C861.547,299.975,861.098,299.625,860.874,299.447
	 M1151.915,312.687c-0.047,0.683-0.075,1.366-0.094,2.058c1.6,0.211,3.256,0.112,4.819,0.622c2.604-0.347,2.415,1.434,3.284-2.615
	C1157.253,312.616,1154.581,312.705,1151.915,312.687 M1068.462,334.974c0.384-0.744,0.239-1.745-0.094-2.48
	C1067.812,332.869,1067.755,334.68,1068.462,334.974 M159.012,344.855c1.404-0.154,0.973-1.544,1.006-2.517
	C158.984,342.792,159.124,343.919,159.012,344.855 M1067.681,345.098c0.267,0.617,0.538,1.24,0.814,1.867
	c0.117-1.563,0.126-3.139,0.047-4.702C1067.232,342.651,1067.751,344.088,1067.681,345.098 M1067.685,355.241
	c-0.084,1.067,0.36,2.044,0.8,2.989c0.164-1.006,0.313-2.012,0.477-3.013c-0.225-1.16-0.37-2.335-0.515-3.495
	C1067.409,352.621,1067.709,354.025,1067.685,355.241 M156.499,354.291c-0.201,0.646,0.023,0.87,0.683,0.669
	C157.384,354.296,157.154,354.076,156.499,354.291 M1067.793,361.917c-0.056,2.503-0.739,5.338,0.678,7.584
	c0.468-2.517,0.29-5.081-0.052-7.593C1068.261,361.912,1067.947,361.917,1067.793,361.917 M1067.699,369.936
	c-0.108,2.76,0.028,5.525-0.164,8.281c-0.281,1.796-1.128,3.761,0.094,5.418c-0.079,2.437-0.463,4.856-0.627,7.294
	c-0.019,2.676,0.426,5.343,0.327,8.023c-0.341,2.049-0.66,4.239,0.211,6.213c-0.323,1.754-0.458,3.542-0.023,5.296
	c-0.473,3.022-0.518,4.207,0.084,5.665c-0.281,1.525-0.472,3.074-0.126,4.618c0.36,1.474-0.407,2.929-0.066,4.402
	c-0.309,2.503,0.122,5.034,0.327,7.537c0.182-0.136,0.552-0.412,0.735-0.547c0.295-2.508,0.15-5.057-0.145-7.556
	c0.416-2.235,0.423-18.336,0.023-19.56c0.201-0.683,0.426-1.357,0.65-2.03c-0.303-1.427-0.076-11.787-0.164-12.173
	c0.435-2.199,0.145-4.407-0.225-6.582c0.44-4.103,0.636-8.248-0.126-12.323C1068.649,371.105,1068.247,370.469,1067.699,369.936
	 M366.483,374.062C366.745,374.333,366.745,374.333,366.483,374.062 M1078.778,376.181c0.15,0.36,0.318,0.725,0.501,1.099
	c-0.466,1.171-0.149,1.686-0.379,3.411c0.388,0.458,1.623,0.842,0.917,1.614c-1.118,1.946,0.346,4.117-0.276,6.157
	c0.543,1.633-0.243,3.209-0.674,4.763c1.933,3.864,0.363,7.187,0.009,9.46c1.759,0.552,1.109,2.685-0.117,3.443
	c0.206,0.519,0.524,0.968,0.945,1.366c-0.285,0.463-0.613,0.908-0.879,1.38c0.311,3.288,1.545-0.727,0.243,9.104
	c0.218,1.004,1.811,6.634,0.08,8.627c0.519,0.767,1.081,1.502,1.647,2.26c1.31-4.234,0.197-8.692,0.688-12.978
	c-0.412-1.881-0.458-3.878,0.042-5.74c0.066-2.816-0.631-5.619-0.15-8.43c-0.458-2.685,0.393-5.361-0.014-8.047
	c0.075-0.234,0.22-0.692,0.295-0.926c-0.968-2.601,0.103-5.268-0.108-7.925c0.575-3.27-0.987-6.32-1.614-9.455
	C1079.643,375.568,1079.068,375.975,1078.778,376.181 M700.925,384.916c-0.094,0.716-0.168,1.436-0.22,2.166
	c-0.435-0.136-0.861-0.267-1.282-0.388c-0.023,1.45,0.061,2.957-0.683,4.276c0.697-0.173,1.399-0.342,2.105-0.505
	c0.005,0.861,0.019,1.722,0.037,2.592c-0.477,0.178-0.945,0.365-1.404,0.552c-0.187-0.744,0.14-1.754-0.594-2.232
	c-0.73-0.281-1.53-0.005-2.264-0.009c0.398,0.346,0.814,0.678,1.329,0.884c1.735,1.7,0.814,3.501,0.617,6.232
	c0.538-0.842,1.123-1.651,1.82-2.372c0.847,1.441-0.033,2.802-1.258,3.621c-0.496,2.18-0.636,4.416-0.458,6.648
	c0.412-0.379,0.819-0.772,1.24-1.151c0.398,0.187,0.8,0.379,1.212,0.575c1.147-4.192,1.192-1.673,0.487-6.671
	c0.098-0.763,0.192-1.52,0.29-2.269c-0.108-0.15-0.327-0.454-0.44-0.603C701.979,393.131,702.309,387.4,700.925,384.916
	 M215.339,403.592C215.62,403.844,215.62,403.844,215.339,403.592 M226.141,404.462
	C226.413,404.724,226.413,404.724,226.141,404.462 M205.005,413.374C204.293,414.787,206.548,413.444,205.005,413.374
	 M2217.725,417.239c-0.112,0.342-0.342,1.029-0.454,1.371c0.257,0.571,0.529,1.151,0.814,1.74c-0.229,0.136-0.692,0.407-0.922,0.543
	c0.028,1.315-0.098,3.106,1.216,3.883c0.711,1.998,0.571,4.122,0.159,6.161c1.496,1.852,10.421,0.664,15.621,1.31
	c0.954-0.271,1.951-0.304,2.84,0.29c-0.033-0.253-0.103-0.758-0.136-1.011c2.578,0.379,5.184,0.571,7.808,0.374
	c0,0-16.64-8.659-16.641-8.66c-0.168-0.168-0.514-0.501-0.688-0.669C2225.37,421.753,2219.858,418.484,2217.725,417.239
	 M2271.9,423.718C2272.158,423.971,2272.158,423.971,2271.9,423.718 M2194.801,431.582
	C2195.04,431.858,2195.04,431.858,2194.801,431.582 M2174.071,432.102C2173.304,433.505,2175.601,432.172,2174.071,432.102
	 M2197.112,433.468C2197.36,433.73,2197.36,433.73,2197.112,433.468 M2222.408,433.402
	C2222.446,434.956,2223.802,432.696,2222.408,433.402 M2227.031,433.463c0.323,0.758,1.787,0.458,2.503,0.197
	C2229.056,433.056,2227.69,433.14,2227.031,433.463 M1067.709,438.16c-0.084,1.516-0.089,3.041,0.023,4.561
	C1068.148,441.215,1069.234,439.395,1067.709,438.16 M2278.988,447.143c-0.431,0.575-0.323,0.926,0.318,1.062
	C2279.676,447.62,2279.568,447.269,2278.988,447.143 M1068.088,451.587c-0.084-0.842-0.206-1.67-0.36-2.484
	C1067.423,449.959,1067.26,450.927,1068.088,451.587 M1068.663,463.863c-0.332,3.56,0.182,7.116,1.001,10.578
	c0.196-0.126,0.594-0.379,0.791-0.505C1070.443,472.935,1070.637,464.917,1068.663,463.863 M2211.152,464.284
	C2211.414,464.532,2211.414,464.532,2211.152,464.284 M1068.691,475.592c-0.253,0.772-0.005,1.043,0.753,0.814
	C1069.674,475.62,1069.426,475.349,1068.691,475.592 M2222.857,479.788C2223.1,480.055,2223.1,480.055,2222.857,479.788
	 M1068.607,487.292c-0.229,2.451,0.791,4.763,1.062,7.177c0.543-0.847,0.889-1.801,0.552-2.793
	C1069.795,490.212,1070.235,488.074,1068.607,487.292 M1969.837,487.386c-0.098,1.165-0.094,2.339-0.084,3.513
	c0.15-0.145,0.454-0.43,0.604-0.575C1970.188,489.337,1970.048,488.35,1969.837,487.386 M1068.682,495.788
	c-0.328,2.685-0.257,5.502,0.959,7.981c0.215-0.379,0.65-1.128,0.87-1.502c-0.346-1.778-0.978-3.499-1.048-5.319
	C1069.449,496.406,1069.187,496.018,1068.682,495.788 M1068.686,506.951c-0.37,2.367,0.103,4.734,0.959,6.952
	c0.22-0.023,0.655-0.07,0.875-0.098C1070.485,511.862,1069.721,507.716,1068.686,506.951 M2075.531,514.469
	C2075.756,514.75,2075.756,514.75,2075.531,514.469 M2066.595,514.923C2066.829,515.199,2066.829,515.199,2066.595,514.923
	 M1068.7,516.593c-0.243,2.372-0.304,4.865,0.838,7.041c0.21-0.131,0.632-0.398,0.847-0.533
	C1069.926,520.906,1069.945,518.544,1068.7,516.593 M1068.682,527.854c-0.094,1.142-0.098,2.297-0.051,3.453
	c0.44,1.029,0.814,2.096,1.315,3.116C1069.833,532.261,1070.183,529.585,1068.682,527.854 M1068.593,538.399
	c-0.126,1.927-0.299,4.042,1.113,5.6c0.402-1.595-0.084-3.186-0.253-4.763C1069.238,539.026,1068.808,538.609,1068.593,538.399
	 M1068.888,549.173c-0.318,1.329,0.033,2.653,0.309,3.963c0.164,0.07,0.491,0.215,0.655,0.285
	C1069.837,551.947,1069.524,550.492,1068.888,549.173 M1068.574,559.437c-0.098,1.324,0.028,2.685,0.833,3.799
	c0.047-0.805,0.098-1.595,0.136-2.381C1069.206,560.378,1068.883,559.905,1068.574,559.437z"/>
</svg>
